<?xml version="1.0" encoding="utf-8"?>
<!-- Generator: Adobe Illustrator 18.1.1, SVG Export Plug-In . SVG Version: 6.00 Build 0)  -->
<svg version="1.1" id="Layer_1" xmlns="http://www.w3.org/2000/svg" xmlns:xlink="http://www.w3.org/1999/xlink" x="0px" y="0px"
	 viewBox="0 0 84.5 61.4" enable-background="new 0 0 84.5 61.4" xml:space="preserve">
<g>
	<g>
		<g>
			<g>
				<path fill="#DB6230" d="M46.2,2.6C29.1,0.2,12.6,9.4,2.4,25.1C7.9,43,21.1,56.4,38.2,58.8c17.1,2.4,33.6-6.8,43.8-22.5
					C76.6,18.5,63.3,5,46.2,2.6z"/>
				<path fill="#F3D97F" d="M37.9,61C20.6,58.6,6.2,45,0.3,25.7l-0.3-1l0.6-0.9c11-16.9,28.6-25.9,46-23.5
					c17.3,2.5,31.7,16,37.6,35.3l0.3,1l-0.6,0.9C72.9,54.5,55.3,63.5,37.9,61L37.9,61z"/>
			</g>
			<g>
				<defs>
					<path id="SVGID_1_" d="M44.4,15.4c-17.1-2.4-32.9,1.7-42,9.7c6.5,10.3,20.5,18.6,37.6,21c17.1,2.4,32.9-1.6,42-9.7
						C75.5,26.1,61.5,17.8,44.4,15.4z"/>
				</defs>
				<use xlink:href="#SVGID_1_"  overflow="visible" fill="#FFFFFF"/>
				<clipPath id="SVGID_2_">
					<use xlink:href="#SVGID_1_"  overflow="visible"/>
				</clipPath>
				<path clip-path="url(#SVGID_2_)" fill="#42A3BC" d="M67.6,34.3c-2,14-15,23.8-29,21.8c-14-2-23.8-15-21.8-29
					c2-14,15-23.8,29-21.8C59.9,7.3,69.6,20.3,67.6,34.3z"/>
				<path clip-path="url(#SVGID_2_)" fill="#484F59" d="M57.1,32.8c-1.2,8.2-8.8,13.9-17,12.7c-8.2-1.2-13.9-8.8-12.7-17
					c1.2-8.2,8.8-13.9,17-12.7C52.5,17,58.3,24.6,57.1,32.8z"/>
			</g>
			<path fill="#FFFFFF" d="M61.5,30.6c-2.2,2.2-5.8,2.2-8.1-0.1c-2.2-2.2-2.2-5.9,0.1-8.1c2.2-2.2,5.9-2.2,8.1,0.1
				C63.8,24.8,63.8,28.4,61.5,30.6z"/>
			<path fill="#FFFFFF" d="M55.1,38.9c-1,1-2.7,1-3.7,0c-1-1-1-2.7,0-3.7c1-1,2.7-1,3.7,0C56.1,36.2,56.1,37.9,55.1,38.9z"/>
		</g>
	</g>
</g>
</svg>
