<?xml version="1.0" encoding="utf-8"?>
<!-- Generator: Adobe Illustrator 18.1.1, SVG Export Plug-In . SVG Version: 6.00 Build 0)  -->
<svg version="1.1" id="Layer_1" xmlns="http://www.w3.org/2000/svg" xmlns:xlink="http://www.w3.org/1999/xlink" x="0px" y="0px"
	 viewBox="0 0 198.3 198.4" enable-background="new 0 0 198.3 198.4" xml:space="preserve">
<g>
	<path fill="#F3D97F" d="M56.4,87.6c-1.6,5.8-2,12-1.1,18.3C59,130,81.6,146.7,105.8,143c4.9-0.8,9.4-2.5,13.6-4.6l35,43
		c-11.8,7.9-25.4,13.6-40.4,15.8c-54.1,8.2-104.7-29-113-83.1c-2.7-18.1-0.3-35.7,6-51.5L56.4,87.6z"/>
	<path fill="#5A6274" d="M79.3,59.8c-5.8,2.9-10.7,6.9-14.6,11.8L15.3,46.5C26.7,28.2,44,13.7,65,6.1L79.3,59.8z"/>
	<path fill="#AED5A5" d="M140.7,83.7c-6.7-18-24.5-29.7-44-28.6L82.4,1.5c0.6-0.1,1.2-0.3,1.8-0.4c51.1-7.8,99,25,111.1,74.3
		L140.7,83.7z"/>
	<path fill="#5A6274" d="M133.5,127c5.8-7.1,9.5-15.9,10-25.5l54.7-8.3c1.8,29.5-9.7,57.2-29.7,76.7L133.5,127z"/>
</g>
</svg>
