<?xml version="1.0" encoding="utf-8"?>
<!-- Generator: Adobe Illustrator 18.1.1, SVG Export Plug-In . SVG Version: 6.00 Build 0)  -->
<svg version="1.1" id="Layer_1" xmlns="http://www.w3.org/2000/svg" xmlns:xlink="http://www.w3.org/1999/xlink" x="0px" y="0px"
	 viewBox="0 0 124.2 123.8" enable-background="new 0 0 124.2 123.8" xml:space="preserve">
<g>
	<g>
		
			<rect x="49.9" y="4.3" transform="matrix(-0.4415 0.8973 -0.8973 -0.4415 150.0849 -9.6574)" fill="#DBE3E5" width="56.4" height="75.2"/>
		
			<rect x="54.4" y="8.8" transform="matrix(-0.4415 0.8973 -0.8973 -0.4415 150.0809 -9.6547)" fill="#73BBC4" width="47.4" height="66.2"/>
		<polygon fill="#5F9BA3" points="37.9,48.5 118.2,35.2 97.3,77.7 		"/>
	</g>
	<g>
		<polygon fill="#FFFFFF" points="17.7,123.8 0,70.3 71.4,46.7 89.1,100.2 		"/>
		
			<rect x="20.8" y="52.2" transform="matrix(0.3138 0.9495 -0.9495 0.3138 111.5065 16.2243)" fill="#F3D97F" width="47.4" height="66.2"/>
		<polygon fill="#EFC967" points="20.5,118.1 68.5,52.4 83.4,97.4 		"/>
		<g>
			<g>
				<g>
					<path fill="#5A6274" d="M51.5,107.8L51.5,107.8c0.2-0.1,0.4,0.1,0.4-0.1l-5.2-15.8c-0.1-0.2-0.3-0.3-0.5-0.3l0,0
						c-0.2,0.1-0.3,0.3-0.3,0.5l5.2,15.8C51.2,108.1,51.3,107.8,51.5,107.8L51.5,107.8z"/>
				</g>
				<g>
					<g>
						<path fill="#5A6274" d="M49.8,102.6L49.8,102.6c0.1-0.2,0-0.4-0.2-0.5l-3.2-1.6c-0.2-0.1-0.4,0-0.5,0.2l0,0
							c-0.1,0.2,0,0.4,0.2,0.5l3.2,1.6C49.5,102.8,49.7,102.8,49.8,102.6L49.8,102.6z"/>
					</g>
					<path fill="#5A6274" d="M37.3,96.3c1.7-1.6,4.3-2.1,6.6-1c2.2,1.1,3.4,3.5,3.1,5.9c-1.7,1.6-4.4,2.1-6.6,1
						C38.2,101,37,98.6,37.3,96.3z"/>
					<path fill="#484F59" d="M47,101.2c-1.7,1.6-4.4,2.1-6.6,1c-2.2-1.1-3.4-3.5-3.1-5.9"/>
				</g>
				<g>
					<g>
						<path fill="#5A6274" d="M49.8,102.6L49.8,102.6c-0.2-0.1-0.3-0.3-0.2-0.5l1.6-3.2c0.1-0.2,0.3-0.3,0.5-0.2l0,0
							c0.2,0.1,0.3,0.3,0.2,0.5l-1.6,3.2C50.3,102.6,50,102.7,49.8,102.6L49.8,102.6z"/>
					</g>
					<path fill="#5A6274" d="M56.1,90c-2.4-0.3-4.7,0.9-5.9,3.1c-1.1,2.2-0.7,4.9,1,6.6c2.4,0.3,4.7-0.9,5.9-3.1
						C58.2,94.4,57.8,91.8,56.1,90z"/>
					<path fill="#484F59" d="M51.2,99.8c2.4,0.3,4.7-0.9,5.9-3.1c1.1-2.2,0.7-4.9-1-6.6"/>
				</g>
				<path fill="#EA8357" d="M41.2,88.7c-0.9,8.1-12.9,0.3-6.3-4.1c-6.6,4.4-7.9-9.9-0.7-7.5c-7.2-2.4,3.1-12.3,5.4-5.3
					c-2.3-7.1,11.9-5.2,7.5,1c4.4-6.2,11.8,6.1,3.9,6.5c7.9-0.4,2.9,13.1-2.6,7.1c2.4,2.6,1.2,4.9-0.8,6l-2.1,0.7
					C43.2,93.4,40.9,92.2,41.2,88.7z"/>
				<path fill="#D36F40" d="M39.5,71.5c-1.8-6.7,11.9-4.8,7.6,1.3c4.4-6.2,11.8,6.1,3.9,6.5c7.9-0.4,2.9,13.1-2.6,7.1
					c2.4,2.6,1.2,4.9-0.8,6l-1.1,0.3L39.5,71.5z"/>
				<path fill="#FFFFFF" d="M46.9,79.3c-0.8-2.4-3.4-3.7-5.8-2.9c-2.4,0.8-3.7,3.4-2.9,5.8c0.8,2.4,3.4,3.7,5.8,2.9
					C46.4,84.3,47.7,81.7,46.9,79.3z"/>
				<path fill="#D0EAF9" d="M41.1,76.3c2.4-0.8,5,0.5,5.8,2.9c0.8,2.4-0.5,5-2.9,5.8L41.1,76.3z"/>
			</g>
		</g>
	</g>
</g>
</svg>
