<?xml version="1.0" encoding="utf-8"?>
<!-- Generator: Adobe Illustrator 18.1.1, SVG Export Plug-In . SVG Version: 6.00 Build 0)  -->
<svg version="1.1" id="Layer_1" xmlns="http://www.w3.org/2000/svg" xmlns:xlink="http://www.w3.org/1999/xlink" x="0px" y="0px"
	 viewBox="0 0 121.9 135.2" enable-background="new 0 0 121.9 135.2" xml:space="preserve">
<g>
	<g>
		<g>
			<g>
				<g>
					<g>
						<path fill="#484F59" d="M70.9,117.7c2,1.4,2.5,4.1,1.1,6.1l-6.7,9.6c-1.4,2-4.1,2.5-6.1,1.1l-24.5-17.1
							c-2-1.4-2.5-4.1-1.1-6.1l6.7-9.6c1.4-2,4.1-2.5,6.1-1.1L70.9,117.7z"/>
						<g>
							<path fill="#5A6274" d="M76,37c-4.5,0-8.2,3.7-8.2,8.2c0,4.6,3.7,8.2,8.2,8.2l0,0l0,0c4.6,0,8.2-3.7,8.2-8.2
								C84.3,40.7,80.6,37,76,37L76,37L76,37z"/>
						</g>
						<path fill="#FFFFFF" d="M22.2,66l24.2,24.3l32.4-32.4L41.4,20.4c0.8,12.1-2,24.3-8.7,34.4C29.7,59.2,26.1,63,22.2,66z"/>
						<path fill="#5A6274" d="M22.9,65.2L5.1,83c-6.8,6.8-6.8,17.9,0,24.7l8.5,8.5c6.8,6.8,17.9,6.8,24.7,0l17.8-17.8L22.9,65.2z"/>
						<path fill="#84C88D" d="M104.4,80.2c-1.5,1.5-4.2,1.4-6-0.4L41.5,22.9c-1.8-1.8-2-4.5-0.4-6l2.8-2.8c1.6-1.5,4.2-1.4,6,0.4
							l56.9,56.9c1.8,1.8,1.9,4.5,0.4,6L104.4,80.2z"/>
						<path fill="#D0EAF9" d="M100.8,79.9L70.9,50L38.6,82.4L55.2,99c3-3.9,6.8-7.4,11.2-10.4C76.5,81.8,88.7,79.1,100.8,79.9z"/>
						<path fill="#484F59" d="M39.3,81.6L9.2,111.8l4.4,4.4c6.8,6.8,17.9,6.8,24.7,0l17.8-17.8L39.3,81.6z"/>
						<path fill="#7BC185" d="M106.8,71.4L78.2,42.8l-8.4,8.4l28.7,28.7c1.8,1.8,4.5,1.9,6,0.4l2.8-2.8
							C108.8,75.9,108.6,73.2,106.8,71.4z"/>
						<path fill="#5A6274" d="M45.1,114.7c-1.3-0.9-3-0.6-3.9,0.7l0,0c-0.9,1.3-0.6,3,0.7,3.9l18.3,12.6c1.3,0.9,3,0.6,3.9-0.7l0,0
							c0.9-1.3,0.6-3-0.7-3.9L45.1,114.7z"/>
					</g>
				</g>
			</g>
		</g>
	</g>
	<g>
		<g>
			<g>
				
					<rect x="97.4" y="7.6" transform="matrix(0.7071 0.7071 -0.7071 0.7071 45.2817 -63.0381)" fill="#F1F9FA" width="2.7" height="31"/>
			</g>
			<g>
				<g>
					
						<rect x="86.3" y="-0.4" transform="matrix(0.9465 0.3228 -0.3228 0.9465 9.5715 -27.4865)" fill="#F1F9FA" width="2.7" height="31"/>
				</g>
				<g>
					
						<rect x="105.4" y="18.7" transform="matrix(0.3228 0.9465 -0.9465 0.3228 104.6927 -77.8699)" fill="#F1F9FA" width="2.7" height="31"/>
				</g>
			</g>
		</g>
	</g>
</g>
</svg>
