<?xml version="1.0" encoding="utf-8"?>
<!-- Generator: Adobe Illustrator 18.1.1, SVG Export Plug-In . SVG Version: 6.00 Build 0)  -->
<svg version="1.1" id="Layer_1" xmlns="http://www.w3.org/2000/svg" xmlns:xlink="http://www.w3.org/1999/xlink" x="0px" y="0px"
	 viewBox="0 0 67.6 50.8" enable-background="new 0 0 67.6 50.8" xml:space="preserve">
<g>
	<g>
		<path fill="#5A6274" d="M67.6,39.1c0,1.4-1,2.5-2.3,2.5h-4.4v9.2L50,41.6H21.6c-1.3,0-2.3-1.1-2.3-2.5V11.2c0-1.4,1-2.5,2.3-2.5
			h43.7c1.3,0,2.3,1.1,2.3,2.5V39.1z"/>
		<path fill="#FFFFFF" d="M0,30.3c0,1.4,1,2.5,2.3,2.5h4.4V42l10.9-9.2h28.3c1.3,0,2.3-1.1,2.3-2.5V2.5c0-1.4-1-2.5-2.3-2.5H2.3
			C1,0,0,1.1,0,2.5V30.3z"/>
		<rect x="7.2" y="9" fill="#73BBC4" width="33.8" height="2.1"/>
		<rect x="7.2" y="15.6" fill="#73BBC4" width="33.8" height="2.1"/>
		<rect x="7.2" y="22.3" fill="#73BBC4" width="26.3" height="2.1"/>
	</g>
</g>
</svg>
