<?xml version="1.0" encoding="utf-8"?>
<!-- Generator: Adobe Illustrator 18.1.1, SVG Export Plug-In . SVG Version: 6.00 Build 0)  -->
<svg version="1.1" id="Layer_1" xmlns="http://www.w3.org/2000/svg" xmlns:xlink="http://www.w3.org/1999/xlink" x="0px" y="0px"
	 viewBox="0 0 95.9 89.6" enable-background="new 0 0 95.9 89.6" xml:space="preserve">
<g>
	<g>
		<path fill="#D0EAF9" d="M27.5,2.3c1.7-2.4,5-3,7.4-1.3l58.7,40.5c2.4,1.7,3,5,1.4,7.4L68.4,87.3c-1.7,2.4-5,3-7.4,1.4L2.3,48.1
			c-2.4-1.7-3-5-1.4-7.4L27.5,2.3z"/>
		<path fill="#8FC3D5" d="M38.1,36.6L0.3,42.3c-0.6,2.2,0.2,4.5,2,5.8L61,88.7c1.9,1.3,4.3,1.1,6.2-0.2L59,50.7L38.1,36.6z"/>
		<path fill="#FFFFFF" d="M37.2,37.9l-37,4.6c-0.5,2.1,0.3,4.4,2.1,5.7L61,88.7c1.9,1.3,4.3,1.2,6,0L58.2,52L37.2,37.9z"/>
		<path fill="#8FC3D5" d="M28.6,1.2L39.5,57l56-9.6c0.6-2.2-0.1-4.6-1.9-5.9L34.9,0.9C33-0.3,30.5-0.2,28.6,1.2z"/>
		<path fill="#FFFFFF" d="M28.8,1l12.8,52.9l54-6.7c0.5-2.1-0.3-4.4-2.1-5.7L34.9,0.9C33-0.3,30.6-0.3,28.8,1z"/>
	</g>
</g>
</svg>
