<?xml version="1.0" encoding="utf-8"?>
<!-- Generator: Adobe Illustrator 18.1.1, SVG Export Plug-In . SVG Version: 6.00 Build 0)  -->
<svg version="1.1" id="Layer_1" xmlns="http://www.w3.org/2000/svg" xmlns:xlink="http://www.w3.org/1999/xlink" x="0px" y="0px"
	 viewBox="0 0 148.8 149" enable-background="new 0 0 148.8 149" xml:space="preserve">
<g>
	<g>
		<g>
			<g>
				<polygon fill="#CDD5D7" points="3.5,105.7 0,98.2 25.5,52.7 71.8,19 148.8,50.9 137,79.4 121.4,117 108.2,149 				"/>
				<polygon fill="#D2DADD" points="3.5,105.7 0,98.2 101.4,134.6 108.2,149 				"/>
				<polygon fill="#30363D" points="139,74.5 148.8,50.9 145.3,43.4 135.5,67.1 				"/>
				<polygon fill="#FFFFFF" points="0,98.2 13.2,66.3 40.6,0.1 68.2,11.6 145.3,43.5 133.4,72 117.9,109.6 104.6,141.6 				"/>
				<polygon fill="#5A6274" points="135.5,67.1 145.3,43.4 40.6,0.1 30.8,23.8 				"/>
				<g>
					<path fill="#30363D" d="M55.8,23c-1.1,2.6,0.2,5.7,2.8,6.8c2.6,1.1,5.7-0.2,6.8-2.8c1.1-2.7-0.2-5.7-2.8-6.8
						C59.9,19.1,56.9,20.4,55.8,23z"/>
					<path fill="#FFFFFF" d="M61,22.4l-1.6-0.6c-1.5-0.6-2.3-2.4-1.6-4l4-9.6c0.6-1.6,2.4-2.3,4-1.7l1.6,0.6
						c1.5,0.6,2.1,2.2,1.7,3.7l4.6,1.9c1.5-4-0.4-8.4-4.4-10.1l-5.1-2.1c-4.1-1.7-8.7,0.3-10.4,4.3l-4,9.6c-1.7,4,0.3,8.7,4.3,10.4
						l5.1,2.1c1.2,0.5,2.7-0.1,3.2-1.3C62.8,24.4,62.3,23,61,22.4z"/>
					<path fill="#CDD5D7" d="M69.4,2.8c-4-1.5-8.5,0.4-10.2,4.4l-4,9.6c-1.6,4,0.2,8.5,4.1,10.2c1.2,0.4,2.6-0.1,3.1-1.3
						c0.5-1.2-0.1-2.7-1.3-3.2l-1.6-0.6c-1.5-0.6-2.3-2.4-1.6-4l4-9.6c0.6-1.6,2.4-2.3,4-1.7l1.6,0.6c1.5,0.6,2.1,2.2,1.7,3.7
						l4.6,1.9C75,8.9,73.2,4.5,69.4,2.8z"/>
				</g>
				<g>
					<path fill="#30363D" d="M109.4,45.2c-1.1,2.6,0.2,5.7,2.8,6.8c2.6,1.1,5.7-0.2,6.8-2.8c1.1-2.7-0.2-5.7-2.8-6.8
						C113.5,41.3,110.5,42.6,109.4,45.2z"/>
					<path fill="#FFFFFF" d="M114.6,44.6L113,44c-1.6-0.6-2.3-2.4-1.7-4l4-9.6c0.6-1.6,2.4-2.3,4-1.7l1.6,0.6
						c1.5,0.6,2.1,2.2,1.7,3.7l4.5,1.9c1.5-4-0.4-8.4-4.4-10.1l-5.1-2.1c-4-1.7-8.7,0.3-10.4,4.3l-4,9.6c-1.7,4,0.3,8.7,4.3,10.4
						l5.1,2.1c1.2,0.5,2.7-0.1,3.2-1.3C116.4,46.6,115.8,45.1,114.6,44.6z"/>
					<path fill="#CDD5D7" d="M122.9,25c-4-1.5-8.5,0.4-10.2,4.4l-4,9.6c-1.6,4,0.2,8.5,4.1,10.2c1.2,0.4,2.6-0.1,3-1.3
						c0.5-1.2-0.1-2.7-1.3-3.2L113,44c-1.6-0.6-2.3-2.4-1.7-4l4-9.6c0.6-1.6,2.4-2.3,4-1.7l1.6,0.6c1.5,0.6,2.1,2.2,1.7,3.7l4.5,1.9
						C128.6,31,126.8,26.7,122.9,25z"/>
				</g>
			</g>
		</g>
	</g>
	<g>
		<g>
			
				<rect x="30.8" y="37.4" transform="matrix(0.9241 0.3821 -0.3821 0.9241 18.8723 -10.6726)" fill="#F5F1F0" width="11.1" height="9.5"/>
		</g>
		<g>
			
				<rect x="44.1" y="42.9" transform="matrix(0.9241 0.3821 -0.3821 0.9241 21.9968 -15.3506)" fill="#F5F1F0" width="11.1" height="9.5"/>
		</g>
		<g>
			<polygon fill="#CDD5D7" points="66.3,59.7 56.1,55.5 59.7,46.7 69.9,50.9 			"/>
		</g>
		<g>
			
				<rect x="70.8" y="54" transform="matrix(0.9239 0.3826 -0.3826 0.9239 28.2839 -24.7308)" fill="#CDD5D7" width="11.1" height="9.5"/>
		</g>
		<g>
			<polygon fill="#CDD5D7" points="92.9,70.8 82.7,66.6 86.4,57.8 96.6,62 			"/>
		</g>
		<g>
			
				<rect x="97.5" y="65" transform="matrix(0.9239 0.3827 -0.3827 0.9239 34.5534 -34.1074)" fill="#CDD5D7" width="11.1" height="9.5"/>
		</g>
		<g>
			<polygon fill="#CDD5D7" points="119.6,81.8 109.4,77.6 113.1,68.8 123.3,73 			"/>
		</g>
	</g>
	<g>
		<g>
			
				<rect x="25.8" y="49.4" transform="matrix(0.924 0.3825 -0.3825 0.924 23.0987 -7.8733)" fill="#CDD5D7" width="11.1" height="9.5"/>
		</g>
		<g>
			<polygon fill="#CDD5D7" points="48,66.2 37.8,62 41.4,53.2 51.6,57.4 			"/>
		</g>
		<g>
			
				<rect x="52.5" y="60.4" transform="matrix(0.9239 0.3825 -0.3825 0.9239 29.3581 -17.2403)" fill="#CDD5D7" width="11.1" height="9.5"/>
		</g>
		<g>
			
				<rect x="65.8" y="66" transform="matrix(0.924 0.3824 -0.3824 0.924 32.4681 -21.9147)" fill="#CDD5D7" width="11.1" height="9.5"/>
		</g>
		<g>
			
				<rect x="79.2" y="71.5" transform="matrix(0.9239 0.3826 -0.3826 0.9239 35.6199 -26.6091)" fill="#CDD5D7" width="11.1" height="9.5"/>
		</g>
		<g>
			<polygon fill="#CDD5D7" points="101.3,88.3 91.1,84 94.8,75.3 105,79.5 			"/>
		</g>
		<g>
			<polygon fill="#CDD5D7" points="114.7,93.8 104.5,89.6 108.1,80.8 118.3,85 			"/>
		</g>
	</g>
	<g>
		<g>
			<polygon fill="#CDD5D7" points="29.7,72.7 19.5,68.4 23.1,59.6 33.3,63.9 			"/>
		</g>
		<g>
			
				<rect x="34.2" y="66.9" transform="matrix(0.9239 0.3826 -0.3826 0.9239 30.4403 -9.7474)" fill="#CDD5D7" width="11.1" height="9.5"/>
		</g>
		<g>
			
				<rect x="47.5" y="72.4" transform="matrix(0.9241 0.3822 -0.3822 0.9241 33.5252 -14.4238)" fill="#CDD5D7" width="11.1" height="9.5"/>
		</g>
		<g>
			<polygon fill="#EA8357" points="69.7,89.2 59.5,85 63.1,76.2 73.3,80.4 			"/>
		</g>
		<g>
			
				<rect x="74.2" y="83.5" transform="matrix(0.9239 0.3826 -0.3826 0.9239 39.8182 -23.7971)" fill="#CDD5D7" width="11.1" height="9.5"/>
		</g>
		<g>
			
				<rect x="87.6" y="89" transform="matrix(0.924 0.3824 -0.3824 0.924 42.9175 -28.4689)" fill="#CDD5D7" width="11.1" height="9.5"/>
		</g>
		<g>
			
				<rect x="100.9" y="94.5" transform="matrix(0.924 0.3825 -0.3825 0.924 46.0633 -33.1582)" fill="#CDD5D7" width="11.1" height="9.5"/>
		</g>
	</g>
	<g>
		<g>
			
				<rect x="15.9" y="73.4" transform="matrix(0.9239 0.3825 -0.3825 0.9239 31.5138 -2.2573)" fill="#EA8357" width="11.1" height="9.5"/>
		</g>
		<g>
			
				<rect x="29.2" y="78.9" transform="matrix(0.924 0.3823 -0.3823 0.924 34.6208 -6.9393)" fill="#CDD5D7" width="11.1" height="9.5"/>
		</g>
		<g>
			<polygon fill="#CDD5D7" points="51.4,95.7 41.2,91.4 44.8,82.6 55,86.9 			"/>
		</g>
		<g>
			
				<rect x="55.9" y="89.9" transform="matrix(0.9239 0.3827 -0.3827 0.9239 40.9093 -16.3078)" fill="#CDD5D7" width="11.1" height="9.5"/>
		</g>
		<g>
			<polygon fill="#CDD5D7" points="78.1,106.7 67.9,102.5 71.5,93.7 81.7,97.9 			"/>
		</g>
		<g>
			
				<rect x="82.6" y="101" transform="matrix(0.924 0.3824 -0.3824 0.924 47.1246 -25.6639)" fill="#CDD5D7" width="11.1" height="9.5"/>
		</g>
		<g>
			<polygon fill="#CDD5D7" points="104.8,117.8 94.5,113.5 98.2,104.7 108.4,109 			"/>
		</g>
	</g>
	<g>
		<g>
			<polygon fill="#CDD5D7" points="19.8,96.6 9.5,92.4 13.2,83.6 23.4,87.8 			"/>
		</g>
		<g>
			
				<rect x="24.3" y="90.9" transform="matrix(0.9239 0.3827 -0.3827 0.9239 38.8598 -4.1311)" fill="#CDD5D7" width="11.1" height="9.5"/>
		</g>
		<g>
			
				<rect x="37.6" y="96.4" transform="matrix(0.9238 0.3828 -0.3828 0.9238 42.0022 -8.8155)" fill="#CDD5D7" width="11.1" height="9.5"/>
		</g>
		<g>
			<polygon fill="#CDD5D7" points="59.8,113.2 49.6,108.9 53.2,100.1 63.4,104.4 			"/>
		</g>
		<g>
			
				<rect x="64.3" y="107.4" transform="matrix(0.924 0.3823 -0.3823 0.924 48.1907 -18.174)" fill="#F5F1F0" width="11.1" height="9.5"/>
		</g>
		<g>
			<polygon fill="#F5F1F0" points="86.5,124.2 76.2,120 79.9,111.2 90.1,115.4 			"/>
		</g>
		<g>
			<polygon fill="#F5F1F0" points="99.8,129.7 89.6,125.5 93.2,116.7 103.4,120.9 			"/>
		</g>
	</g>
</g>
</svg>
