<?xml version="1.0" encoding="utf-8"?>
<!-- Generator: Adobe Illustrator 18.1.1, SVG Export Plug-In . SVG Version: 6.00 Build 0)  -->
<svg version="1.1" id="Layer_1" xmlns="http://www.w3.org/2000/svg" xmlns:xlink="http://www.w3.org/1999/xlink" x="0px" y="0px"
	 viewBox="0 0 57 57" enable-background="new 0 0 57 57" xml:space="preserve">
<g>
	<g>
		<path fill="#F1F9FA" d="M28.5,57C44.2,57,57,44.2,57,28.5C57,12.8,44.2,0,28.5,0V57z"/>
		<path fill="#FFFFFF" d="M28.5,0C12.8,0,0,12.8,0,28.5C0,44.2,12.8,57,28.5,57V0z"/>
		<g>
			<path fill="#84C88D" d="M55.8,36.2c-0.4,0-0.9,0.2-0.9,0.3c0,0.1-0.5,0.4-0.7,0.4c-0.2,0.1-0.5,0.6-0.6,0.8
				c-0.1,0.2-0.5,0.1-0.7,0.2c-0.2,0.1-0.5,0.3-0.5,0.5c0,0.2-0.1,0.1-0.2,0c0,0,0,0-0.2,0.2c-0.2,0.3-0.2,0.3-0.2,0.3
				c-0.1,0.4-0.6,1-0.8,1c-0.2,0-0.2,0.8-0.2,1.1c0,0.3,0.1,0.7,0.3,0.9c0,0,0,0,0,0.2c0,0.5,0,0.5,0,0.5c-0.1,0.4,0.2,0.7,0.3,0.8
				c0.1,0.1,0.8-0.1,1.1-0.2c0.1,0,0.3-0.1,0.4-0.2c1.3-2.1,2.2-4.4,2.9-6.8C55.9,36.2,55.8,36.2,55.8,36.2z"/>
			<path fill="#84C88D" d="M8.7,37c0,0.1,0.5,0.6,0.7,0.8c0.2,0.2,0.6,1,0.7,1.3c0.1,0.3,0,0.7,0,0.8c0,0.1,0.1,0.3,0.1,0.4
				c0,0.1-0.2,0.9-0.1,1.3c0.1,0.3-0.4,1.4-0.4,1.9c0,0.5,0.2,1.2,0.3,1.2c0.1,0,0.1,0.5,0,0.5c-0.2,0.1-0.3,0.5-0.3,0.5
				c0.1,0,0,0.4,0,0.6c0,0.2,0.2,1.3,0.2,1.5c0,0.3,0.4,0.9,0.5,1.2c0.1,0.2,0.2,0.6,0.2,0.7c0,0.1,0.1,0.1,0.1,0.1
				c0,0,0.3,0.1,0.4,0.2c0.1,0.1,0.7,0,0.9,0c0.2,0,0-0.2-0.1-0.3c-0.1-0.1-0.2-0.6-0.3-0.6c-0.1,0-0.2-0.7-0.1-0.8
				c0.1-0.1,0.5-0.3,0.5-0.5c0-0.1,0-0.6,0-0.7c-0.1-0.1,0-0.7,0-1c-0.1-0.3,0.6-0.6,0.6-0.9c0-0.3,0.7-0.5,0.9-0.7
				c0.2-0.1,0.3-0.9,0.2-1c-0.1-0.2,0.3-0.3,0.4-0.3c0.1,0,0.3-0.1,0.4-0.1c0.1,0,0.2-0.3,0.3-0.4c0.1-0.1,0.3-0.8,0.5-1
				c0.2-0.1,0.3-0.6,0.3-0.7c0-0.1,0.3-0.5,0.3-0.7c0.1-0.1,0.7-0.4,0.8-0.5c0.1,0,0.3-1.1,0.3-1.4c0-0.4,0.2-0.9,0.2-1
				c0-0.1,0.2-0.2,0.3-0.3c0,0,0.2-0.5,0.3-0.6c0.1-0.1,0.4-0.6,0.5-0.7c0-0.1,0.1-0.4,0.1-0.6c0,0,0,0,0-0.2c0-0.4,0-0.4,0-0.4
				C18.4,34.4,18,34,18,34.1c-0.1,0.1-0.5-0.3-0.7-0.4c-0.2-0.1-0.7-0.1-0.8-0.1c-0.1,0-0.6-0.4-0.8-0.4c-0.2-0.1-0.7-0.2-0.8-0.2
				c-0.1-0.1-0.2-0.8-0.6-1.1c-0.4-0.2-1.1-0.8-1.2-1c-0.1-0.2-0.9-0.7-1.1-0.8c-0.2-0.1-0.6-0.2-0.7-0.1c0,0-0.3-0.4-0.5-0.5
				c-0.2-0.1-0.6-0.2-0.6-0.1c0,0.1-0.3,0.1-0.4,0c-0.1-0.1-0.3,0-0.4,0.1c-0.1,0-0.5,0.6-0.7,0.8c-0.2,0.1-0.4-0.1-0.5-0.2
				C8,29.9,7.6,30,7.5,30.1c-0.1,0.1-0.4-0.6-0.3-1c0.1-0.3-0.3-1-0.6-1c-0.3,0-0.4-0.7-0.3-1c0.1-0.3-0.5-0.4-0.6-0.4
				c-0.1,0-0.5,0.3-0.5,0.5c-0.1,0.2-1.3-0.2-1.2-1c0.1-0.8,0.7-1.5,0.9-1.6c0.2-0.1,1-0.1,1.1,0c0.2,0.1,0.3,0,0.4,0
				c0,0,0.7,0,0.9,0.1c0.2,0.1,0.5,0.8,0.7,0.9c0.2,0.1,0.3-0.5,0.3-0.6c0-0.1-0.1-0.5-0.1-0.6c-0.1-0.1,0.3-1,0.6-1.2
				C9,23,9.3,22.5,9.3,22.4c0-0.1,0.2-0.2,0.3-0.2c0.1,0,0-0.8,0.1-0.9c0.1-0.2,0.7-0.5,0.9-0.6c0.2-0.1,0.3-0.6,0.2-0.6
				c-0.1-0.1,0.5-0.5,0.8-0.6c0.3-0.1,0.5,0.2,0.5,0.2c0.1,0,0.4-0.2,0.6-0.3c0.2-0.1,0-0.5-0.1-0.6c-0.1-0.1,0-0.5,0.1-0.5
				c0.1,0,0.3-0.4,0.2-0.5c0-0.1,0.6,0.1,0.9-0.1c0.2-0.2,0.1,0.4-0.1,0.7c-0.2,0.3,0.1,0.5,0.3,0.4c0.1,0,0.2,0.1,0.3,0.2
				c0,0.1,0.3-0.1,0.4,0c0.2,0.1,0.3-0.2,0.3-0.4c0-0.1-0.4-0.4-0.5-0.6c-0.1-0.2-0.1-1.1-0.1-1.3c0-0.2-0.3-0.5-0.4-0.5
				c-0.1,0.1-0.3-0.5-0.4-0.6c-0.1-0.1-0.2-0.4-0.2-0.5c0-0.1-0.5-0.6-0.6-0.8c-0.1-0.2-0.3-0.2-0.3-0.1c0,0.1-0.3,0.1-0.5,0.1
				c-0.1,0-0.2-0.5-0.2-0.7c0-0.2-0.6-0.2-0.7-0.4C11,13,10.6,13,10.5,12.9c-0.1-0.1-0.4-0.2-0.5-0.2c-0.1,0,0,1.5-0.1,1.8
				c-0.1,0.4-0.4,0.7-0.5,0.7c-0.1,0,0,0.3,0,0.2c0.1,0-0.2,0.4-0.3,0.7c0,0.3-0.3,0-0.4-0.3c-0.1-0.3-0.3-0.6-0.4-0.5
				c-0.1,0.1-0.3-0.1-0.3-0.1C8,15.5,7.5,15.1,7.2,15c-0.2-0.1-0.3-0.8-0.5-0.9c-0.1-0.1,0-0.1,0-0.2c0-0.1,0.4-0.5,0.6-0.7
				c0.1-0.2,0.6-0.8,0.8-0.9c0.2-0.1,0.3-0.5,0.3-0.5c0-0.1,0.8-0.3,1-0.4c0.2-0.1,0.4-0.7,0.5-0.9c0-0.2-0.1-0.5-0.2-0.6
				c-0.1,0,0.3-0.1,0.5,0c0.1,0.1,0.6-0.1,0.7,0c0.2,0.1,0.5,0.3,0.8,0.4c0,0,0,0-0.1,0.5c-0.1,0.8-0.1,0.8-0.1,0.8
				c-0.7,0.3-0.8,0.7-0.6,0.7c0.2,0,1.3,0.5,1.6,0.7c0.3,0.2,0.4-0.3,0.5-0.5c0.1-0.2,0.1-0.7,0-0.8c-0.1-0.1,0.3-0.1,0.5,0
				c0.1,0.1,0.3-0.1,0.3-0.2c0.1,0,0.1-0.5,0.2-0.6c0-0.1-0.2-0.2-0.2-0.3c0-0.1-0.5-0.3-0.6-0.4c-0.2-0.1-0.2-0.4-0.1-0.5
				c0.1-0.1,0-0.5-0.1-0.6c-0.1-0.1-0.6-0.2-0.7-0.2c-0.2,0-0.3-0.4-0.4-0.4c-0.1-0.1-0.7-0.1-0.9-0.1c-0.2,0-0.4-0.4-0.7-0.3
				C9.7,8.4,9.5,8.1,9.4,8C9.2,8,8.6,8.6,8.6,9.1C8.6,9.6,8.9,10,9,10c0.1,0,0,0.4-0.1,0.6c-0.1,0.1-0.4-0.1-0.3-0.2
				c0.1-0.1-0.3-0.6-0.4-0.8C8.1,9.4,7.8,9.3,7.5,9.2C7.4,9.3,7.3,9.5,7.2,9.6c0,0.2,0.1,0.4,0,0.6c-0.1,0.3-0.3,0.3-0.3,0.2
				c0-0.1-0.1-0.1-0.3-0.1c-3.5,4.1-5.8,9.3-6.4,14.9c0.1,0.2,0.3,0.3,0.3,0.5c0.1,0.3,0.5,0.4,0.6,0.5c0.1,0,0.1-0.5,0-0.6
				c-0.1-0.1,0.1-0.2,0.1-0.1c0,0.1,0.4,0.6,0.5,0.7c0.1,0.2,0.3,1.3,0.4,1.5c0.1,0.2,1.4,0.7,1.8,0.8c0.4,0.1,0.9,0.5,1,0.7
				c0.1,0.1,0.6,0.2,0.7,0.2c0.1,0.1,0.4,0.4,0.5,0.5c0.1,0.1,0.2,0.3,0.2,0.4c0,0.1,0.7,0.3,0.9,0.5c0.2,0.2,0.5,0.1,0.5,0.1
				c0.1-0.1,0.2,0.4,0.3,0.5c0.1,0.2,0.1,0.5,0,0.6c-0.1,0.1-0.2,0.8-0.3,0.9c-0.1,0.1-0.4,1.2-0.3,1.4c0.1,0.2,0.4,0.6,0.5,0.7
				c0.1,0.1,0.1,0.3,0,0.3c-0.1,0-0.1,1,0.2,1.2C8.5,36.5,8.7,36.9,8.7,37z"/>
			<path fill="#84C88D" d="M12.1,19.6L12.1,19.6C12.1,19.6,12,19.6,12.1,19.6z"/>
			<path fill="#84C88D" d="M10.1,7.6c0.3-0.1,0.9-0.2,0.9-0.2c0-0.1,0-0.3,0-0.4c0.1,0,0.1,0,0.2,0c0.1,0,0.3-0.7,0.5-0.9
				c0.1-0.2,0.9-0.4,1.1-0.5C13,5.4,13.4,5.1,13.5,5c0.2,0,0.4-0.4,0.4-0.5c0-0.1,0.5-0.4,0.7-0.5c0.2-0.1,0.3-0.3,0.2-0.3
				c0,0-1.2,0.6-2.3,1.2C11.3,5.8,10.1,6.7,9,7.7C9.4,7.7,9.9,7.6,10.1,7.6z"/>
			<path fill="#84C88D" d="M30.7,43.1c0.4-0.2,1-1.1,1.2-1.3c0.2-0.2,0.4-0.9,0.4-1c0-0.2,0.3-0.4,0.5-0.4c0.1,0,0.5-1.6,0.8-1.9
				c0.3-0.3,0.7-2,0.7-2.5c0-0.6,0.2-1.7,0.3-2c0.1-0.3,0.5-0.7,0.6-0.8c0.1-0.1,0.9-1.3,1.2-1.7c0.2-0.4,0.5-1.3,0.4-1.5
				c0-0.2-0.6-0.4-0.7-0.3c-0.1,0.1-0.6,0.2-0.8,0.2c-0.2,0-0.5-0.9-0.8-1.1c-0.2-0.2-0.4-1.2-0.6-1.4c-0.1-0.2-0.5-0.7-0.6-0.8
				c-0.1-0.1-0.1-0.6-0.2-0.8c0-0.1,0.2,0.1,0.3,0.3c0,0.2,0.6,1.1,0.8,1.4c0.2,0.3,0.7,1.2,0.8,1.5c0.1,0.3,1.2,0.1,1.6,0
				c0.4-0.2,0.8-0.5,0.8-0.6c0-0.1,0.6-0.4,0.7-0.5c0.2-0.1,0.3-0.8,0.4-0.9c0.1-0.1-0.1-0.7-0.2-0.9c-0.1-0.2-0.7-0.3-0.8-0.3
				c-0.1,0.1-0.4-0.4-0.5-0.6c-0.1-0.2-0.5-0.4-0.6-0.5c0-0.1,0.1-0.3,0.2-0.4c0.1,0,0.9,0.5,1.1,0.8c0.2,0.3,0.5,0.8,0.5,0.9
				c0,0.1,0.7,0.1,0.8,0c0.1-0.1,0.3-0.1,0.4,0.1c0,0,0,0,0.2,0c0.7-0.1,0.7-0.1,0.7-0.1c0.3,0.4,0.4,0.7,0.4,0.7
				c0,0.1,0.2,0.4,0.3,0.4c0.1,0,0.2,0.5,0.3,0.6c0,0.1,0.4,0.8,0.5,1.1c0.1,0.3,0.4,0.8,0.5,1c0.1,0.2,0.1,0.6,0.1,0.7
				c0,0.1,0.3,0.4,0.4,0.3c0.2,0,0.5-1,0.5-1.4c0.1-0.4,0.3-0.7,0.4-0.7s0.1-0.2,0.1-0.3c0-0.1,0.4-0.1,0.4-0.2
				c0-0.1,0.2-0.8,0.3-0.9c0.1-0.1,0.7-0.4,0.8-0.5c0.2-0.1,0.6,0.3,0.7,0.5c0.1,0.2,0.2,0.7,0.2,0.7c0,0.1,0.2,0.5,0.5,0.5
				c0.2,0,0.3,0.3,0.3,0.4c0,0.1,0.3,0.4,0.4,0.6c0.1,0.1,0,0.5,0,0.6c0,0.1,0,0.6,0,0.8c0,0.1,0.8,0.9,1.1,1.1
				c0.3,0.2,0.4-0.5,0.3-0.7c-0.1-0.2-0.6-0.7-0.7-0.9c-0.1-0.2-0.1-0.8-0.1-0.9c0-0.2,0.4,0.1,0.6,0.2c0.2,0.1,0.4,0.4,0.4,0.5
				c0,0.1,1-0.5,1-1.1c0-0.6,0.4-1.3,0.4-1.5c0-0.2-0.1-0.4-0.2-0.4c-0.1,0,0.1-0.5,0.4-0.5c0.3,0,1-0.7,1.1-1
				c0.2-0.3,0.5-0.5,0.5-0.6c0,0,0.3-0.7,0.3-1c0-0.3-0.2-0.7-0.2-0.9c0-0.2-0.3-0.5-0.3-0.6c-0.1-0.1-0.1-0.5-0.1-0.6
				c0-0.1,0.3-0.2,0.3-0.2c0-0.1,0.3-0.4,0.3-0.5c0-0.1,0.2,0.2,0.3,0.3c0.1,0.1,0.3,0.8,0.4,0.9c0.2,0.1,0.8-0.8,0.7-1.3
				c-0.1-0.5,0.2-1.2,0.4-1.3c0.1,0,0.4-0.5,0.6-0.8c-1.5-4.2-3.9-8-7-11.1c0,0-0.1,0-0.1,0C48,8.1,48,8.1,48,8.1
				c-0.4-0.1-0.6-0.5-0.6-0.6c0,0,0-0.1,0-0.2c-0.2-0.2-0.5-0.4-0.7-0.6c-0.2,0-0.4,0-0.5,0c-0.2,0-0.8-0.2-0.9-0.3
				C45.3,6.3,45,6.5,45,6.6c0,0.2-0.6,0.3-0.6,0.4c-0.1,0.1-0.3,0.1-0.4,0.1c-0.1-0.1-0.6,0.2-0.8,0.2c-0.3,0-0.7,0.2-0.9,0.3
				c-0.1,0-0.4,0.3-0.4,0.4c0,0.1-0.4,0.3-0.5,0.3c-0.1,0-0.1,0.5,0.1,0.6C41.5,9,41.1,8.9,41,8.8c-0.2-0.1-0.4,0.2-0.4,0.3
				c-0.1,0.1-0.2-0.1-0.2-0.2c0-0.1-0.4-0.3-0.5-0.1c-0.1,0.1-0.4,0-0.5-0.1c-0.1-0.1-0.7,0.5-0.9,0.7c-0.2,0.2-1.1,0.4-1.3,0.3
				c-0.2-0.1-0.4,0.4-0.2,0.5c0.2,0-0.4,0-0.7,0c-0.3,0-1.2,0.4-1.4,0.5c-0.2,0.2-0.4,0-0.4-0.2c0-0.1-0.3-0.2-0.4-0.3
				c-0.1,0-0.3,0.6-0.5,0.8c-0.2,0.1-0.4-0.5-0.8-0.6c-0.4-0.1-1-0.5-1.2-0.5c-0.2,0-0.5-0.4-0.6-0.5c-0.1-0.1-0.6-0.2-0.8-0.2
				c-0.2,0-0.7,0.3-0.8,0.4c-0.1,0.1-0.4,0.1-0.4,0.1c-0.1,0-0.7,0.6-0.9,0.8c-0.2,0.2-0.6,1-0.8,1.2c-0.1,0.2-0.3,0.2-0.4,0.2
				c-0.1,0-0.1,0.2-0.1,0.3c0,0.1-0.7,0.4-0.8,0.7c-0.1,0.3,0.1,1,0.1,1.3s0.3,0.8,0.4,0.8c0.2,0,0.1,0.4,0,0.5
				c-0.1,0.1,0.1,0.2,0.1,0.4c0,0.1-0.5,0.2-0.6,0.3c-0.2,0.1-0.4,0.4-0.4,0.5c0,0.1-0.5,0.2-0.6,0.3c0-0.1,0.1-0.3,0.1-0.3
				c0.1-0.2,0-0.5-0.1-0.5c-0.1-0.1-0.1-0.9-0.2-1.1c-0.1-0.2-0.4-0.5-0.5-0.5c-0.1-0.1,0.1-0.3,0.1-0.4c0-0.1-0.4-0.1-0.5-0.1
				c-0.1,0.1-0.2,0.9-0.2,1.1c0,0.2,0.2,0.6,0.3,0.6c0.1,0,0,0.4-0.1,0.4c-0.2,0-0.3,0.6-0.2,0.7c0.1,0.1-0.1,0.4-0.2,0.5
				c-0.1,0.1,0.6,0,0.9,0c0.3,0,0.5,0.1,0.5,0.2c0,0-0.6,0.1-0.7,0.2c-0.1,0.1-0.5,0.4-0.5,0.5c-0.1,0.1,0.1,0.3,0.3,0.3
				c0.2,0,0.3,0.5,0.5,0.7c0.1,0.1,0.1,0.4,0,0.5c0,0.1-0.8-0.1-1.1,0c-0.3,0.1-0.6,0.7-0.7,0.9c0,0.2,0,0.9,0.1,1.1
				c0,0.2,0.6,0.3,0.7,0.4c0.1,0.1,0.7,0,0.8,0.1c0.1,0.1,0.5-0.6,0.6-0.9c0.1-0.3,0.7-0.8,0.8-1c0.1-0.2,0.8-0.2,0.9-0.3
				c0.2-0.1,0.1,0.5,0.1,0.8c0.1,0.3,0.7,0.3,0.6,0c-0.1-0.3,0.1-0.4,0.1-0.3c0,0.1,0.6,0.4,0.7,0.5c0.1,0.2,0.1,0.5-0.1,0.5
				c-0.1,0-0.1,0.4,0,0.4c0.1,0,0.3-0.5,0.5-0.5c0.2-0.1,0.3-0.4,0.2-0.4c-0.1,0,0.1-0.3,0.2-0.2c0.1,0.1-0.3-0.6-0.6-0.9
				c-0.3-0.3-0.1-0.1,0.4,0.3c0,0,0,0,0.3,0.5c0.1,0.1,0.2,0.3,0.2,0.4c0.1,0.1,0.1,0.1,0.1,0.1c0.1,0.2,0.1,0.6,0.1,0.7
				c0,0.1,0.3,0.4,0.4,0.3c0.2,0,0.3,0.1,0.2,0.1c0,0,0.1,0.3,0.3,0.3c0.2,0,0.2-0.4,0.1-0.4c-0.2,0-0.1-0.6-0.2-0.8
				c0-0.3,0.1-0.5,0.2-0.5c0.1,0,0,0.5,0,0.6c0,0.1,0.1,0.4,0.1,0.5c0,0,0,0,0.2,0.1c0.4,0.3,0.4,0.3,0.4,0.3c0.5-0.2,1.2,0,1.2,0.1
				c0,0.1,0.4,0.1,0.4,0c0-0.2,0,0,0,0.1c0,0.1-0.3,0.6-0.4,0.8c-0.1,0.2-1.2,0.1-1.8,0c-0.5,0-1.3,0.1-1.3,0.3
				c-0.1,0.1-0.9-0.4-1.2-0.5c-0.4-0.2-0.6-0.7-0.7-0.8c-0.1-0.1,0.1-0.3,0-0.4c0-0.1-0.9-0.1-1.1,0c-0.2,0.1-1.5,0.2-1.8,0.4
				c-0.3,0.1-0.7,0-0.9,0c-0.1,0-0.5,0.4-0.6,0.5c-0.2,0.1-0.4,0.7-0.5,1.3c0,0,0,0-0.2,0.4c-0.1,0.3-0.1,0.3-0.1,0.3
				c-0.4,0.3-0.9,1.4-1,1.6c-0.1,0.2-0.2,1.7-0.2,2.2s0.4,1.6,0.6,1.9c0.1,0.3,0.9,1,1.2,1.1c0.3,0.2,1.1,0.2,1.4,0.2
				c0.3,0,0.6-0.3,0.7-0.6c0,0,0,0,0.4,0c0.2,0,0.2,0,0.2,0c0,0.2,0.6,0.4,0.7,0.5c0.1,0.1,0.5,0,0.7,0c0.1,0,0.2,1,0.2,1.3
				c-0.1,0.3,0.2,1.4,0.3,1.7c0.1,0.3,0.4,1.2,0.5,1.5c0,0.3-0.2,1.4-0.3,1.7c0,0.4,0.5,1.4,0.6,1.7c0.1,0.4,0.2,1.1,0.2,1.3
				c0,0.2,0.5,1.2,0.7,1.7C29,43.2,30.4,43.3,30.7,43.1z"/>
			<path fill="#84C88D" d="M54.2,30.1c0,0.1,0.4-0.2,0.6-0.2c0.2,0,0.3-0.6,0.2-0.6c-0.2,0-0.4-0.5-0.5-0.5c-0.1,0-0.3,0.2-0.3,0.4
				c0,0.2-0.4,0.2-0.4,0.4c-0.1,0.1-0.1,0.2,0,0.2C53.8,29.7,54.2,30,54.2,30.1z"/>
			<path fill="#84C88D" d="M53.8,33.1c0.1,0,0-0.6-0.2-0.6c-0.2,0-0.8,0.7-0.7,1.2c0.1,0.4,0.2,0.4,0.3,0.3c0.1-0.1,0.4,0.1,0.5,0.1
				c0.1,0,0.1-0.1,0-0.2C53.6,33.7,53.7,33.2,53.8,33.1z"/>
			<path fill="#84C88D" d="M52.6,32.6c0-0.2,0.1-0.8,0.1-0.9c0-0.1-0.3-0.5-0.5-0.5c-0.2-0.1-0.8,1.2-1.2,1.4
				c-0.4,0.2-0.6,1-0.5,1.2c0.1,0.2,1,0.3,1.1,0.4c0.2,0.1,0.3,0,0.4,0c0.1,0,0.1-0.1,0-0.1c0,0,0.3-0.4,0.3-0.6
				C52.5,33.1,52.6,32.8,52.6,32.6z"/>
			<path fill="#84C88D" d="M50.3,34.7c-0.3-0.1-0.7,0.1-0.7,0.2c0,0.1,1.2,0.3,1.7,0.4c0.4,0.1,0.7,0.2,0.6,0.1
				C51.7,35.3,50.6,34.8,50.3,34.7z"/>
			<path fill="#84C88D" d="M52.9,26.4c0.1-0.1-0.1-0.8-0.3-0.7c-0.1,0.2,0,0.5,0,0.7C52.6,26.5,52.8,26.5,52.9,26.4z"/>
			<path fill="#84C88D" d="M53.6,27.8c0.1-0.2-0.1-0.4-0.4-0.4c-0.3-0.1-0.2,0.8-0.1,0.9C53.3,28.4,53.6,28,53.6,27.8z"/>
			<path fill="#84C88D" d="M55.1,32.9c0.3,0.2,1.1,0.1,1.1-0.3C55.8,32.4,55,32.4,55.1,32.9z"/>
			<path fill="#84C88D" d="M54.9,22.8c-0.1,0.1-0.2,0.3-0.2,0.4c0,0,0,0,0,0c-0.1,0-0.1,0.4,0,0.5c0.1,0.1,0.4-0.3,0.5-0.4
				c0.1-0.1,0.4-0.2,0.5-0.1c0,0,0.3,0,0.6-0.2c0,0,0.1-0.1,0.2-0.2c-0.1-0.3-0.1-0.6-0.2-0.9c-0.1,0.1-0.3,0.2-0.4,0.3
				C55.7,22.3,55.1,22.6,54.9,22.8z"/>
			<path fill="#84C88D" d="M47.4,31.5L47.4,31.5C47.3,31.5,47.3,31.5,47.4,31.5z"/>
			<path fill="#84C88D" d="M49.4,33.4c-0.1-0.3-0.5-0.7-0.9-1c0,0,0,0-0.1-0.2c-0.2-0.2-0.2-0.2-0.2-0.2c-0.1-0.3-0.5-0.5-0.6-0.6
				c0-0.1-0.2,0.2-0.3,0.1c0.1,0.1,0.2,0.2,0.4,0.3c0.4,0.3,1.1,2.1,1.3,2.3C49.3,34.2,49.5,33.7,49.4,33.4z"/>
			<path fill="#84C88D" d="M43.5,30.4c-0.1,0.2,0.5,0.7,0.6,0.5c0.1-0.1-0.1-0.6-0.2-0.7C43.8,30.1,43.6,30.2,43.5,30.4z"/>
			<path fill="#84C88D" d="M34.9,40.3c0,0.2,0.5,0.4,0.6,0.4c0.1,0,0.5-0.7,0.5-0.9c0-0.2,0.1-0.6,0.1-0.7c0-0.1,0.1-0.3,0.1-0.3
				c0,0,0.1-0.3,0.2-0.5c0.1-0.3-0.3-1.4-0.3-1.6c0-0.2-0.2,0.1-0.3,0.3c-0.1,0.2-0.6,0.6-0.8,0.8c-0.1,0.2-0.3,0.8-0.2,0.9
				c0,0.1-0.1,0.5-0.1,0.6C34.7,39.4,34.9,40.1,34.9,40.3z"/>
			<path fill="#84C88D" d="M13.9,48.4c0.1,0,0.3,0,0.4,0C14.4,48,13.9,48.1,13.9,48.4z"/>
			<path fill="#84C88D" d="M24.4,4.4c-0.2,0-0.6-0.1-0.7-0.1c-0.1-0.1-0.7-0.1-0.9-0.1c-0.2,0.1-0.1-0.4,0.2-0.5
				c0.3-0.1,0-0.4-0.2-0.4c-0.3,0-0.9-0.1-1.1-0.1c-0.2,0-0.5-0.1-0.6-0.1c-0.1,0-0.9,0.2-1.3,0.2c-0.4,0-1.3,0-1.5,0.1
				c-0.2,0.1-0.4,0.4-0.3,0.6c0,0.1-0.9,0.1-1.2,0.1c-0.3,0-1.9,0.3-2.3,0.6c-0.4,0.2-0.7,0.8-0.6,0.8c0.1,0-0.2,0.3-0.4,0.4
				c-0.2,0.1-0.7,0.1-0.9,0.2c-0.1,0.1,0.1,0.2,0.2,0.3c0.1,0.1,0.2-0.1,0.3,0c0.1,0.1,0.6,0.1,0.7,0.2c0.1,0.1-0.4,0.1-0.6,0.2
				c-0.2,0-0.2,0.5,0,0.6c0.2,0.1,0.7,0.1,0.8,0.1c0-0.1,0.6,0.1,0.8,0.1c0.2,0,0.4,0.6,0.5,0.8c0.1,0.1,0.1,0.6,0.1,0.7
				c0,0.1,0.4,0.4,0.5,0.3c0.1-0.1,0.1,0.2-0.1,0.2c-0.2,0-0.1,0.5,0.2,0.6c0.2,0.1,0.1,0.4-0.1,0.5c-0.1,0.1-0.1,0.4-0.2,0.5
				c-0.1,0.1,0.5,1.2,0.5,1.7c0,0.5,0.3,1,0.5,1c0.1,0,0.6,0.1,0.6,0.2c0.1,0.1,0.3-0.1,0.3-0.2c0.1-0.1,0.3-0.3,0.4-0.6
				c0.1-0.2,0.4-1.3,0.5-1.4c0-0.1,0.5,0,0.7-0.1c0.1-0.1,0.4-0.3,0.5-0.4c0.1-0.1,0.8-0.4,1-0.5c0.2-0.1,0.5-0.7,0.7-0.9
				c0.2-0.1-0.1-0.1-0.3-0.2c-0.2-0.1-0.1-0.3-0.1-0.3c0.1-0.1,0.6,0.1,0.8,0.2c0.2,0.1,0.6-0.2,0.4-0.3c-0.1-0.1-0.1-0.1,0-0.1
				c0.1,0,0.1-0.4,0.1-0.4c-0.1-0.1,0.6-0.6,0.5-1c-0.1-0.5,0.2-0.9,0.4-0.9c0.2,0,0.1-0.5-0.1-0.6c-0.2,0,0-0.1,0.1-0.2
				c0.1-0.1,0.2-0.5,0.1-0.6c0-0.1,0.3-0.2,0.4-0.3c0.1-0.1,0.5-0.3,0.6-0.3C24.4,4.7,24.5,4.3,24.4,4.4z"/>
			<path fill="#84C88D" d="M28.1,4.7c-0.2-0.1-0.6,0.2-0.6,0.3c0.1,0.1-0.3-0.2-0.6,0c-0.3,0.1-0.3,0.6-0.2,0.7
				c0.1,0.1,0.2,0.4,0.2,0.5c0,0.1,0.5,0,0.7-0.1c0.1-0.1,0.1,0.4,0,0.5c-0.1,0.1,0,0.4,0.2,0.4c0.1,0,0.3,0.4,0.5,0.4
				c0.2,0,0.4-0.6,0.5-0.8c0.1-0.2,0.6,0,0.8,0c0.2,0.1,0.3-0.8,0.1-0.9c-0.2-0.1-0.6-0.1-0.7-0.2c-0.1-0.1-0.3-0.2-0.4-0.2
				C28.4,5.3,28.3,4.8,28.1,4.7z"/>
			<path fill="#84C88D" d="M30.1,5.1c0.4,0.1,0.9-0.3,0.9-0.4c0.1-0.1-1.1-0.3-1.6-0.4c-0.5,0-0.8,0-0.8,0.1
				C28.6,4.7,29.7,5.1,30.1,5.1z"/>
			<path fill="#84C88D" d="M22.7,16c-0.1,0-0.2,0.4-0.1,0.5c0,0.2,0.4,0.1,0.6,0.1c0.2,0,0.3-0.2,0.3-0.3c0-0.1-0.2-0.7-0.3-0.7
				C23,15.6,22.8,16.1,22.7,16z"/>
			<path fill="#84C88D" d="M23.9,11.4c-0.1-0.1-0.7-0.1-0.9-0.1c-0.2,0-0.6-0.2-0.7-0.3c-0.1-0.1-0.2,0.4-0.3,0.5
				c-0.1,0.1,0.1,0.2,0.1,0.1c0.1-0.1,0,0.2-0.1,0.4c-0.1,0.1,0.4,0.2,0.5,0.3c0.1,0.2,0.3,0.3,0.4,0.2c0.2,0,0.6-0.2,0.7-0.2
				C23.9,12.2,24,11.5,23.9,11.4z"/>
			<path fill="#84C88D" d="M37.2,7.8c0.2-0.2,1.1-0.5,1.2-0.7c0.1-0.2-0.1-0.4-0.2-0.4c-0.1,0-0.2,0.1-0.2,0.2c0,0-1,0.3-1.4,0.4
				c-0.3,0.1-0.7,0.4-0.8,0.5c-0.1,0.1-0.4,1.1-0.4,1.3c-0.1,0.1,0.3,0.5,0.5,0.6c0.2,0.1,0.4,0.1,0.5,0c0.1,0-0.1-0.7-0.2-1
				C36.1,8.4,36.9,8,37.2,7.8z"/>
			<path fill="#84C88D" d="M36.1,5.1C36.4,5.5,36.6,5,37,5C36.9,4.4,36,4.6,36.1,5.1z"/>
			<path fill="#84C88D" d="M42.6,5.3c0,0.1,0.9,0.2,1.2,0.2c0.3,0-0.1-0.5-0.5-0.4C43,5,42.6,5.1,42.6,5.3z"/>
			<path fill="#84C88D" d="M8.5,12.2c-0.1,0.1,0,0.6,0.2,0.6c0.2,0,0.5-0.7,0.7-0.6c0.2,0.1,0.4,0.2,0.3,0.1C9.7,12.3,9.1,12,9,12
				C8.9,11.9,8.6,12.2,8.5,12.2z"/>
			<path fill="#84C88D" d="M10.9,27.9c0,0.1,0.4,0.1,0.5-0.1c0.1-0.1,0-0.2-0.1-0.2C11.2,27.6,10.9,27.8,10.9,27.9z"/>
			<path fill="#84C88D" d="M9.1,27.2c0.2,0,0.1,0.3,0.2,0.4c0,0.1,0.5,0.2,0.6,0.3c0.1,0.1,0.3-0.1,0.5-0.1c0.2,0-0.1-0.7-0.4-0.6
				c-0.3,0-0.6-0.3-0.6-0.3c-0.1,0-0.4-0.3-0.5-0.3c-0.1-0.1-0.9-0.2-1.2-0.2S7.1,26.6,7,26.7c0,0.1,0.4,0.2,0.6,0.1
				c0.1-0.1,0.8,0.1,0.9,0.2C8.6,27.2,8.9,27.2,9.1,27.2z"/>
			<path fill="#84C88D" d="M8.2,27.9c0,0.1,0.4,0,0.5,0c0.1,0,0.1-0.1,0-0.1C8.6,27.7,8.2,27.8,8.2,27.9z"/>
			<path fill="#84C88D" d="M8.5,25.7c-0.1,0-0.2,0.1-0.2,0.2c0,0.1,0.1,0.1,0.1,0.1C8.5,26.1,8.6,25.8,8.5,25.7z"/>
			<path fill="#84C88D" d="M9.4,25.8c0-0.1-0.2-0.1-0.3-0.1c-0.1,0-0.1,0.1-0.1,0.3C9.1,26.1,9.4,25.9,9.4,25.8z"/>
			<path fill="#84C88D" d="M10,26.8c0.2-0.1,0.2-0.3,0.1-0.3c-0.1,0-0.3-0.3-0.4-0.3c-0.1,0-0.2,0.2-0.2,0.3c0,0.1,0.1,0.2,0.1,0.1
				C9.7,26.6,9.9,26.9,10,26.8z"/>
			<path fill="#84C88D" d="M56.3,33.3c-0.1,0-0.5,0.1-0.6,0c-0.1-0.1-0.1,0.2-0.2,0.2c-0.1,0,0,0.3,0.1,0.2c0.1,0,0.5,0.2,0.8,0.4
				c0.1-0.3,0.1-0.6,0.2-1C56.5,33.2,56.4,33.3,56.3,33.3z"/>
		</g>
		<g>
			<path fill="#AED5A5" d="M8.7,37c0,0.1,0.5,0.6,0.7,0.8c0.2,0.2,0.6,1,0.7,1.3c0.1,0.3,0,0.7,0,0.8c0,0.1,0.1,0.3,0.1,0.4
				c0,0.1-0.2,0.9-0.1,1.3c0.1,0.3-0.4,1.4-0.4,1.9c0,0.5,0.2,1.2,0.3,1.2c0.1,0,0.1,0.5,0,0.5c-0.2,0.1-0.3,0.5-0.3,0.5
				c0.1,0,0,0.4,0,0.6c0,0.2,0.2,1.3,0.2,1.5c0,0.3,0.4,0.9,0.5,1.2c0.1,0.2,0.2,0.6,0.2,0.7c0,0.1,0.1,0.1,0.1,0.1
				c0,0,0.3,0.1,0.4,0.2c0.1,0.1,0.7,0,0.9,0c0.2,0,0-0.2-0.1-0.3c-0.1-0.1-0.2-0.6-0.3-0.6c-0.1,0-0.2-0.7-0.1-0.8
				c0.1-0.1,0.5-0.3,0.5-0.5c0-0.1,0-0.6,0-0.7c-0.1-0.1,0-0.7,0-1c-0.1-0.3,0.6-0.6,0.6-0.9c0-0.3,0.7-0.5,0.9-0.7
				c0.2-0.1,0.3-0.9,0.2-1c-0.1-0.2,0.3-0.3,0.4-0.3c0.1,0,0.3-0.1,0.4-0.1c0.1,0,0.2-0.3,0.3-0.4c0.1-0.1,0.3-0.8,0.5-1
				c0.2-0.1,0.3-0.6,0.3-0.7c0-0.1,0.3-0.5,0.3-0.7c0.1-0.1,0.7-0.4,0.8-0.5c0.1,0,0.3-1.1,0.3-1.4c0-0.4,0.2-0.9,0.2-1
				c0-0.1,0.2-0.2,0.3-0.3c0,0,0.2-0.5,0.3-0.6c0.1-0.1,0.4-0.6,0.5-0.7c0-0.1,0.1-0.4,0.1-0.6c0,0,0,0,0-0.2c0-0.4,0-0.4,0-0.4
				C18.4,34.4,18,34,18,34.1c-0.1,0.1-0.5-0.3-0.7-0.4c-0.2-0.1-0.7-0.1-0.8-0.1c-0.1,0-0.6-0.4-0.8-0.4c-0.2-0.1-0.7-0.2-0.8-0.2
				c-0.1-0.1-0.2-0.8-0.6-1.1c-0.4-0.2-1.1-0.8-1.2-1c-0.1-0.2-0.9-0.7-1.1-0.8c-0.2-0.1-0.6-0.2-0.7-0.1c0,0-0.3-0.4-0.5-0.5
				c-0.2-0.1-0.6-0.2-0.6-0.1c0,0.1-0.3,0.1-0.4,0c-0.1-0.1-0.3,0-0.4,0.1c-0.1,0-0.5,0.6-0.7,0.8c-0.2,0.1-0.4-0.1-0.5-0.2
				C8,29.9,7.6,30,7.5,30.1c-0.1,0.1-0.4-0.6-0.3-1c0.1-0.3-0.3-1-0.6-1c-0.3,0-0.4-0.7-0.3-1c0.1-0.3-0.5-0.4-0.6-0.4
				c-0.1,0-0.5,0.3-0.5,0.5c-0.1,0.2-1.3-0.2-1.2-1c0.1-0.8,0.7-1.5,0.9-1.6c0.2-0.1,1-0.1,1.1,0c0.2,0.1,0.3,0,0.4,0
				c0,0,0.7,0,0.9,0.1c0.2,0.1,0.5,0.8,0.7,0.9c0.2,0.1,0.3-0.5,0.3-0.6c0-0.1-0.1-0.5-0.1-0.6c-0.1-0.1,0.3-1,0.6-1.2
				C9,23,9.3,22.5,9.3,22.4c0-0.1,0.2-0.2,0.3-0.2c0.1,0,0-0.8,0.1-0.9c0.1-0.2,0.7-0.5,0.9-0.6c0.2-0.1,0.3-0.6,0.2-0.6
				c-0.1-0.1,0.5-0.5,0.8-0.6c0.3-0.1,0.5,0.2,0.5,0.2c0.1,0,0.4-0.2,0.6-0.3c0.2-0.1,0-0.5-0.1-0.6c-0.1-0.1,0-0.5,0.1-0.5
				c0.1,0,0.3-0.4,0.2-0.5c0-0.1,0.6,0.1,0.9-0.1c0.2-0.2,0.1,0.4-0.1,0.7c-0.2,0.3,0.1,0.5,0.3,0.4c0.1,0,0.2,0.1,0.3,0.2
				c0,0.1,0.3-0.1,0.4,0c0.2,0.1,0.3-0.2,0.3-0.4c0-0.1-0.4-0.4-0.5-0.6c-0.1-0.2-0.1-1.1-0.1-1.3c0-0.2-0.3-0.5-0.4-0.5
				c-0.1,0.1-0.3-0.5-0.4-0.6c-0.1-0.1-0.2-0.4-0.2-0.5c0-0.1-0.5-0.6-0.6-0.8c-0.1-0.2-0.3-0.2-0.3-0.1c0,0.1-0.3,0.1-0.5,0.1
				c-0.1,0-0.2-0.5-0.2-0.7c0-0.2-0.6-0.2-0.7-0.4C11,13,10.6,13,10.5,12.9c-0.1-0.1-0.4-0.2-0.5-0.2c-0.1,0,0,1.5-0.1,1.8
				c-0.1,0.4-0.4,0.7-0.5,0.7c-0.1,0,0,0.3,0,0.2c0.1,0-0.2,0.4-0.3,0.7c0,0.3-0.3,0-0.4-0.3c-0.1-0.3-0.3-0.6-0.4-0.5
				c-0.1,0.1-0.3-0.1-0.3-0.1C8,15.5,7.5,15.1,7.2,15c-0.2-0.1-0.3-0.8-0.5-0.9c-0.1-0.1,0-0.1,0-0.2c0-0.1,0.4-0.5,0.6-0.7
				c0.1-0.2,0.6-0.8,0.8-0.9c0.2-0.1,0.3-0.5,0.3-0.5c0-0.1,0.8-0.3,1-0.4c0.2-0.1,0.4-0.7,0.5-0.9c0-0.2-0.1-0.5-0.2-0.6
				c-0.1,0,0.3-0.1,0.5,0c0.1,0.1,0.6-0.1,0.7,0c0.2,0.1,0.5,0.3,0.8,0.4c0,0,0,0-0.1,0.5c-0.1,0.8-0.1,0.8-0.1,0.8
				c-0.7,0.3-0.8,0.7-0.6,0.7c0.2,0,1.3,0.5,1.6,0.7c0.3,0.2,0.4-0.3,0.5-0.5c0.1-0.2,0.1-0.7,0-0.8c-0.1-0.1,0.3-0.1,0.5,0
				c0.1,0.1,0.3-0.1,0.3-0.2c0.1,0,0.1-0.5,0.2-0.6c0-0.1-0.2-0.2-0.2-0.3c0-0.1-0.5-0.3-0.6-0.4c-0.2-0.1-0.2-0.4-0.1-0.5
				c0.1-0.1,0-0.5-0.1-0.6c-0.1-0.1-0.6-0.2-0.7-0.2c-0.2,0-0.3-0.4-0.4-0.4c-0.1-0.1-0.7-0.1-0.9-0.1c-0.2,0-0.4-0.4-0.7-0.3
				C9.7,8.4,9.5,8.1,9.4,8C9.2,8,8.6,8.6,8.6,9.1C8.6,9.6,8.9,10,9,10c0.1,0,0,0.4-0.1,0.6c-0.1,0.1-0.4-0.1-0.3-0.2
				c0.1-0.1-0.3-0.6-0.4-0.8C8.1,9.4,7.8,9.3,7.5,9.2C7.4,9.3,7.3,9.5,7.2,9.6c0,0.2,0.1,0.4,0,0.6c-0.1,0.3-0.3,0.3-0.3,0.2
				c0-0.1-0.1-0.1-0.3-0.1c-0.1,0.2-0.3,0.3-0.4,0.5c-0.1,0.2-0.2,0.3-0.4,0.5c-0.1,0.2-0.3,0.3-0.4,0.5c-0.1,0.2-0.2,0.3-0.3,0.5
				c-0.2,0.2-0.3,0.5-0.5,0.7c-0.1,0.2-0.3,0.5-0.4,0.7C4.1,13.8,4,14,3.9,14.2c-0.1,0.1-0.2,0.3-0.2,0.4c-0.1,0.2-0.2,0.4-0.3,0.6
				c-0.1,0.1-0.1,0.2-0.2,0.4c-0.3,0.5-0.5,1-0.7,1.5c0,0,0,0,0,0c-0.1,0.3-0.2,0.5-0.3,0.8C2,18,2,18.1,1.9,18.2
				c-0.1,0.3-0.2,0.5-0.3,0.8c0,0,0,0.1,0,0.1C1.3,20.1,1,21,0.8,22c0,0.1,0,0.1,0,0.2c-0.2,1-0.4,2-0.5,3l0,0
				c0.1,0.2,0.3,0.3,0.3,0.5c0.1,0.3,0.5,0.4,0.6,0.5c0.1,0,0.1-0.5,0-0.6c-0.1-0.1,0.1-0.2,0.1-0.1c0,0.1,0.4,0.6,0.5,0.7
				c0.1,0.2,0.3,1.3,0.4,1.5c0.1,0.2,1.4,0.7,1.8,0.8c0.4,0.1,0.9,0.5,1,0.7c0.1,0.1,0.6,0.2,0.7,0.2c0.1,0.1,0.4,0.4,0.5,0.5
				c0.1,0.1,0.2,0.3,0.2,0.4c0,0.1,0.7,0.3,0.9,0.5c0.2,0.2,0.5,0.1,0.5,0.1c0.1-0.1,0.2,0.4,0.3,0.5c0.1,0.2,0.1,0.5,0,0.6
				c-0.1,0.1-0.2,0.8-0.3,0.9c-0.1,0.1-0.4,1.2-0.3,1.4c0.1,0.2,0.4,0.6,0.5,0.7c0.1,0.1,0.1,0.3,0,0.3c-0.1,0-0.1,1,0.2,1.2
				C8.5,36.5,8.7,36.9,8.7,37z"/>
			<path fill="#AED5A5" d="M12.1,19.6L12.1,19.6L12.1,19.6z"/>
			<path fill="#AED5A5" d="M10.1,7.6c0.3-0.1,0.9-0.2,0.9-0.2c0-0.1,0-0.3,0-0.4c0.1,0,0.1,0,0.2,0c0.1,0,0.3-0.7,0.5-0.9
				c0.1-0.2,0.9-0.4,1.1-0.5C13,5.4,13.4,5.1,13.5,5c0.2,0,0.4-0.4,0.4-0.5c0-0.1,0.5-0.4,0.7-0.5c0.2-0.1,0.3-0.3,0.2-0.3
				c0,0-1.2,0.6-2.3,1.2c0,0,0,0,0,0c-0.3,0.2-0.6,0.4-0.9,0.7c-0.2,0.2-0.4,0.3-0.6,0.5c-0.1,0.1-0.2,0.2-0.3,0.2
				c-0.2,0.2-0.5,0.4-0.7,0.6C9.9,6.9,9.8,7,9.8,7C9.5,7.3,9.3,7.5,9,7.7C9.4,7.7,9.9,7.6,10.1,7.6z"/>
			<path fill="#AED5A5" d="M28.1,21.5c-0.1,0-0.1,0.4,0,0.4c0.1,0,0.2-0.2,0.4-0.4V20l0,0c-0.2-0.2-0.1-0.2,0,0v-9.7
				c-0.1,0.1-0.3,0.3-0.4,0.3c-0.2,0.2-0.6,1-0.8,1.2c-0.1,0.2-0.3,0.2-0.4,0.2c-0.1,0-0.1,0.2-0.1,0.3c0,0.1-0.7,0.4-0.8,0.7
				c-0.1,0.3,0.1,1,0.1,1.3s0.3,0.8,0.4,0.8c0.2,0,0.1,0.4,0,0.5c-0.1,0.1,0.1,0.2,0.1,0.4c0,0.1-0.5,0.2-0.6,0.3
				c-0.2,0.1-0.4,0.4-0.4,0.5c0,0.1-0.5,0.2-0.6,0.3c0-0.1,0.1-0.3,0.1-0.3c0.1-0.2,0-0.5-0.1-0.5c-0.1-0.1-0.1-0.9-0.2-1.1
				c-0.1-0.2-0.4-0.5-0.5-0.5c-0.1-0.1,0.1-0.3,0.1-0.4c0-0.1-0.4-0.1-0.5-0.1c-0.1,0.1-0.2,0.9-0.2,1.1c0,0.2,0.2,0.6,0.3,0.6
				c0.1,0,0,0.4-0.1,0.4c-0.2,0-0.3,0.6-0.2,0.7c0.1,0.1-0.1,0.4-0.2,0.5c-0.1,0.1,0.6,0,0.9,0c0.3,0,0.5,0.1,0.5,0.2
				c0,0-0.6,0.1-0.7,0.2c-0.1,0.1-0.5,0.4-0.5,0.5c-0.1,0.1,0.1,0.3,0.3,0.3c0.2,0,0.3,0.5,0.5,0.7c0.1,0.1,0.1,0.4,0,0.5
				c0,0.1-0.8-0.1-1.1,0c-0.3,0.1-0.6,0.7-0.7,0.9c0,0.2,0,0.9,0.1,1.1c0,0.2,0.6,0.3,0.7,0.4c0.1,0.1,0.7,0,0.8,0.1
				c0.1,0.1,0.5-0.6,0.6-0.9c0.1-0.3,0.7-0.8,0.8-1c0.1-0.2,0.8-0.2,0.9-0.3c0.2-0.1,0.1,0.5,0.1,0.8c0.1,0.3,0.7,0.3,0.6,0
				c-0.1-0.3,0.1-0.4,0.1-0.3c0,0.1,0.6,0.4,0.7,0.5C28.3,21.1,28.3,21.5,28.1,21.5z"/>
			<path fill="#AED5A5" d="M28.5,23.4c-0.1-0.1-0.2-0.1-0.3-0.2c-0.4-0.2-0.6-0.7-0.7-0.8c-0.1-0.1,0.1-0.3,0-0.4
				c0-0.1-0.9-0.1-1.1,0c-0.2,0.1-1.5,0.2-1.8,0.4c-0.3,0.1-0.7,0-0.9,0c-0.1,0-0.5,0.4-0.6,0.5c-0.2,0.1-0.4,0.7-0.5,1.3
				c0,0,0,0-0.2,0.4c-0.1,0.3-0.1,0.3-0.1,0.3c-0.4,0.3-0.9,1.4-1,1.6c-0.1,0.2-0.2,1.7-0.2,2.2s0.4,1.6,0.6,1.9
				c0.1,0.3,0.9,1,1.2,1.1c0.3,0.2,1.1,0.2,1.4,0.2c0.3,0,0.6-0.3,0.7-0.6c0,0,0,0,0.4,0c0.2,0,0.2,0,0.2,0c0,0.2,0.6,0.4,0.7,0.5
				c0.1,0.1,0.5,0,0.7,0c0.1,0,0.2,1,0.2,1.3c-0.1,0.3,0.2,1.4,0.3,1.7c0.1,0.3,0.4,1.2,0.5,1.5c0,0.3-0.2,1.4-0.3,1.7
				c0,0.4,0.5,1.4,0.6,1.7c0.1,0.4,0.2,1.1,0.2,1.3c0,0.1,0.1,0.4,0.3,0.7V23.4z"/>
			<path fill="#AED5A5" d="M13.9,48.4c0.1,0,0.3,0,0.4,0C14.4,48,13.9,48.1,13.9,48.4z"/>
			<path fill="#AED5A5" d="M21.8,9.5c0.2,0.1,0.6-0.2,0.4-0.3c-0.1-0.1-0.1-0.1,0-0.1c0.1,0,0.1-0.4,0.1-0.4c-0.1-0.1,0.6-0.6,0.5-1
				c-0.1-0.5,0.2-0.9,0.4-0.9c0.2,0,0.1-0.5-0.1-0.6c-0.2,0,0-0.1,0.1-0.2c0.1-0.1,0.2-0.5,0.1-0.6c0-0.1,0.3-0.2,0.4-0.3
				c0.1-0.1,0.5-0.3,0.6-0.3c0.2,0,0.2-0.4,0.1-0.4c-0.2,0-0.6-0.1-0.7-0.1c-0.1-0.1-0.7-0.1-0.9-0.1c-0.2,0.1-0.1-0.4,0.2-0.5
				c0.3-0.1,0-0.4-0.2-0.4c-0.3,0-0.9-0.1-1.1-0.1c-0.2,0-0.5-0.1-0.6-0.1c-0.1,0-0.9,0.2-1.3,0.2c-0.4,0-1.3,0-1.5,0.1
				c-0.2,0.1-0.4,0.4-0.3,0.6c0,0.1-0.9,0.1-1.2,0.1c-0.3,0-1.9,0.3-2.3,0.6c-0.4,0.2-0.7,0.8-0.6,0.8c0.1,0-0.2,0.3-0.4,0.4
				c-0.2,0.1-0.7,0.1-0.9,0.2c-0.1,0.1,0.1,0.2,0.2,0.3c0.1,0.1,0.2-0.1,0.3,0c0.1,0.1,0.6,0.1,0.7,0.2c0.1,0.1-0.4,0.1-0.6,0.2
				c-0.2,0-0.2,0.5,0,0.6c0.2,0.1,0.7,0.1,0.8,0.1c0-0.1,0.6,0.1,0.8,0.1c0.2,0,0.4,0.6,0.5,0.8c0.1,0.1,0.1,0.6,0.1,0.7
				c0,0.1,0.4,0.4,0.5,0.3c0.1-0.1,0.1,0.2-0.1,0.2c-0.2,0-0.1,0.5,0.2,0.6c0.2,0.1,0.1,0.4-0.1,0.5c-0.1,0.1-0.1,0.4-0.2,0.5
				c-0.1,0.1,0.5,1.2,0.5,1.7c0,0.5,0.3,1,0.5,1c0.1,0,0.6,0.1,0.6,0.2c0.1,0.1,0.3-0.1,0.3-0.2c0.1-0.1,0.3-0.3,0.4-0.6
				c0.1-0.2,0.4-1.3,0.5-1.4c0-0.1,0.5,0,0.7-0.1c0.1-0.1,0.4-0.3,0.5-0.4c0.1-0.1,0.8-0.4,1-0.5c0.2-0.1,0.5-0.7,0.7-0.9
				c0.2-0.1-0.1-0.1-0.3-0.2c-0.2-0.1-0.1-0.3-0.1-0.3C21,9.3,21.6,9.4,21.8,9.5z"/>
			<path fill="#AED5A5" d="M28.1,4.7c-0.2-0.1-0.6,0.2-0.6,0.3c0.1,0.1-0.3-0.2-0.6,0c-0.3,0.1-0.3,0.6-0.2,0.7
				c0.1,0.1,0.2,0.4,0.2,0.5c0,0.1,0.5,0,0.7-0.1c0.1-0.1,0.1,0.4,0,0.5c-0.1,0.1,0,0.4,0.2,0.4c0.1,0,0.3,0.4,0.5,0.4
				c0.1,0,0.2-0.2,0.3-0.3V5.3l0,0C28.4,5.3,28.3,4.8,28.1,4.7z"/>
			<path fill="#AED5A5" d="M23.1,16.6c0.2,0,0.3-0.2,0.3-0.3c0-0.1-0.2-0.7-0.3-0.7c-0.1,0-0.3,0.4-0.4,0.4c-0.1,0-0.2,0.4-0.1,0.5
				C22.6,16.7,23,16.7,23.1,16.6z"/>
			<path fill="#AED5A5" d="M22.6,12.2c0.1,0.2,0.3,0.3,0.4,0.2c0.2,0,0.6-0.2,0.7-0.2c0.1,0,0.3-0.7,0.2-0.8
				c-0.1-0.1-0.7-0.1-0.9-0.1c-0.2,0-0.6-0.2-0.7-0.3c-0.1-0.1-0.2,0.4-0.3,0.5c-0.1,0.1,0.1,0.2,0.1,0.1c0.1-0.1,0,0.2-0.1,0.4
				C22,12,22.5,12.1,22.6,12.2z"/>
			<path fill="#AED5A5" d="M8.5,12.2c-0.1,0.1,0,0.6,0.2,0.6c0.2,0,0.5-0.7,0.7-0.6c0.2,0.1,0.4,0.2,0.3,0.1C9.7,12.3,9.1,12,9,12
				C8.9,11.9,8.6,12.2,8.5,12.2z"/>
			<path fill="#AED5A5" d="M10.9,27.9c0,0.1,0.4,0.1,0.5-0.1c0.1-0.1,0-0.2-0.1-0.2C11.2,27.6,10.9,27.8,10.9,27.9z"/>
			<path fill="#AED5A5" d="M9.1,27.2c0.2,0,0.1,0.3,0.2,0.4c0,0.1,0.5,0.2,0.6,0.3c0.1,0.1,0.3-0.1,0.5-0.1c0.2,0-0.1-0.7-0.4-0.6
				c-0.3,0-0.6-0.3-0.6-0.3c-0.1,0-0.4-0.3-0.5-0.3c-0.1-0.1-0.9-0.2-1.2-0.2S7.1,26.6,7,26.7c0,0.1,0.4,0.2,0.6,0.1
				c0.1-0.1,0.8,0.1,0.9,0.2C8.6,27.2,8.9,27.2,9.1,27.2z"/>
			<path fill="#AED5A5" d="M8.2,27.9c0,0.1,0.4,0,0.5,0c0.1,0,0.1-0.1,0-0.1C8.6,27.7,8.2,27.8,8.2,27.9z"/>
			<path fill="#AED5A5" d="M8.5,25.7c-0.1,0-0.2,0.1-0.2,0.2c0,0.1,0.1,0.1,0.1,0.1C8.5,26.1,8.6,25.8,8.5,25.7z"/>
			<path fill="#AED5A5" d="M9.4,25.8c0-0.1-0.2-0.1-0.3-0.1c-0.1,0-0.1,0.1-0.1,0.3C9.1,26.1,9.4,25.9,9.4,25.8z"/>
			<path fill="#AED5A5" d="M10,26.8c0.2-0.1,0.2-0.3,0.1-0.3c-0.1,0-0.3-0.3-0.4-0.3c-0.1,0-0.2,0.2-0.2,0.3c0,0.1,0.1,0.2,0.1,0.1
				C9.7,26.6,9.9,26.9,10,26.8z"/>
		</g>
		<path fill="#D0EAF9" d="M11.1,7c0,0-0.2,0.1-0.1,0.1C11,7.2,11.1,7.1,11.1,7z"/>
		<path fill="#D0EAF9" d="M14.2,16.4c0,0-0.1,0.1-0.1,0.1C14.1,16.6,14.3,16.5,14.2,16.4z"/>
	</g>
</g>
</svg>
