<?xml version="1.0" encoding="utf-8"?>
<!-- Generator: Adobe Illustrator 18.1.1, SVG Export Plug-In . SVG Version: 6.00 Build 0)  -->
<svg version="1.1" id="Layer_1" xmlns="http://www.w3.org/2000/svg" xmlns:xlink="http://www.w3.org/1999/xlink" x="0px" y="0px"
	 viewBox="0 0 195.3 193" enable-background="new 0 0 195.3 193" xml:space="preserve">
<g>
	<g>
		<path fill="#CCEAF1" d="M58.7,105.2c-0.9,2.5-3.6,3.9-6.1,3L18.8,96.8C16.2,96,22.6,84,23.5,81.5l0,0c0.9-2.5,3.6-3.9,6.1-3
			l26,20.6C58.2,100,59.5,102.7,58.7,105.2L58.7,105.2z"/>
		<path fill="#2C5871" d="M54.1,109.7c-0.7,0-1.3-0.1-1.9-0.3L18.4,98c-0.5-0.2-0.9-0.6-1.2-1.1c-0.8-1.9,0.6-5.7,3.8-12.6
			c0.6-1.4,1.2-2.5,1.4-3.1c1.1-3.1,4.6-4.8,7.7-3.8l0.4,0.2L56.2,98c3,1.1,4.6,4.5,3.6,7.6C59,108.1,56.7,109.7,54.1,109.7z
			 M19.4,95.8l33.5,11.4c1.9,0.6,4-0.4,4.6-2.3c0.6-1.9-0.4-4-2.3-4.6l-0.4-0.2L29.1,79.5c-1.8-0.5-3.8,0.5-4.4,2.3
			c-0.2,0.6-0.8,1.9-1.5,3.3C22,87.7,19.1,94.2,19.4,95.8z"/>
	</g>
	<g>
		<path fill="#CCEAF1" d="M69,93.7c-0.9,2.5-3.6,3.9-6.1,3L29.1,85.2c-2.5-0.9,3.9-12.8,4.7-15.3l0,0c0.9-2.5,3.6-3.9,6.1-3l26,20.6
			C68.5,88.4,69.8,91.1,69,93.7L69,93.7z"/>
		<path fill="#2C5871" d="M64.4,98.1c-0.7,0-1.3-0.1-1.9-0.3L28.7,86.4c-0.5-0.2-0.9-0.6-1.2-1.1c-0.8-1.9,0.6-5.7,3.8-12.6
			c0.6-1.4,1.2-2.5,1.4-3.1c1-3.1,4.6-4.8,7.7-3.8l0.4,0.2l25.8,20.5c1.4,0.5,2.6,1.6,3.3,3c0.7,1.5,0.8,3.1,0.3,4.6
			C69.3,96.5,67,98.1,64.4,98.1z M29.7,84.2l33.5,11.4c1.9,0.6,4-0.4,4.6-2.3c0.3-0.9,0.2-1.9-0.2-2.8c-0.4-0.9-1.2-1.5-2.1-1.8
			l-0.4-0.2L39.4,68c-1.8-0.5-3.8,0.5-4.4,2.3c-0.2,0.6-0.8,1.9-1.5,3.4C32.4,76.1,29.4,82.6,29.7,84.2z"/>
	</g>
	<g>
		<path fill="#CCEAF1" d="M89.1,75.3c-0.9,2.5-3.6,3.9-6.1,3L49.2,66.9c-2.5-0.9-3.9-3.6-3-6.1l0,0c0.9-2.5,3.6-3.9,6.1-3l33.8,11.4
			C88.6,70,90,72.7,89.1,75.3L89.1,75.3z"/>
		<path fill="#2C5871" d="M84.5,79.8c-0.7,0-1.3-0.1-1.9-0.3L48.8,68c-1.5-0.5-2.8-1.6-3.5-3c-0.7-1.4-0.8-3.1-0.3-4.6
			c1-3.1,4.6-4.8,7.7-3.8L86.5,68c3.2,1.1,4.9,4.5,3.8,7.7C89.4,78.1,87.1,79.8,84.5,79.8z M50.7,58.6c-1.6,0-2.9,1-3.4,2.5
			C47,62,47.1,63,47.5,63.9c0.4,0.9,1.2,1.5,2.1,1.8l33.8,11.4c1.9,0.6,4-0.4,4.6-2.3c0.6-1.9-0.4-4-2.3-4.6L51.9,58.8
			C51.5,58.7,51.1,58.6,50.7,58.6z"/>
	</g>
	<g>
		<path fill="#84C88D" d="M123.8,192.1c-1,1.1-2.7,1.3-3.8,0.3l-67.3-41.2L1,91.7c-1.1-1-1.3-2.7-0.3-3.8L71.5,4.2
			c1-1.1,2.7-1.3,3.8-0.3L125.2,65l69.1,39.6c1.1,1,1.3,2.7,0.3,3.8L123.8,192.1z"/>
		<polygon fill="#A4D7E6" points="121.5,188.4 55,147.9 4.7,89.5 11.3,81.6 62,140.3 128.2,180.5 		"/>
		<path fill="#FFFFFF" d="M57.5,145.5l65-76.8c0.1,0,0.2-0.1,0.3-0.2c0.2-0.2,0.3-0.4,0.5-0.7c3.5-3.5,9.2-3.8,13.1-0.5l58.8,34
			l-67.7,80l-58.8-34C64.9,145.1,61.2,144,57.5,145.5z"/>
		<path fill="#FFFFFF" d="M57.6,145.5l65-76.8c0-0.1,0.1-0.2,0.1-0.3c0.2-0.2,0.4-0.4,0.6-0.6c2.9-4.1,2.2-9.7-1.6-13L80.4,0
			L10.7,82.4L54,134.7C56.6,138.3,58.4,141.6,57.6,145.5z"/>
		<path fill="#CCEAF1" d="M123.3,67.8c2-2.8,2.3-6.5,1-9.5l-67.6,79.9c1.1,2.3,1.5,4.9,0.9,7.3l65-76.8c0-0.1,0.1-0.2,0.1-0.3
			C122.9,68.2,123.1,68,123.3,67.8z"/>
		<polygon fill="#F26C37" points="96.5,49.6 75.5,20.8 77.4,18.5 98.5,47.3 		"/>
		<g>
			<g>
				<g>
					
						<rect x="58.3" y="48.5" transform="matrix(0.6122 0.7907 -0.7907 0.6122 72.8072 -49.8458)" fill="#A4D7E6" width="57.9" height="1.6"/>
				</g>
			</g>
			<g>
				<g>
					
						<rect x="54.4" y="53.1" transform="matrix(0.6123 0.7907 -0.7907 0.6123 74.9005 -45.0514)" fill="#A4D7E6" width="57.9" height="1.6"/>
				</g>
			</g>
			<g>
				<g>
					
						<rect x="50.6" y="57.6" transform="matrix(0.6123 0.7907 -0.7907 0.6123 76.9986 -40.2583)" fill="#A4D7E6" width="57.9" height="1.6"/>
				</g>
			</g>
			<g>
				<g>
					
						<rect x="46.8" y="62.1" transform="matrix(0.6123 0.7907 -0.7907 0.6123 79.0959 -35.4658)" fill="#A4D7E6" width="57.9" height="1.6"/>
				</g>
			</g>
			<g>
				<g>
					
						<rect x="42.9" y="66.7" transform="matrix(0.6123 0.7906 -0.7906 0.6123 81.1903 -30.6713)" fill="#A4D7E6" width="57.9" height="1.6"/>
				</g>
			</g>
			<g>
				<g>
					
						<rect x="39.1" y="71.2" transform="matrix(0.6123 0.7906 -0.7906 0.6123 83.2915 -25.8775)" fill="#A4D7E6" width="57.9" height="1.6"/>
				</g>
			</g>
			<g>
				<g>
					
						<rect x="35.2" y="75.7" transform="matrix(0.6122 0.7907 -0.7907 0.6122 85.3913 -21.0837)" fill="#A4D7E6" width="57.9" height="1.6"/>
				</g>
			</g>
			<g>
				<g>
					
						<rect x="31.4" y="80.3" transform="matrix(0.6123 0.7906 -0.7906 0.6123 87.4851 -16.2904)" fill="#A4D7E6" width="57.9" height="1.6"/>
				</g>
			</g>
			<g>
				<g>
					
						<rect x="27.6" y="84.8" transform="matrix(0.6123 0.7906 -0.7906 0.6123 89.58 -11.4984)" fill="#A4D7E6" width="57.9" height="1.6"/>
				</g>
			</g>
			<g>
				<g>
					
						<rect x="23.7" y="89.3" transform="matrix(0.6123 0.7906 -0.7906 0.6123 91.6799 -6.7034)" fill="#A4D7E6" width="57.9" height="1.6"/>
				</g>
			</g>
			<g>
				<g>
					
						<rect x="19.9" y="93.9" transform="matrix(0.6123 0.7907 -0.7907 0.6123 93.7812 -1.9075)" fill="#A4D7E6" width="57.9" height="1.6"/>
				</g>
			</g>
			<g>
				<g>
					
						<rect x="16.1" y="98.4" transform="matrix(0.6123 0.7906 -0.7906 0.6123 95.8765 2.8842)" fill="#A4D7E6" width="57.9" height="1.6"/>
				</g>
			</g>
		</g>
		<g>
			<g>
				<g>
					
						<rect x="118.3" y="99.3" transform="matrix(0.881 0.4731 -0.4731 0.881 64.8791 -57.7482)" fill="#A4D7E6" width="57.9" height="1.6"/>
				</g>
			</g>
			<g>
				<g>
					
						<rect x="114.4" y="103.8" transform="matrix(0.881 0.4731 -0.4731 0.881 66.5662 -55.3912)" fill="#A4D7E6" width="57.9" height="1.6"/>
				</g>
			</g>
			<g>
				<g>
					
						<rect x="110.6" y="108.4" transform="matrix(0.881 0.4731 -0.4731 0.881 68.2549 -53.0359)" fill="#A4D7E6" width="57.9" height="1.6"/>
				</g>
			</g>
			<g>
				<g>
					
						<rect x="106.8" y="112.9" transform="matrix(0.881 0.4731 -0.4731 0.881 69.9433 -50.6797)" fill="#A4D7E6" width="57.9" height="1.6"/>
				</g>
			</g>
			<g>
				<g>
					
						<rect x="102.9" y="117.5" transform="matrix(0.881 0.4731 -0.4731 0.881 71.6317 -48.323)" fill="#A4D7E6" width="57.9" height="1.6"/>
				</g>
			</g>
			<g>
				<g>
					
						<rect x="99.1" y="122" transform="matrix(0.881 0.4731 -0.4731 0.881 73.3229 -45.9672)" fill="#A4D7E6" width="57.9" height="1.6"/>
				</g>
			</g>
			<g>
				<g>
					
						<rect x="95.3" y="126.5" transform="matrix(0.881 0.4731 -0.4731 0.881 75.0135 -43.6124)" fill="#A4D7E6" width="57.9" height="1.6"/>
				</g>
			</g>
			<g>
				<g>
					
						<rect x="91.4" y="131.1" transform="matrix(0.881 0.4731 -0.4731 0.881 76.6977 -41.2553)" fill="#A4D7E6" width="57.9" height="1.6"/>
				</g>
			</g>
			<g>
				<g>
					
						<rect x="87.6" y="135.6" transform="matrix(0.881 0.4732 -0.4732 0.881 78.402 -38.903)" fill="#A4D7E6" width="57.9" height="1.6"/>
				</g>
			</g>
			<g>
				<g>
					
						<rect x="83.7" y="140.1" transform="matrix(0.881 0.4732 -0.4732 0.881 80.084 -36.5451)" fill="#A4D7E6" width="57.9" height="1.6"/>
				</g>
			</g>
			<g>
				<g>
					
						<rect x="79.9" y="144.7" transform="matrix(0.881 0.4731 -0.4731 0.881 81.7693 -34.1877)" fill="#A4D7E6" width="57.9" height="1.6"/>
				</g>
			</g>
			<g>
				<g>
					
						<rect x="76.1" y="149.2" transform="matrix(0.881 0.4731 -0.4731 0.881 83.459 -31.8317)" fill="#A4D7E6" width="57.9" height="1.6"/>
				</g>
			</g>
		</g>
	</g>
</g>
</svg>
