<?xml version="1.0" encoding="utf-8"?>
<!-- Generator: Adobe Illustrator 18.1.1, SVG Export Plug-In . SVG Version: 6.00 Build 0)  -->
<svg version="1.1" id="Layer_1" xmlns="http://www.w3.org/2000/svg" xmlns:xlink="http://www.w3.org/1999/xlink" x="0px" y="0px"
	 viewBox="0 0 67.1 58.3" enable-background="new 0 0 67.1 58.3" xml:space="preserve">
<g>
	<g>
		<g>
			<path fill="#A4D7E6" d="M67.1,26.4c0-7.9-6.4-14.4-14.4-14.4c-1.7,0-3.3,0.3-4.8,0.9C46.1,5.5,39.5,0,31.6,0
				C22.4,0,15,7.3,14.8,16.4c-0.8-0.2-1.7-0.3-2.5-0.3C5.5,16.2,0,21.7,0,28.5C0,34,3.7,38.7,8.8,40.2c1,0.3,2.1,0.5,3.2,0.5h41.4
				c1.3,0,2.5-0.2,3.6-0.7C62.8,38.3,67.1,32.8,67.1,26.4z"/>
			<path fill="#8DC1D4" d="M52.7,12.1c-1.7,0-3.3,0.3-4.8,0.9C46.1,5.5,39.5,0,31.6,0c-0.3,0-0.6,0-0.9,0v40.7h22.8
				c1.3,0,2.5-0.2,3.6-0.7c5.8-1.8,10-7.3,10-13.7C67.1,18.5,60.6,12.1,52.7,12.1z"/>
		</g>
		<g>
			<path fill="#484F59" d="M20.9,45.5l4.9,5.2c0.5,0.5,1.3,1.4,1.9,2l4.9,5.2c0.5,0.5,1.3,0.5,1.9,0l4.9-5.2c0.5-0.5,1.3-1.4,1.9-2
				l4.9-5.2c0.5-0.5,0.3-1-0.4-1h-6V24.2c0-0.7-0.6-1.4-1.4-1.4h-9.7c-0.7,0-1.4,0.6-1.4,1.4v20.4h-6C20.6,44.5,20.4,45,20.9,45.5z"
				/>
			<path fill="#5A6274" d="M25.8,50.7c0.5,0.5,1.3,1.4,1.9,2l4.9,5.2c0.3,0.4,0.8,0.5,1.2,0.4V22.8h-5.2c-0.7,0-1.4,0.6-1.4,1.4
				v20.4h-6c-0.7,0-0.9,0.4-0.4,1L25.8,50.7z"/>
		</g>
	</g>
</g>
</svg>
