<?xml version="1.0" encoding="utf-8"?>
<!-- Generator: Adobe Illustrator 18.1.1, SVG Export Plug-In . SVG Version: 6.00 Build 0)  -->
<svg version="1.1" id="Layer_1" xmlns="http://www.w3.org/2000/svg" xmlns:xlink="http://www.w3.org/1999/xlink" x="0px" y="0px"
	 viewBox="0 0 26.5 26.5" enable-background="new 0 0 26.5 26.5" xml:space="preserve">
<g>
	<path fill="#5A6274" d="M0.9,10.8h2c0.5,0,1-0.4,1.1-0.8l0.4-0.9c0.2-0.4,0.1-1-0.2-1.4L2.8,6.2C2.4,5.9,2.4,5.3,2.8,5L5,2.8
		c0.3-0.3,0.9-0.3,1.2,0l1.4,1.5c0.3,0.3,1,0.4,1.4,0.2L10,4.1c0.4-0.2,0.8-0.7,0.8-1.1v-2c0-0.5,0.4-0.9,0.9-0.9h3.2
		c0.5,0,0.9,0.4,0.9,0.9v2c0,0.5,0.4,1,0.8,1.1l0.9,0.4c0.4,0.2,1.1,0.1,1.4-0.2l1.5-1.5c0.3-0.3,0.9-0.3,1.2,0L23.8,5
		c0.3,0.3,0.3,0.9,0,1.2l-1.4,1.5c-0.3,0.3-0.4,1-0.2,1.4l0.4,0.9c0.2,0.5,0.7,0.8,1.1,0.8h2.1c0.5,0,0.9,0.4,0.9,0.9v3.2
		c0,0.5-0.4,0.9-0.9,0.9h-2.1c-0.5,0-1,0.4-1.1,0.8l-0.4,0.9c-0.2,0.4-0.1,1.1,0.2,1.4l1.4,1.4c0.3,0.3,0.3,0.9,0,1.2l-2.2,2.2
		c-0.3,0.3-0.9,0.3-1.2,0l-1.5-1.4c-0.3-0.3-1-0.4-1.4-0.2l-0.9,0.4c-0.5,0.1-0.8,0.7-0.8,1.1v2.1c0,0.5-0.4,0.9-0.9,0.9h-3.2
		c-0.5,0-0.9-0.4-0.9-0.9v-2.1c0-0.5-0.4-1-0.8-1.1l-0.9-0.4c-0.4-0.2-1-0.1-1.4,0.2l-1.4,1.4c-0.3,0.3-0.9,0.3-1.2,0l-2.2-2.2
		c-0.3-0.3-0.3-0.9,0-1.2l1.4-1.4c0.3-0.3,0.4-1,0.2-1.4l-0.4-0.9c-0.2-0.4-0.7-0.8-1.1-0.8h-2c-0.5,0-0.9-0.4-0.9-0.9v-3.2
		C0,11.2,0.4,10.8,0.9,10.8z M13.3,17.4c2.3,0,4.2-1.9,4.2-4.2c0-2.3-1.9-4.2-4.2-4.2c-2.3,0-4.2,1.9-4.2,4.2
		C9.1,15.6,10.9,17.4,13.3,17.4z"/>
	<path fill="#484F59" d="M13.2,17.4L13.2,17.4c2.3,0,4.2-1.9,4.2-4.2c0-2.3-1.9-4.2-4.2-4.2h0V0h1.6c0.5,0,0.9,0.4,0.9,0.9v2
		c0,0.5,0.4,1,0.8,1.1l0.9,0.4c0.4,0.2,1.1,0.1,1.4-0.2l1.5-1.5c0.3-0.3,0.9-0.3,1.2,0L23.8,5c0.3,0.3,0.3,0.9,0,1.2l-1.4,1.5
		c-0.3,0.3-0.4,1-0.2,1.4l0.4,0.9c0.2,0.5,0.7,0.8,1.1,0.8h2.1c0.5,0,0.9,0.4,0.9,0.9v3.2c0,0.5-0.4,0.9-0.9,0.9h-2.1
		c-0.5,0-1,0.4-1.1,0.8l-0.4,0.9c-0.2,0.4-0.1,1.1,0.2,1.4l1.4,1.4c0.3,0.3,0.3,0.9,0,1.2l-2.2,2.2c-0.3,0.3-0.9,0.3-1.2,0l-1.5-1.4
		c-0.3-0.3-1-0.4-1.4-0.2l-0.9,0.4c-0.5,0.1-0.8,0.7-0.8,1.1v2.1c0,0.5-0.4,0.9-0.9,0.9h-1.6V17.4z"/>
</g>
</svg>
