<?xml version="1.0" encoding="utf-8"?>
<!-- Generator: Adobe Illustrator 18.1.1, SVG Export Plug-In . SVG Version: 6.00 Build 0)  -->
<svg version="1.1" id="Layer_1" xmlns="http://www.w3.org/2000/svg" xmlns:xlink="http://www.w3.org/1999/xlink" x="0px" y="0px"
	 viewBox="0 0 146 129.3" enable-background="new 0 0 146 129.3" xml:space="preserve">
<g>
	<g>
		<g>
			<path fill="#84C88D" d="M59.2,129.2l77.3-23.3c0.1,0,0.2-0.1,0.3-0.2c1.4-0.5,2.7-1.1,3.8-1.8c5.5-3.8,6.9-10.9,3.6-16.6
				c0-0.2-0.1-0.3-0.2-0.4l-0.3-0.4l-11.4-16.4L84,0.7c-0.4-0.6-1.1-0.8-1.8-0.6L4.9,23.3c-0.2,0-0.3,0.1-0.5,0.2
				c-0.3,0.2-0.5,0.5-0.6,0.8c-0.2,0.5-0.1,1.1,0.2,1.5l10,14.3c-13,3.9-13,3.9-13.3,4.1c-0.7,0.5-0.9,1.5-0.4,2.3l57.1,82.1
				C57.8,129.2,58.5,129.5,59.2,129.2z"/>
			<path fill="#7BC185" d="M0.7,44.2c-0.2,0.2-0.4,0.4-0.5,0.7l58.6,83.2l77.7-23.3c0,0,0.1,0,0.1,0c1.7-0.4,3.1-1,4.2-1.8
				c4.3-3,5.2-8.8,2.3-13.4c-0.8-0.9-2.7-2.6-4.5-2.5c-2.1,0.1-4.5,0.9-4.6,0.9l-73.3,20.9c-0.7,0.2-1.5-0.1-2-0.7L11.9,40.8
				C1,44.1,0.9,44.1,0.7,44.2z"/>
			<path fill="#D0EAF9" d="M61.1,107.9L9.4,33.6c0.4,3.3-1,6.6-3.9,8.7c-0.8,0.6-1.9,1-3.1,1.4l57.1,82.1l75.2-22.6c0,0,0.1,0,0.1,0
				c1.7-0.4,3-1,4.1-1.8c4.1-2.9,5.1-8.3,2.5-12.5c-0.7-0.8-2.5-2.4-4.2-2.2c-2,0.2-4.3,0.9-4.3,0.9l-69.7,21.1
				C62.2,108.8,61.5,108.5,61.1,107.9z"/>
			<path fill="#FFFFFF" d="M5.4,42.2c-0.8,0.6-1.9,1-3.1,1.4l57.1,82.1l3.2-1c0.3-0.2,0.5-0.3,0.8-0.5c4.3-3,5.4-8.7,2.6-13.1
				c-0.7-0.7-2.1-2-3.7-2.3l-0.2-0.3c-0.4-0.1-0.8-0.3-1-0.6L9.4,33.6C9.7,36.9,8.4,40.2,5.4,42.2z"/>
		</g>
	</g>
</g>
</svg>
