<?xml version="1.0" encoding="utf-8"?>
<!-- Generator: Adobe Illustrator 18.1.1, SVG Export Plug-In . SVG Version: 6.00 Build 0)  -->
<svg version="1.1" id="Layer_1" xmlns="http://www.w3.org/2000/svg" xmlns:xlink="http://www.w3.org/1999/xlink" x="0px" y="0px"
	 viewBox="0 0 75.5 75.4" enable-background="new 0 0 75.5 75.4" xml:space="preserve">
<g>
	<g>
		<path fill="#7BC185" d="M57.1,24.5h-3.6c-0.3-1.3-0.6-2.5-1-3.7l3-1.7c0.7-0.4,1-1.3,0.6-2.1l-3-5.2c-0.4-0.7-1.3-1-2.1-0.6
			L47.9,13c-0.8-1-1.8-1.9-2.7-2.7l1.7-3c0.4-0.7,0.2-1.6-0.6-2.1l-5.2-3c-0.7-0.4-1.6-0.2-2.1,0.6l-1.8,3.1C36,5.5,34.8,5.2,33.5,5
			V1.5C33.5,0.7,32.8,0,32,0h-6c-0.8,0-1.5,0.7-1.5,1.5v3.6c-1.3,0.3-2.5,0.6-3.7,1l-1.7-3c-0.4-0.7-1.3-1-2.1-0.5l-5.2,3
			c-0.7,0.4-1,1.3-0.5,2.1l1.8,3.1c-1,0.8-1.9,1.8-2.7,2.7l-3-1.7c-0.7-0.4-1.7-0.2-2.1,0.6l-3,5.2c-0.4,0.7-0.2,1.6,0.6,2.1
			l3.1,1.8c-0.4,1.2-0.7,2.4-0.9,3.7H1.5c-0.8,0-1.5,0.7-1.5,1.5v6c0,0.8,0.7,1.5,1.5,1.5h3.6c0.3,1.3,0.6,2.5,1,3.7l-3,1.7
			c-0.7,0.4-1,1.3-0.6,2.1l3,5.2c0.4,0.7,1.3,1,2.1,0.6l3.1-1.8c0.8,1,1.8,1.9,2.7,2.7l-1.7,3c-0.4,0.7-0.2,1.6,0.6,2.1l5.2,3
			c0.7,0.4,1.6,0.2,2.1-0.5l1.8-3.1c1.2,0.4,2.4,0.7,3.7,0.9v3.5c0,0.8,0.7,1.5,1.5,1.5l6,0c0.8,0,1.5-0.7,1.5-1.5v-3.6
			c1.3-0.3,2.5-0.6,3.7-1l1.7,3c0.4,0.7,1.3,1,2.1,0.5l5.2-3c0.7-0.4,1-1.3,0.5-2.1l-1.8-3.1c1-0.8,1.9-1.8,2.7-2.7l3,1.7
			c0.7,0.4,1.6,0.2,2.1-0.6l3-5.2c0.4-0.7,0.2-1.6-0.5-2.1l-3.1-1.8c0.4-1.2,0.7-2.4,0.9-3.7h3.5c0.8,0,1.5-0.7,1.5-1.5v-6
			C58.6,25.1,58,24.5,57.1,24.5z M29.3,45c-8.6,0-15.6-7-15.6-15.6c0-8.6,7-15.6,15.6-15.6c8.6,0,15.6,7,15.6,15.6
			C45,38,38,45,29.3,45z"/>
		<path fill="#84C88D" d="M28.8,45c-8.4-0.3-15.1-7.2-15.1-15.6c0-8.5,6.7-15.4,15.1-15.6V0H26c-0.8,0-1.5,0.7-1.5,1.5v3.6
			c-1.3,0.3-2.5,0.6-3.7,1l-1.7-3c-0.4-0.7-1.3-1-2.1-0.5l-5.2,3c-0.7,0.4-1,1.3-0.5,2.1l1.8,3.1c-1,0.8-1.9,1.8-2.7,2.7l-3-1.7
			c-0.7-0.4-1.7-0.2-2.1,0.6l-3,5.2c-0.4,0.7-0.2,1.6,0.6,2.1l3.1,1.8c-0.4,1.2-0.7,2.4-0.9,3.7H1.5c-0.8,0-1.5,0.7-1.5,1.5v6
			c0,0.8,0.7,1.5,1.5,1.5h3.6c0.3,1.3,0.6,2.5,1,3.7l-3,1.7c-0.7,0.4-1,1.3-0.6,2.1l3,5.2c0.4,0.7,1.3,1,2.1,0.6l3.1-1.8
			c0.8,1,1.8,1.9,2.7,2.7l-1.7,3c-0.4,0.7-0.2,1.6,0.6,2.1l5.2,3c0.7,0.4,1.6,0.2,2.1-0.5l1.8-3.1c1.2,0.4,2.4,0.7,3.7,0.9v3.5
			c0,0.8,0.7,1.5,1.5,1.5l2.2,0V45z"/>
		<path fill="#7BC185" d="M29.3,10.3c-10.5,0-19.1,8.5-19.1,19.1c0,10.5,8.5,19,19.1,19c10.5,0,19.1-8.5,19.1-19
			C48.4,18.8,39.8,10.3,29.3,10.3z M29.3,45c-8.6,0-15.6-7-15.6-15.6c0-8.6,7-15.6,15.6-15.6c8.6,0,15.6,7,15.6,15.6
			C45,38,38,45,29.3,45z"/>
		<path fill="#84C88D" d="M29.3,10.3c-0.2,0-0.3,0-0.5,0v3.4c0.2,0,0.3,0,0.5,0c8.6,0,15.6,7,15.6,15.6C45,38,38,45,29.3,45
			c-0.2,0-0.4,0-0.5,0v3.4c0.2,0,0.3,0,0.5,0c10.5,0,19.1-8.5,19.1-19C48.4,18.8,39.8,10.3,29.3,10.3z"/>
		<path fill="#484F59" d="M74.5,58.6h-2.2c-0.5,0-1.1-0.4-1.2-0.9l-0.4-1c-0.2-0.5-0.1-1.1,0.2-1.5l1.5-1.5c0.4-0.4,0.4-0.9,0-1.3
			l-2.4-2.4c-0.4-0.4-0.9-0.4-1.3,0l-1.5,1.5c-0.4,0.4-1,0.5-1.5,0.2l-1-0.4c-0.5-0.2-0.9-0.7-0.9-1.2V48c0-0.5-0.4-0.9-0.9-0.9
			h-3.4c-0.5,0-0.9,0.4-0.9,0.9v2.2c0,0.5-0.4,1.1-0.9,1.2l-1,0.4c-0.5,0.2-1.1,0.1-1.5-0.2l-1.5-1.5c-0.4-0.4-0.9-0.4-1.3,0
			l-2.4,2.4c-0.4,0.4-0.4,0.9,0,1.3l1.5,1.5c0.4,0.4,0.5,1,0.2,1.5l-0.4,1c-0.2,0.5-0.7,0.9-1.2,0.9h-2.2c-0.5,0-0.9,0.4-0.9,0.9V63
			c0,0.5,0.4,0.9,0.9,0.9h2.2c0.5,0,1.1,0.4,1.2,0.9l0.4,1c0.2,0.5,0.1,1.1-0.2,1.5l-1.5,1.6c-0.4,0.4-0.4,0.9,0,1.3l2.4,2.4
			c0.4,0.4,0.9,0.4,1.3,0l1.5-1.5c0.4-0.4,1-0.5,1.5-0.2l1,0.4c0.5,0.2,0.9,0.7,0.9,1.2v2.2c0,0.5,0.4,0.9,0.9,0.9H63
			c0.5,0,0.9-0.4,0.9-0.9v-2.2c0-0.5,0.4-1.1,0.9-1.2l1-0.4c0.5-0.2,1.1-0.1,1.5,0.2l1.5,1.5c0.4,0.4,0.9,0.4,1.3,0l2.4-2.4
			c0.4-0.4,0.4-1,0-1.3L71,67.2c-0.4-0.4-0.5-1-0.2-1.5l0.4-1c0.2-0.5,0.7-0.9,1.2-0.9h2.2c0.5,0,0.9-0.4,0.9-0.9v-3.4
			C75.5,59.1,75,58.6,74.5,58.6z M61.3,65.7c-2.5,0-4.5-2-4.5-4.5c0-2.5,2-4.5,4.5-4.5c2.5,0,4.5,2,4.5,4.5
			C65.8,63.7,63.8,65.7,61.3,65.7z"/>
		<path fill="#5A6274" d="M61.4,65.7L61.4,65.7c-2.5,0-4.5-2-4.5-4.5c0-2.5,2-4.5,4.5-4.5h0v-9.7h-1.7c-0.5,0-0.9,0.4-0.9,0.9v2.2
			c0,0.5-0.4,1.1-0.9,1.2l-1,0.4c-0.5,0.2-1.1,0.1-1.5-0.2l-1.5-1.5c-0.4-0.4-0.9-0.4-1.3,0l-2.4,2.4c-0.4,0.4-0.4,0.9,0,1.3
			l1.5,1.5c0.4,0.4,0.5,1,0.2,1.5l-0.4,1c-0.2,0.5-0.7,0.9-1.2,0.9h-2.2c-0.5,0-0.9,0.4-0.9,0.9V63c0,0.5,0.4,0.9,0.9,0.9h2.2
			c0.5,0,1.1,0.4,1.2,0.9l0.4,1c0.2,0.5,0.1,1.1-0.2,1.5l-1.5,1.6c-0.4,0.4-0.4,0.9,0,1.3l2.4,2.4c0.4,0.4,0.9,0.4,1.3,0l1.5-1.5
			c0.4-0.4,1-0.5,1.5-0.2l1,0.4c0.5,0.2,0.9,0.7,0.9,1.2v2.2c0,0.5,0.4,0.9,0.9,0.9h1.7V65.7z"/>
	</g>
</g>
</svg>
