<?xml version="1.0" encoding="utf-8"?>
<!-- Generator: Adobe Illustrator 18.1.1, SVG Export Plug-In . SVG Version: 6.00 Build 0)  -->
<svg version="1.1" id="Layer_1" xmlns="http://www.w3.org/2000/svg" xmlns:xlink="http://www.w3.org/1999/xlink" x="0px" y="0px"
	 viewBox="0 0 86.6 46.3" enable-background="new 0 0 86.6 46.3" xml:space="preserve">
<g>
	<g>
		<path fill="#2C5871" d="M42.3,12.9c-4.3,0.9-8.6,1.9-12.9,2.8c-5.5,1.3-9.3,5.4-8.5,9.1c0.8,3.8,1.7,7.7,2.5,11.5
			c0.8,3.7,3.3,6.1,11.8,8.1c5.1,1.2,9.9,1.9,14.3,1.9L42.3,12.9z"/>
		<path fill="#0E303F" d="M42.3,12.9c4.3-0.9,8.6-1.9,12.9-2.8c5.6-1.1,10.7,1.1,11.5,4.8c0.8,3.8,1.7,7.7,2.5,11.5
			c0.8,3.7-0.4,6.9-7.4,12.3c-4.2,3.2-8.2,5.8-12.3,7.6L42.3,12.9z"/>
	</g>
	<path fill="#0E303F" d="M47.1,35L0.4,27.7l-0.2-1.9l86-18.5l0.4,1.7L47.1,35z"/>
	<path fill="#2C5871" d="M46.7,33.3L0,26L39.5,0l46.7,7.3L46.7,33.3z"/>
	<g>
		<path fill="#F3D97F" d="M73.9,28.7c-0.4,0-0.8-0.2-0.9-0.6l-2.2-10l-29.2-4.6c-0.5-0.1-0.8-0.5-0.7-0.9c0.1-0.4,0.5-0.8,0.9-0.7
			l29.7,4.7c0.3,0.1,0.6,0.3,0.7,0.6l2.3,10.6c0.1,0.4-0.2,0.9-0.6,1C74,28.7,73.9,28.7,73.9,28.7z"/>
	</g>
	<g>
		<path fill="#D7C070" d="M71,18.5c-0.1,0-0.1,0-0.2,0L43,14.1c-0.4-0.1-0.7-0.5-0.6-0.9c0.1-0.4,0.5-0.7,0.9-0.6l27.8,4.4
			c0.4,0.1,0.7,0.5,0.6,0.9C71.6,18.2,71.3,18.5,71,18.5z"/>
	</g>
	<path fill="#0E303F" d="M47.8,11.7c0.4,1.7-1.4,3.6-4,4.2c-2.6,0.6-5-0.4-5.3-2.2c-0.4-1.7,1.4-3.6,4-4.2
		C45.1,9,47.5,9.9,47.8,11.7z"/>
	<path fill="#2C5871" d="M46.9,11.2c0.3,1.3-1.6,2.8-4.2,3.4c-2.6,0.6-5-0.1-5.2-1.4c-0.3-1.3,1.6-2.8,4.2-3.4
		C44.3,9.3,46.6,9.9,46.9,11.2z"/>
	<g>
		<path fill="#F3D97F" d="M75.9,24.9c0.3,1.4-0.6,2.8-2,3.1c-1.4,0.3-2.8-0.6-3.1-2c-0.3-1.4,0.6-2.8,2-3.1
			C74.2,22.6,75.6,23.5,75.9,24.9z"/>
		<path fill="#F3D97F" d="M75.8,30.2c0.2,0.8-0.3,1.5-1.1,1.7l0,0c-0.8,0.2-1.5-0.3-1.7-1.1l-1.1-5c-0.2-0.8,0.3-1.5,1.1-1.7l0,0
			c0.8-0.2,1.5,0.3,1.7,1.1L75.8,30.2z"/>
		<path fill="#F3D97F" d="M81.1,39.4c-1.3-0.7-2-2.8-3.9-8.5c-0.5-1.3-1.8-2.3-3.1-2c0,0,0,0,0,0c0,0,0,0,0,0
			c-1.3,0.3-2.1,1.6-2,3.1c0.6,5.9,0.9,8.2,0,9.4c-0.1,1.4,2.3,2.5,5.1,1.9c0,0,0,0,0,0c0,0,0,0,0,0C80.1,42.6,81.7,40.6,81.1,39.4z
			"/>
	</g>
	<path fill="#D7C070" d="M73.8,32.7c-0.1-1,0.3-1.9,0.9-2.6L74.2,28c-0.9-0.3-1.6-1.1-1.8-2c-0.3-1.2,0.3-2.4,1.3-3.1
		c-0.3,0-0.6-0.1-1,0c-1.4,0.3-2.3,1.7-2,3.1c0.2,0.9,0.8,1.5,1.6,1.8l0.4,1.9C72.3,30.3,72,31.1,72,32c0.6,5.9,0.9,8.2,0,9.4
		c0,0.8,0.7,1.5,1.8,1.8C74.8,41.8,74.6,39.3,73.8,32.7z"/>
</g>
</svg>
