<?xml version="1.0" encoding="utf-8"?>
<!-- Generator: Adobe Illustrator 18.1.1, SVG Export Plug-In . SVG Version: 6.00 Build 0)  -->
<svg version="1.1" id="Layer_1" xmlns="http://www.w3.org/2000/svg" xmlns:xlink="http://www.w3.org/1999/xlink" x="0px" y="0px"
	 viewBox="0 0 79.9 79.9" enable-background="new 0 0 79.9 79.9" xml:space="preserve">
<g>
	<g>
		<path fill="#F3D97F" d="M79.9,40c0,22.1-17.9,40-40,40C17.9,79.9,0,62,0,40C0,17.9,17.9,0,40,0C62,0,79.9,17.9,79.9,40z"/>
		<path fill="#EFC967" d="M40,0c22.1,0,40,17.9,40,40c0,22.1-17.9,40-40,40V0z"/>
		<path fill="#FFFFFF" d="M71,40C71,57.1,57.1,71,40,71C22.8,71,8.9,57.1,8.9,40C8.9,22.8,22.8,8.9,40,8.9C57.1,8.9,71,22.8,71,40z"
			/>
		<path fill="#D0EAF9" d="M12.2,42.2c0-17.2,13.9-31.1,31.1-31.1c5.7,0,11,1.5,15.5,4.2c-5.2-4-11.8-6.4-18.9-6.4
			C22.8,8.9,8.9,22.8,8.9,40c0,11.5,6.3,21.6,15.6,26.9C17,61.2,12.2,52.3,12.2,42.2z"/>
		<path fill="#154F78" d="M45.5,40c0,3.1-2.5,5.6-5.6,5.6c-3.1,0-5.6-2.5-5.6-5.6c0-3.1,2.5-5.5,5.6-5.5C43,34.4,45.5,36.9,45.5,40z
			"/>
		<g>
			<g>
				<path fill="#154F78" d="M40,41.4c-0.8,0-1.5-0.7-1.5-1.5v-22c0-0.8,0.7-1.5,1.5-1.5c0.8,0,1.5,0.7,1.5,1.5v22
					C41.4,40.8,40.8,41.4,40,41.4L40,41.4z"/>
			</g>
			<g>
				<g>
					<path fill="#154F78" d="M53.2,17.8c-0.1,0-0.3,0-0.4-0.1c-0.4-0.2-0.5-0.7-0.3-1l0.9-1.5c0.2-0.4,0.7-0.5,1-0.3
						c0.3,0.2,0.5,0.7,0.3,1l-0.9,1.5C53.7,17.7,53.4,17.8,53.2,17.8L53.2,17.8z"/>
				</g>
				<g>
					<path fill="#154F78" d="M25.9,65.1c-0.1,0-0.3,0-0.4-0.1c-0.4-0.2-0.5-0.7-0.3-1l0.9-1.5c0.2-0.4,0.7-0.5,1-0.3
						c0.4,0.2,0.5,0.7,0.3,1l-0.8,1.5C26.4,65,26.1,65.1,25.9,65.1L25.9,65.1z"/>
				</g>
				<g>
					<path fill="#154F78" d="M64.3,54.8c-0.1,0-0.2,0-0.4-0.1l-1.5-0.8c-0.3-0.2-0.5-0.7-0.3-1c0.2-0.4,0.7-0.5,1-0.3l1.5,0.8
						c0.4,0.2,0.5,0.7,0.3,1C64.8,54.6,64.6,54.8,64.3,54.8L64.3,54.8z"/>
				</g>
				<g>
					<path fill="#154F78" d="M17.1,27.5c-0.1,0-0.3,0-0.4-0.1l-1.5-0.9c-0.4-0.2-0.5-0.7-0.3-1c0.2-0.4,0.7-0.5,1-0.3l1.5,0.9
						c0.4,0.2,0.5,0.7,0.3,1C17.6,27.4,17.3,27.5,17.1,27.5L17.1,27.5z"/>
				</g>
			</g>
			<g>
				<g>
					<path fill="#154F78" d="M26.8,17.8c-0.3,0-0.5-0.1-0.6-0.4L25.3,16c-0.2-0.3-0.1-0.8,0.3-1c0.4-0.2,0.8-0.1,1,0.3l0.8,1.5
						c0.2,0.4,0.1,0.8-0.3,1C27,17.8,26.9,17.8,26.8,17.8L26.8,17.8z"/>
				</g>
				<g>
					<path fill="#154F78" d="M54.1,65.1c-0.3,0-0.5-0.1-0.6-0.4l-0.9-1.5c-0.2-0.4-0.1-0.8,0.3-1c0.4-0.2,0.8-0.1,1,0.3l0.9,1.5
						c0.2,0.4,0.1,0.8-0.3,1C54.3,65.1,54.2,65.1,54.1,65.1L54.1,65.1z"/>
				</g>
				<g>
					<path fill="#154F78" d="M15.6,54.8c-0.3,0-0.5-0.1-0.6-0.4c-0.2-0.4-0.1-0.8,0.3-1l1.5-0.9c0.4-0.2,0.8-0.1,1,0.3
						c0.2,0.3,0.1,0.8-0.3,1L16,54.7C15.8,54.7,15.7,54.8,15.6,54.8L15.6,54.8z"/>
				</g>
				<g>
					<path fill="#154F78" d="M62.9,27.5c-0.3,0-0.5-0.1-0.6-0.4c-0.2-0.4-0.1-0.8,0.3-1l1.5-0.9c0.3-0.2,0.8-0.1,1,0.3
						c0.2,0.4,0.1,0.8-0.3,1l-1.5,0.9C63.1,27.5,63,27.5,62.9,27.5L62.9,27.5z"/>
				</g>
			</g>
			<g>
				<g>
					<path fill="#154F78" d="M13.5,40.7L13.5,40.7l-1.7,0c-0.4,0-0.7-0.3-0.7-0.7c0-0.4,0.3-0.7,0.7-0.7l0,0h1.7
						c0.4,0,0.7,0.3,0.7,0.7C14.3,40.4,13.9,40.7,13.5,40.7L13.5,40.7z"/>
				</g>
				<g>
					<path fill="#154F78" d="M66.4,40.7c-0.4,0-0.7-0.3-0.7-0.7c0-0.4,0.3-0.7,0.7-0.7l1.7,0h0c0.4,0,0.7,0.3,0.7,0.7
						c0,0.4-0.3,0.7-0.7,0.7L66.4,40.7L66.4,40.7L66.4,40.7z"/>
				</g>
				<g>
					<path fill="#154F78" d="M40,68.9L40,68.9c-0.4,0-0.7-0.3-0.7-0.7l0-1.7c0-0.4,0.3-0.7,0.7-0.7l0,0c0.4,0,0.7,0.3,0.7,0.7l0,1.7
						C40.7,68.5,40.4,68.9,40,68.9L40,68.9z"/>
				</g>
				<g>
					<path fill="#154F78" d="M40,14.3c-0.4,0-0.7-0.3-0.7-0.7v-1.7c0-0.4,0.3-0.7,0.7-0.7c0.4,0,0.7,0.3,0.7,0.7v1.7
						C40.7,13.9,40.4,14.3,40,14.3L40,14.3z"/>
				</g>
			</g>
			<g>
				<path fill="#154F78" d="M30.3,51.1c-0.4,0-0.8-0.1-1-0.4c-0.6-0.6-0.6-1.5,0-2.1l9.3-9.3c0.6-0.6,1.5-0.6,2.1,0
					c0.6,0.6,0.6,1.5,0,2.1l-9.3,9.3C31.1,50.9,30.7,51.1,30.3,51.1L30.3,51.1z"/>
			</g>
		</g>
		<path fill="#FFFFFF" d="M43.4,40c0,1.9-1.5,3.4-3.4,3.4c-1.9,0-3.4-1.5-3.4-3.4c0-1.9,1.5-3.4,3.4-3.4
			C41.9,36.5,43.4,38.1,43.4,40z"/>
		<circle fill="#F16228" cx="40" cy="40" r="1.7"/>
		<g>
			<path fill="#F16228" d="M40,40.7c-0.3,0-0.6-0.2-0.7-0.5c-0.1-0.4,0.1-0.8,0.5-0.9L59,33.5c0.4-0.1,0.8,0.1,0.9,0.5
				c0.1,0.4-0.1,0.8-0.5,0.9l-19.2,5.8C40.1,40.7,40,40.7,40,40.7L40,40.7z"/>
		</g>
	</g>
</g>
</svg>
