<?xml version="1.0" encoding="utf-8"?>
<!-- Generator: Adobe Illustrator 18.1.1, SVG Export Plug-In . SVG Version: 6.00 Build 0)  -->
<svg version="1.1" id="Layer_1" xmlns="http://www.w3.org/2000/svg" xmlns:xlink="http://www.w3.org/1999/xlink" x="0px" y="0px"
	 viewBox="0 0 89.9 83.5" enable-background="new 0 0 89.9 83.5" xml:space="preserve">
<g>
	<g>
		<g>
			<g>
				<path fill="#8FC3D5" d="M82.6,45.3c0-0.4,0.1-0.8,0.1-1.2c0-0.6,0-1.3,0-1.9c0-0.7,0-1.3,0-2c0-0.4-0.1-0.8-0.1-1.2
					c0-0.2,0-0.4,0-0.6c-1.9-21-19.7-37.6-41.2-37.6c-20.9,0-38.2,15.6-41,35.8c0,0,0,0.1,0,0.2c-0.1,0.5-0.1,1.1-0.2,1.6
					c0,0.3,0,0.5-0.1,0.8c0,0.4-0.1,0.7-0.1,1.1c0,0.7-0.1,1.3-0.1,2c0,0.6,0,1.3,0.1,2c0,0.4,0,0.7,0.1,1.1c0,0.2,0,0.5,0.1,0.8
					c0,0.5,0.1,1.1,0.2,1.6c0,0.1,0,0.1,0,0.2c2.7,20.2,20.1,35.8,41,35.8c21.5,0,39.3-16.5,41.2-37.6
					C82.6,45.7,82.6,45.5,82.6,45.3z"/>
				<path fill="#A6D9E8" d="M41.4,0.7c-20.9,0-38.2,15.6-41,35.8c0,0,0,0.1,0,0.2c-0.1,0.5-0.1,1.1-0.2,1.6c0,0.3,0,0.5-0.1,0.8
					c0,0.4-0.1,0.7-0.1,1.1c0,0.7-0.1,1.3-0.1,2c0,0.6,0,1.3,0.1,2c0,0.4,0,0.7,0.1,1.1c0,0.2,0,0.5,0.1,0.8c0,0.5,0.1,1.1,0.2,1.6
					c0,0.1,0,0.1,0,0.2c2.7,20.2,20.1,35.8,41,35.8V0.7z"/>
				<g>
					<path fill="#D0EAF9" d="M75.1,59c-0.1,0.3-0.3,0.6-0.4,0.8c-0.1,0.2-0.3,0.5-0.4,0.8c-0.2,0.3-0.3,0.5-0.5,0.8
						c-0.1,0.2-0.3,0.5-0.4,0.7c-0.2,0.3-0.3,0.5-0.5,0.8c-0.2,0.2-0.3,0.5-0.5,0.7c-0.2,0.3-0.4,0.5-0.5,0.8
						c-0.2,0.2-0.3,0.5-0.5,0.7c-0.2,0.2-0.4,0.5-0.6,0.7c-0.2,0.2-0.4,0.4-0.5,0.7c-0.2,0.2-0.4,0.5-0.6,0.7
						c-0.2,0.2-0.4,0.4-0.6,0.6c-0.2,0.2-0.4,0.5-0.6,0.7c-0.2,0.2-0.4,0.4-0.6,0.6c-0.2,0.2-0.5,0.4-0.7,0.7
						c-0.2,0.2-0.4,0.4-0.6,0.6c-0.2,0.2-0.5,0.4-0.7,0.6c-0.2,0.2-0.4,0.4-0.6,0.5c-0.2,0.2-0.5,0.4-0.7,0.6
						c-0.2,0.2-0.4,0.3-0.7,0.5c-0.3,0.2-0.5,0.4-0.8,0.6c-0.2,0.2-0.5,0.3-0.7,0.5c-0.3,0.2-0.5,0.3-0.8,0.5
						c-0.2,0.1-0.5,0.3-0.7,0.4c-0.3,0.2-0.6,0.3-0.8,0.5c-0.2,0.1-0.5,0.3-0.7,0.4c-0.3,0.2-0.6,0.3-0.9,0.5
						c-0.2,0.1-0.5,0.2-0.7,0.4c-0.3,0.1-0.6,0.3-0.9,0.4c-0.2,0.1-0.5,0.2-0.7,0.3c-0.3,0.1-0.6,0.3-0.9,0.4
						c-0.2,0.1-0.5,0.2-0.7,0.3c-0.1,0-0.1,0-0.2,0.1c4.6-4.6,8.2-11.5,10.2-19.8h11.4c-0.1,0.1-0.1,0.2-0.2,0.4
						C75.3,58.5,75.2,58.7,75.1,59z"/>
					<path fill="#D0EAF9" d="M54.9,6.9c0.3,0.1,0.6,0.2,0.9,0.4c0.2,0.1,0.5,0.2,0.7,0.3c0.3,0.1,0.6,0.3,0.9,0.4
						c0.2,0.1,0.5,0.2,0.7,0.4c0.3,0.2,0.6,0.3,0.9,0.5c0.2,0.1,0.5,0.3,0.7,0.4c0.3,0.2,0.6,0.3,0.8,0.5c0.2,0.1,0.5,0.3,0.7,0.4
						c0.3,0.2,0.5,0.3,0.8,0.5c0.2,0.2,0.5,0.3,0.7,0.5c0.3,0.2,0.5,0.4,0.8,0.6c0.2,0.2,0.4,0.3,0.7,0.5c0.3,0.2,0.5,0.4,0.7,0.6
						c0.2,0.2,0.4,0.4,0.6,0.5c0.2,0.2,0.5,0.4,0.7,0.6c0.2,0.2,0.4,0.4,0.6,0.6c0.2,0.2,0.5,0.4,0.7,0.6c0.2,0.2,0.4,0.4,0.6,0.6
						c0.2,0.2,0.4,0.4,0.6,0.7c0.2,0.2,0.4,0.4,0.6,0.6c0.2,0.2,0.4,0.5,0.6,0.7c0.2,0.2,0.4,0.4,0.5,0.7c0.2,0.2,0.4,0.5,0.6,0.7
						c0.2,0.2,0.4,0.5,0.5,0.7c0.2,0.3,0.4,0.5,0.5,0.8c0.2,0.2,0.3,0.5,0.5,0.7c0.2,0.3,0.3,0.5,0.5,0.8c0.2,0.2,0.3,0.5,0.4,0.7
						c0.2,0.3,0.3,0.5,0.5,0.8c0.1,0.3,0.3,0.5,0.4,0.8c0.1,0.3,0.3,0.6,0.4,0.8c0.1,0.3,0.3,0.5,0.4,0.8c0.1,0.1,0.1,0.2,0.2,0.4
						H64.2c-2-8.3-5.7-15.2-10.2-19.8c0.1,0,0.1,0,0.2,0.1C54.4,6.7,54.6,6.8,54.9,6.9z"/>
					<path fill="#D0EAF9" d="M62.4,42.1c0,4.2-0.4,8.3-1.1,12.1H43.2V30h18.1C62,33.8,62.4,37.9,62.4,42.1z"/>
					<path fill="#D0EAF9" d="M60.5,57.9c-3.1,12-9.6,20.6-17.3,21.8V57.9H60.5z"/>
					<path fill="#D0EAF9" d="M43.2,26.3V4.5c7.7,1.2,14.2,9.8,17.3,21.8H43.2z"/>
					<path fill="#D0EAF9" d="M79,43.8c0,0.3,0,0.6-0.1,0.9c0,0.2,0,0.5-0.1,0.7c0,0.4-0.1,0.8-0.1,1.3c0,0,0,0,0,0.1
						c-0.3,2.5-0.9,5-1.7,7.5H65c0.7-3.8,1.1-7.9,1.1-12.1c0-4.2-0.4-8.3-1.1-12.1H77c0.8,2.4,1.4,5,1.7,7.5c0,0,0,0.1,0,0.1
						c0.1,0.4,0.1,0.8,0.1,1.2c0,0.2,0,0.5,0.1,0.7c0,0.3,0,0.6,0.1,0.8c0,0.6,0,1.1,0,1.7C79.1,42.7,79.1,43.2,79,43.8z"/>
				</g>
				<g>
					<path fill="#FFFFFF" d="M3.9,46.8c0-0.1,0-0.2,0-0.2c-0.1-0.4-0.1-0.8-0.1-1.2c0-0.3,0-0.5-0.1-0.8c0-0.3,0-0.5-0.1-0.8
						c0-0.6,0-1.1,0-1.7c0-0.6,0-1.2,0-1.7c0-0.3,0-0.5,0.1-0.8c0-0.3,0-0.5,0.1-0.8c0-0.4,0.1-0.8,0.1-1.1c0-0.1,0-0.2,0-0.2
						c0.3-2.5,0.9-5,1.7-7.4h12.1c-0.7,3.8-1.1,7.9-1.1,12.1c0,4.2,0.4,8.3,1.1,12.1H5.7C4.8,51.8,4.3,49.3,3.9,46.8z"/>
					<path fill="#FFFFFF" d="M20.3,42.1c0-4.2,0.4-8.3,1.1-12.1h18.1v24.2H21.4C20.7,50.4,20.3,46.3,20.3,42.1z"/>
					<path fill="#FFFFFF" d="M39.5,4.5v21.8H22.2C25.3,14.3,31.9,5.7,39.5,4.5z"/>
					<path fill="#FFFFFF" d="M39.5,57.9v21.8c-7.7-1.2-14.2-9.8-17.3-21.8H39.5z"/>
					<path fill="#FFFFFF" d="M28.8,6.5c-4.6,4.6-8.2,11.5-10.2,19.8H7.1C11.3,17.2,19.2,10,28.8,6.5z"/>
					<path fill="#FFFFFF" d="M7.1,57.9h11.4c2,8.3,5.7,15.2,10.2,19.8C19.2,74.2,11.3,67,7.1,57.9z"/>
				</g>
			</g>
		</g>
		<g>
			<g>
				<path fill="#484F59" d="M88.5,22.7h-3.3c-0.2-1.2-0.6-2.3-1-3.4l2.8-1.6c0.7-0.4,0.9-1.2,0.5-1.9l-2.8-4.8
					c-0.4-0.7-1.2-0.9-1.9-0.5L79.9,12c-0.8-0.9-1.6-1.7-2.5-2.5L79,6.8c0.4-0.7,0.2-1.5-0.5-1.9l-4.8-2.8c-0.7-0.4-1.5-0.2-1.9,0.5
					l-1.7,2.9c-1.1-0.4-2.3-0.7-3.4-0.9V1.4c0-0.8-0.6-1.4-1.4-1.4h-5.6c-0.8,0-1.4,0.6-1.4,1.4v3.3c-1.2,0.2-2.3,0.6-3.4,1
					l-1.6-2.8C52.9,2.2,52,2,51.4,2.4l-4.8,2.8c-0.7,0.4-0.9,1.2-0.5,1.9l1.7,2.9c-0.9,0.8-1.7,1.6-2.5,2.5l-2.8-1.6
					c-0.7-0.4-1.5-0.2-1.9,0.5l-2.8,4.8c-0.4,0.7-0.2,1.5,0.5,1.9l2.9,1.7c-0.4,1.1-0.7,2.3-0.9,3.4H37c-0.8,0-1.4,0.6-1.4,1.4v5.6
					c0,0.8,0.6,1.4,1.4,1.4h3.3c0.2,1.2,0.6,2.3,1,3.4l-2.8,1.6c-0.7,0.4-0.9,1.2-0.5,1.9l2.8,4.8c0.4,0.7,1.2,0.9,1.9,0.5l2.9-1.7
					c0.8,0.9,1.6,1.7,2.5,2.5l-1.6,2.8c-0.4,0.7-0.2,1.5,0.5,1.9l4.8,2.8c0.7,0.4,1.5,0.2,1.9-0.5l1.7-2.9c1.1,0.4,2.3,0.7,3.4,0.9
					v3.2c0,0.8,0.6,1.4,1.4,1.4l5.6,0c0.8,0,1.4-0.6,1.4-1.4v-3.3c1.2-0.2,2.3-0.6,3.4-1l1.6,2.8c0.4,0.7,1.2,0.9,1.9,0.5l4.8-2.8
					c0.7-0.4,0.9-1.2,0.5-1.9l-1.7-2.9c0.9-0.8,1.7-1.6,2.5-2.5l2.8,1.6c0.7,0.4,1.5,0.2,1.9-0.5l2.8-4.8c0.4-0.7,0.2-1.5-0.5-1.9
					l-2.9-1.7c0.4-1.1,0.7-2.3,0.9-3.4h3.2c0.8,0,1.4-0.6,1.4-1.4V24C89.9,23.3,89.3,22.7,88.5,22.7z M62.8,38.3
					c-6.2,0-11.1-5-11.1-11.1c0-6.2,5-11.1,11.1-11.1c6.2,0,11.1,5,11.1,11.1C73.9,33.3,69,38.3,62.8,38.3z"/>
				<path fill="#5A6274" d="M62.3,41.6c-7.8-0.3-14-6.6-14-14.5c0-7.8,6.2-14.2,14-14.5V0h-2.6c-0.8,0-1.4,0.6-1.4,1.4v3.3
					c-1.2,0.2-2.3,0.6-3.4,1l-1.6-2.8C52.9,2.2,52,2,51.4,2.4l-4.8,2.8c-0.7,0.4-0.9,1.2-0.5,1.9l1.7,2.9c-0.9,0.8-1.7,1.6-2.5,2.5
					l-2.8-1.6c-0.7-0.4-1.5-0.2-1.9,0.5l-2.8,4.8c-0.4,0.7-0.2,1.5,0.5,1.9l2.9,1.7c-0.4,1.1-0.7,2.3-0.9,3.4H37
					c-0.8,0-1.4,0.6-1.4,1.4v5.6c0,0.8,0.6,1.4,1.4,1.4h3.3c0.2,1.2,0.6,2.3,1,3.4l-2.8,1.6c-0.7,0.4-0.9,1.2-0.5,1.9l2.8,4.8
					c0.4,0.7,1.2,0.9,1.9,0.5l2.9-1.7c0.8,0.9,1.6,1.7,2.5,2.5l-1.6,2.8c-0.4,0.7-0.2,1.5,0.5,1.9l4.8,2.8c0.7,0.4,1.5,0.2,1.9-0.5
					l1.7-2.9c1.1,0.4,2.3,0.7,3.4,0.9v3.2c0,0.8,0.6,1.4,1.4,1.4h2V41.6z"/>
				<path fill="#484F59" d="M62.8,9.5c-9.7,0-17.6,7.9-17.6,17.6c0,9.7,7.9,17.6,17.6,17.6c9.7,0,17.6-7.9,17.6-17.6
					C80.4,17.4,72.5,9.5,62.8,9.5z M62.8,41.6c-8,0-14.5-6.5-14.5-14.5c0-8,6.5-14.5,14.5-14.5c8,0,14.5,6.5,14.5,14.5
					C77.3,35.1,70.8,41.6,62.8,41.6z"/>
				<path fill="#5A6274" d="M62.8,9.5c-0.2,0-0.3,0-0.5,0v3.2c0.2,0,0.3,0,0.5,0c8,0,14.5,6.5,14.5,14.5c0,8-6.5,14.5-14.5,14.5
					c-0.2,0-0.3,0-0.5,0v3.2c0.2,0,0.3,0,0.5,0c9.7,0,17.6-7.9,17.6-17.6C80.4,17.4,72.5,9.5,62.8,9.5z"/>
				<path fill="#5A6274" d="M62.8,12.4c-0.1,0-0.3,0-0.4,0V15c0.1,0,0.3,0,0.4,0c6.7,0,12.1,5.4,12.1,12.1c0,6.7-5.4,12.1-12.1,12.1
					c-0.1,0-0.3,0-0.4,0v2.6c0.1,0,0.3,0,0.4,0c8.2,0,14.8-6.6,14.8-14.8S71,12.4,62.8,12.4z"/>
			</g>
		</g>
	</g>
</g>
</svg>
