<?xml version="1.0" encoding="utf-8"?>
<!-- Generator: Adobe Illustrator 18.1.1, SVG Export Plug-In . SVG Version: 6.00 Build 0)  -->
<svg version="1.1" id="Layer_1" xmlns="http://www.w3.org/2000/svg" xmlns:xlink="http://www.w3.org/1999/xlink" x="0px" y="0px"
	 viewBox="0 0 52.4 45.4" enable-background="new 0 0 52.4 45.4" xml:space="preserve">
<g>
	<g>
		<path fill="#5A6274" d="M52.4,33.1c-13.8,6-28,10.1-42.9,12.3C3.9,35.1,0.7,24,0,12.3C13.8,6.3,28,2.2,42.9,0
			C48.5,10.3,51.6,21.4,52.4,33.1z"/>
		<path fill="#484F59" d="M9.5,45.4c14.8-2.2,29.1-6.3,42.9-12.3C52,27.2,51,21.5,49.4,16L2.9,29.3C4.5,34.9,6.7,40.2,9.5,45.4z"/>
		<path fill="#FFFFFF" d="M34.7,19.2c1,0.3,1.2,1.1,0.5,1.9L25.1,32.5c-0.7,0.8-1.5,0.5-1.8-0.5l-4.5-15.6C18.5,15.4,19,14.7,20,15
			L34.7,19.2z"/>
		<path fill="#DBE3E5" d="M23.3,32c0.3,1,1.1,1.3,1.8,0.5l10.2-11.4c0.4-0.4,0.5-0.8,0.3-1.2L21,24.1L23.3,32z"/>
	</g>
</g>
</svg>
