<?xml version="1.0" encoding="utf-8"?>
<!-- Generator: Adobe Illustrator 18.1.1, SVG Export Plug-In . SVG Version: 6.00 Build 0)  -->
<svg version="1.1" id="Layer_1" xmlns="http://www.w3.org/2000/svg" xmlns:xlink="http://www.w3.org/1999/xlink" x="0px" y="0px"
	 viewBox="0 0 797.2 457.2" enable-background="new 0 0 797.2 457.2" xml:space="preserve">
<g>
	<path fill="#484F59" d="M79.1,422.7H718h16.7v-406C734.7,7.6,727.3,0,718,0H79.1c-9.3,0-16.7,7.6-16.7,16.7v406H79.1z"/>
	<rect x="104.1" y="40.2" fill="#33C5F3" width="589" height="341.3"/>
	<polygon fill="#05BDE9" points="693.1,40.2 693.1,381.6 104.1,381.6 	"/>
	<path fill="#FFFFFF" d="M796.7,419.9H0.4c-0.1,1.4-0.4,2.6-0.4,4v12.1c0,20,16.2,21.2,36.3,21.2h724.6c19.9,0,36.3-1.2,36.3-21.2
		v-12.1C797.2,422.5,796.8,421.3,796.7,419.9z"/>
	<path fill="#DBE3E5" d="M313.4,419.9c0.4,10.5,3.6,15,7.6,15h155.1c4,0,7.2-4.5,7.6-15H313.4z"/>
</g>
</svg>
