<?xml version="1.0" encoding="utf-8"?>
<!-- Generator: Adobe Illustrator 18.1.1, SVG Export Plug-In . SVG Version: 6.00 Build 0)  -->
<svg version="1.1" id="Layer_1" xmlns="http://www.w3.org/2000/svg" xmlns:xlink="http://www.w3.org/1999/xlink" x="0px" y="0px"
	 viewBox="0 0 466.8 468.6" enable-background="new 0 0 466.8 468.6" xml:space="preserve">
<g>
	<g>
		<g>
			<g>
				<path fill="#5A6274" d="M186,459.6c-2.5,0-4.5,2-4.5,4.5c0,2.5,2,4.5,4.5,4.5h94.8c2.5,0,4.5-2,4.5-4.5c0-2.5-2-4.5-4.5-4.5H186
					L186,459.6z"/>
			</g>
		</g>
		<path fill="#E1D21F" d="M115.3,227.7c0-65.2,52.9-118.1,118.1-118.1c65.3,0,118.1,52.9,118.1,118.1c0,3.9-2.8,58.5-47.3,115.8
			c-13,17.3-10.9,52.1-10.8,52.1c-18.3,0-33.3,0-51.7,0c-5.6,0-11.2,0-16.8,0c-18.3,0-33.6,0-51.9,0c0.1,0,2.5-34.8-10.5-52.1
			C118.1,286.1,115.3,231.6,115.3,227.7z"/>
		<path fill="#F9EC31" d="M233.4,395.5c-18.3,0-42,0-60.3,0c0.1,0,2.5-34.8-10.5-52.1c-44.5-57.3-47.3-111.9-47.3-115.8
			c0-65.2,52.9-118.1,118.1-118.1"/>
		<g>
			<path fill="#F9EC31" d="M326.4,227.7H316c0-45.6-37.1-82.6-82.6-82.6v-10.4C284.7,134.7,326.4,176.4,326.4,227.7L326.4,227.7z"/>
		</g>
		<g>
			<g>
				<g>
					<polygon fill="#30363D" points="259.2,404.8 249,403 269.2,280.9 279.4,282.6 259.2,404.8 					"/>
				</g>
				<g>
					<polygon fill="#30363D" points="207.6,404.8 187.4,282.6 197.7,280.9 217.8,403 207.6,404.8 					"/>
				</g>
			</g>
			<g>
				<path fill="#30363D" d="M273.6,298.1c-4.2,0-6.1-4.1-7.4-7.1c-0.6-1.3-1.8-3.9-2.4-3.9c-0.6,0.2-1.4,2.3-1.8,3.4
					c-1.2,3-3,7.6-8,7.6c-2.9,0-4.7-2.9-6.7-6.4c-0.8-1.3-2.1-3.5-3-4.3c-0.7,0.8-1.8,2.6-2.5,3.7c-2.2,3.6-4.2,7-7.5,7
					c-3.2,0-5.2-3.3-7.3-6.8c-0.7-1.2-1.8-3.1-2.6-3.9c-0.8,0.9-2,2.8-2.7,4.1c-2.1,3.5-4,6.7-7.1,6.7c-3.5,0-5.7-3.7-7.8-7.3
					c-0.7-1.2-1.7-3-2.4-3.6c-0.9,0.3-1.5,1.6-2.5,4.1c-1.2,2.9-2.7,6.8-6.9,6.8v-5.5c0.6-0.2,1.4-2.3,1.8-3.4c1.2-3,3-7.6,8-7.6
					c2.9,0,4.7,2.9,6.7,6.4c0.8,1.3,2.1,3.5,3,4.4c0.7-0.8,1.8-2.6,2.4-3.7c2.1-3.6,4.2-7,7.5-7c3.2,0,5.2,3.3,7.3,6.8
					c0.7,1.2,1.8,3.1,2.6,3.9c0.8-0.9,2-2.8,2.7-4.1c2-3.4,4-6.7,7.1-6.7c3.5,0,5.7,3.7,7.8,7.3c0.7,1.2,1.7,2.9,2.4,3.6
					c0.8-0.3,1.4-1.6,2.4-4.1c1.2-2.9,2.7-6.9,6.9-6.9c4.2,0,6.1,4.1,7.4,7.1c0.6,1.3,1.7,3.9,2.4,3.9V298.1L273.6,298.1z"/>
			</g>
		</g>
		<path fill="#30363D" d="M293.6,395.6v61.8c0,4.2-3.4,7.7-7.7,7.7H181.1c-4.2,0-7.7-3.4-7.7-7.7v-61.8H293.6z"/>
		<g>
			<g>
				<line fill="#0F3754" x1="296" y1="401.5" x2="170.9" y2="401.5"/>
				<path fill="#5A6274" d="M296,407.6H170.9c-3.4,0-6.1-2.7-6.1-6.1c0-3.3,2.7-6.1,6.1-6.1H296c3.4,0,6.1,2.7,6.1,6.1
					C302,404.9,299.3,407.6,296,407.6L296,407.6z"/>
			</g>
			<g>
				<line fill="#30363D" x1="296" y1="421.7" x2="170.9" y2="421.7"/>
				<path fill="#5A6274" d="M296,427.8H170.9c-3.4,0-6.1-2.7-6.1-6c0-3.4,2.7-6.1,6.1-6.1H296c3.4,0,6.1,2.7,6.1,6.1
					C302,425.1,299.3,427.8,296,427.8L296,427.8z"/>
			</g>
			<g>
				<line fill="#30363D" x1="296" y1="441.9" x2="170.9" y2="441.9"/>
				<path fill="#5A6274" d="M296,447.9H170.9c-3.4,0-6.1-2.7-6.1-6.1c0-3.3,2.7-6.1,6.1-6.1H296c3.4,0,6.1,2.7,6.1,6.1
					C302,445.3,299.3,447.9,296,447.9L296,447.9z"/>
			</g>
		</g>
	</g>
	<g>
		<g>
			<g>
				<path fill="#F1F9FA" d="M233.4,71c-1.7,0-3.1-1.4-3.1-3.1V3.1c0-1.7,1.4-3.1,3.1-3.1c1.7,0,3.1,1.4,3.1,3.1V68
					C236.4,69.7,235.1,71,233.4,71z"/>
			</g>
			<g>
				<path fill="#F1F9FA" d="M150.6,93.2c-1.1,0-2.1-0.6-2.7-1.5l-32.4-56.2c-0.9-1.5-0.3-3.4,1.1-4.2c1.5-0.8,3.4-0.3,4.2,1.1
					l32.4,56.2c0.9,1.5,0.3,3.4-1.1,4.2C151.7,93.1,151.2,93.2,150.6,93.2z"/>
			</g>
			<g>
				<path fill="#F1F9FA" d="M90.1,153.8c-0.5,0-1.1-0.1-1.5-0.4L32.4,121c-1.5-0.9-2-2.7-1.1-4.2c0.9-1.5,2.7-2,4.2-1.1l56.2,32.4
					c1.5,0.9,2,2.7,1.1,4.2C92.2,153.3,91.2,153.8,90.1,153.8z"/>
			</g>
			<g>
				<path fill="#F1F9FA" d="M68,236.5H3.1c-1.7,0-3.1-1.4-3.1-3.1c0-1.7,1.4-3.1,3.1-3.1H68c1.7,0,3.1,1.4,3.1,3.1
					C71.1,235.2,69.7,236.5,68,236.5z"/>
			</g>
			<g>
				<path fill="#F1F9FA" d="M432.9,351.6c-0.5,0-1.1-0.1-1.5-0.4l-56.2-32.5c-1.5-0.9-2-2.7-1.1-4.2c0.9-1.5,2.7-2,4.2-1.1
					l56.2,32.5c1.5,0.9,2,2.7,1.1,4.2C435,351.1,434,351.6,432.9,351.6z"/>
			</g>
			<g>
				<path fill="#F1F9FA" d="M463.7,236.4h-64.9c-1.7,0-3.1-1.4-3.1-3.1c0-1.7,1.4-3.1,3.1-3.1h64.9c1.7,0,3.1,1.4,3.1,3.1
					C466.8,235.1,465.4,236.4,463.7,236.4z"/>
			</g>
			<g>
				<path fill="#F1F9FA" d="M376.7,153.7c-1.1,0-2.1-0.6-2.7-1.5c-0.9-1.5-0.3-3.4,1.1-4.2l56.2-32.4c1.5-0.8,3.4-0.3,4.2,1.1
					c0.9,1.5,0.3,3.4-1.1,4.2l-56.2,32.4C377.7,153.6,377.2,153.7,376.7,153.7z"/>
			</g>
			<g>
				<path fill="#F1F9FA" d="M316.1,93.2c-0.5,0-1.1-0.1-1.5-0.4c-1.5-0.9-2-2.7-1.1-4.2l32.5-56.2c0.9-1.5,2.7-2,4.2-1.1
					c1.5,0.9,2,2.7,1.1,4.2l-32.5,56.2C318.2,92.6,317.2,93.2,316.1,93.2z"/>
			</g>
			<g>
				<path fill="#F1F9FA" d="M233.4,71c-1.7,0-3.1-1.4-3.1-3.1V3.1c0-1.7,1.4-3.1,3.1-3.1c1.7,0,3.1,1.4,3.1,3.1V68
					C236.4,69.7,235.1,71,233.4,71z"/>
			</g>
		</g>
		<g>
			<g>
				<path fill="#F1F9FA" d="M233.5,71c-1.7,0-3.1-1.4-3.1-3.1V3.1c0-1.7,1.4-3.1,3.1-3.1c1.7,0,3.1,1.4,3.1,3.1V68
					C236.5,69.7,235.2,71,233.5,71z"/>
			</g>
			<g>
				<path fill="#F1F9FA" d="M316.2,93.2c-0.5,0-1.1-0.1-1.5-0.4c-1.5-0.9-2-2.7-1.1-4.2L346,32.4c0.9-1.5,2.7-2,4.2-1.1
					c1.5,0.9,2,2.7,1.1,4.2l-32.5,56.2C318.3,92.7,317.2,93.2,316.2,93.2z"/>
			</g>
			<g>
				<path fill="#F1F9FA" d="M376.7,153.8c-1.1,0-2.1-0.6-2.7-1.5c-0.9-1.5-0.3-3.4,1.1-4.2l56.2-32.4c1.5-0.8,3.4-0.3,4.2,1.1
					c0.9,1.5,0.3,3.4-1.1,4.2l-56.2,32.4C377.8,153.7,377.2,153.8,376.7,153.8z"/>
			</g>
			<g>
				<path fill="#F1F9FA" d="M463.7,236.5h-64.9c-1.7,0-3.1-1.4-3.1-3.1c0-1.7,1.4-3.1,3.1-3.1h64.9c1.7,0,3.1,1.4,3.1,3.1
					C466.8,235.2,465.4,236.5,463.7,236.5z"/>
			</g>
			<g>
				<path fill="#F1F9FA" d="M33.9,351.6c-1.1,0-2.1-0.6-2.7-1.5c-0.9-1.5-0.3-3.4,1.1-4.2l56.2-32.5c1.5-0.8,3.4-0.3,4.2,1.1
					c0.9,1.5,0.3,3.4-1.1,4.2l-56.2,32.5C34.9,351.5,34.4,351.6,33.9,351.6z"/>
			</g>
			<g>
				<path fill="#F1F9FA" d="M68,236.4H3.1c-1.7,0-3.1-1.4-3.1-3.1c0-1.7,1.4-3.1,3.1-3.1H68c1.7,0,3.1,1.4,3.1,3.1
					C71.1,235.1,69.7,236.4,68,236.4z"/>
			</g>
			<g>
				<path fill="#F1F9FA" d="M90.2,153.7c-0.5,0-1.1-0.1-1.5-0.4l-56.2-32.4c-1.5-0.9-2-2.7-1.1-4.2c0.9-1.5,2.7-2,4.2-1.1L91.7,148
					c1.5,0.9,2,2.7,1.1,4.2C92.3,153.2,91.2,153.7,90.2,153.7z"/>
			</g>
			<g>
				<path fill="#F1F9FA" d="M150.8,93.2c-1.1,0-2.1-0.6-2.7-1.5l-32.5-56.2c-0.9-1.5-0.3-3.4,1.1-4.2c1.5-0.9,3.4-0.3,4.2,1.1
					l32.5,56.2c0.9,1.5,0.3,3.4-1.1,4.2C151.8,93.1,151.3,93.2,150.8,93.2z"/>
			</g>
			<g>
				<path fill="#F1F9FA" d="M233.5,71c-1.7,0-3.1-1.4-3.1-3.1V3.1c0-1.7,1.4-3.1,3.1-3.1c1.7,0,3.1,1.4,3.1,3.1V68
					C236.5,69.7,235.2,71,233.5,71z"/>
			</g>
		</g>
	</g>
</g>
</svg>
