<svg xmlns="http://www.w3.org/2000/svg" viewBox="0 0 148.8 149"><path fill="#CDD5D7" d="M3.5 105.7L0 98.2l25.5-45.5L71.8 19l77 31.9L137 79.4 121.4 117l-13.2 32"/><path fill="#D2DADD" d="M3.5 105.7L0 98.2l101.4 36.4 6.8 14.4"/><path fill="#30363D" d="M139 74.5l9.8-23.6-3.5-7.5-9.8 23.7"/><path fill="#FFF" d="M0 98.2l13.2-31.9L40.6.1l27.6 11.5 77.1 31.9L133.4 72l-15.5 37.6-13.3 32"/><path fill="#5A6274" d="M135.5 67.1l9.8-23.7L40.6.1l-9.8 23.7"/><path fill="#30363D" d="M55.8 23c-1.1 2.6.2 5.7 2.8 6.8 2.6 1.1 5.7-.2 6.8-2.8 1.1-2.7-.2-5.7-2.8-6.8-2.7-1.1-5.7.2-6.8 2.8z"/><path fill="#FFF" d="M61 22.4l-1.6-.6c-1.5-.6-2.3-2.4-1.6-4l4-9.6c.6-1.6 2.4-2.3 4-1.7l1.6.6c1.5.6 2.1 2.2 1.7 3.7l4.6 1.9c1.5-4-.4-8.4-4.4-10.1L64.2.5c-4.1-1.7-8.7.3-10.4 4.3l-4 9.6c-1.7 4 .3 8.7 4.3 10.4l5.1 2.1c1.2.5 2.7-.1 3.2-1.3.4-1.2-.1-2.6-1.4-3.2z"/><path fill="#CDD5D7" d="M69.4 2.8c-4-1.5-8.5.4-10.2 4.4l-4 9.6c-1.6 4 .2 8.5 4.1 10.2 1.2.4 2.6-.1 3.1-1.3s-.1-2.7-1.3-3.2l-1.6-.6c-1.5-.6-2.3-2.4-1.6-4l4-9.6c.6-1.6 2.4-2.3 4-1.7l1.6.6c1.5.6 2.1 2.2 1.7 3.7l4.6 1.9c1.2-3.9-.6-8.3-4.4-10z"/><g><path fill="#30363D" d="M109.4 45.2c-1.1 2.6.2 5.7 2.8 6.8 2.6 1.1 5.7-.2 6.8-2.8 1.1-2.7-.2-5.7-2.8-6.8-2.7-1.1-5.7.2-6.8 2.8z"/><path fill="#FFF" d="M114.6 44.6L113 44c-1.6-.6-2.3-2.4-1.7-4l4-9.6c.6-1.6 2.4-2.3 4-1.7l1.6.6c1.5.6 2.1 2.2 1.7 3.7l4.5 1.9c1.5-4-.4-8.4-4.4-10.1l-5.1-2.1c-4-1.7-8.7.3-10.4 4.3l-4 9.6c-1.7 4 .3 8.7 4.3 10.4l5.1 2.1c1.2.5 2.7-.1 3.2-1.3.6-1.2 0-2.7-1.2-3.2z"/><path fill="#CDD5D7" d="M122.9 25c-4-1.5-8.5.4-10.2 4.4l-4 9.6c-1.6 4 .2 8.5 4.1 10.2 1.2.4 2.6-.1 3-1.3.5-1.2-.1-2.7-1.3-3.2L113 44c-1.6-.6-2.3-2.4-1.7-4l4-9.6c.6-1.6 2.4-2.3 4-1.7l1.6.6c1.5.6 2.1 2.2 1.7 3.7l4.5 1.9c1.5-3.9-.3-8.2-4.2-9.9z"/></g><g><path fill="#F5F1F0" d="M33.044 35.657L43.302 39.9l-3.63 8.778-10.258-4.242zM46.358 41.144l10.257 4.24-3.63 8.78-10.257-4.24z"/><path fill="#CDD5D7" d="M66.3 59.7l-10.2-4.2 3.6-8.8 10.2 4.2M73.036 52.248l10.255 4.247-3.634 8.777L69.4 61.025zM92.9 70.8l-10.2-4.2 3.7-8.8L96.6 62M99.758 63.26l10.255 4.247-3.635 8.777-10.255-4.248zM119.6 81.8l-10.2-4.2 3.7-8.8 10.2 4.2"/></g><g><path fill="#CDD5D7" d="M28.042 47.64L38.3 51.888l-3.635 8.778L24.41 56.42zM48 66.2L37.8 62l3.6-8.8 10.2 4.2M54.76 58.645l10.255 4.245-3.634 8.777-10.254-4.245zM68.03 64.23l10.255 4.246-3.633 8.778-10.256-4.245zM81.437 69.752L91.692 74l-3.635 8.776-10.255-4.247zM101.3 88.3L91.1 84l3.7-8.7 10.2 4.2M114.7 93.8l-10.2-4.2 3.6-8.8 10.2 4.2"/></g><g><path fill="#CDD5D7" d="M29.7 72.7l-10.2-4.3 3.6-8.8 10.2 4.3M36.442 65.146l10.255 4.247-3.635 8.777-10.255-4.247zM49.75 70.636l10.256 4.242-3.63 8.78-10.258-4.244z"/><path fill="#EA8357" d="M69.7 89.2L59.5 85l3.6-8.8 10.2 4.2"/><path fill="#CDD5D7" d="M76.424 81.737l10.256 4.247-3.635 8.777-10.255-4.245zM89.826 87.265l10.257 4.245-3.633 8.778-10.257-4.245zM103.15 92.754L113.404 97l-3.634 8.778-10.255-4.246z"/></g><g><path fill="#EA8357" d="M18.128 71.64l10.256 4.244-3.634 8.778-10.255-4.246z"/><path fill="#CDD5D7" d="M31.438 77.127l10.257 4.244-3.632 8.78-10.257-4.245zM51.4 95.7l-10.2-4.3 3.6-8.8L55 86.9M58.15 88.144l10.256 4.248-3.636 8.777-10.255-4.25zM78.1 106.7l-10.2-4.2 3.6-8.8 10.2 4.2M84.825 99.246l10.256 4.245-3.632 8.78-10.256-4.246zM104.8 117.8l-10.3-4.3 3.7-8.8 10.2 4.3"/></g><g><path fill="#CDD5D7" d="M19.8 96.6L9.5 92.4l3.7-8.8 10.2 4.2M26.523 89.15l10.255 4.25-3.635 8.776-10.256-4.248zM39.835 94.632l10.254 4.25-3.637 8.775-10.254-4.25zM59.8 113.2l-10.2-4.3 3.6-8.8 10.2 4.3"/><path fill="#F5F1F0" d="M66.545 105.645L76.8 109.89l-3.63 8.777-10.257-4.244zM86.5 124.2L76.2 120l3.7-8.8 10.2 4.2M99.8 129.7l-10.2-4.2 3.6-8.8 10.2 4.2"/></g></svg>