<svg xmlns="http://www.w3.org/2000/svg" viewBox="0 0 57 57"><path fill="#F1F9FA" d="M28.5 57C44.2 57 57 44.2 57 28.5S44.2 0 28.5 0v57z"/><path fill="#FFF" d="M28.5 0C12.8 0 0 12.8 0 28.5S12.8 57 28.5 57V0z"/><g fill="#84C88D"><path d="M55.8 36.2c-.4 0-.9.2-.9.3 0 .1-.5.4-.7.4-.2.1-.5.6-.6.8-.1.2-.5.1-.7.2-.2.1-.5.3-.5.5s-.1.1-.2 0l-.2.2-.2.3c-.1.4-.6 1-.8 1-.2 0-.2.8-.2 1.1 0 .3.1.7.3.9v.7c-.1.4.2.7.3.8.1.1.8-.1 1.1-.2.1 0 .3-.1.4-.2 1.3-2.1 2.2-4.4 2.9-6.8.1 0 0 0 0 0zM8.7 37c0 .1.5.6.7.8.2.2.6 1 .7 1.3.1.3 0 .7 0 .8 0 .1.1.3.1.4 0 .1-.2.9-.1 1.3.1.3-.4 1.4-.4 1.9s.2 1.2.3 1.2c.1 0 .1.5 0 .5-.2.1-.3.5-.3.5.1 0 0 .4 0 .6 0 .2.2 1.3.2 1.5 0 .3.4.9.5 1.2.1.2.2.6.2.7 0 .1.1.1.1.1s.3.1.4.2c.1.1.7 0 .9 0 .2 0 0-.2-.1-.3-.1-.1-.2-.6-.3-.6-.1 0-.2-.7-.1-.8.1-.1.5-.3.5-.5v-.7c-.1-.1 0-.7 0-1-.1-.3.6-.6.6-.9 0-.3.7-.5.9-.7.2-.1.3-.9.2-1-.1-.2.3-.3.4-.3.1 0 .3-.1.4-.1.1 0 .2-.3.3-.4.1-.1.3-.8.5-1 .2-.1.3-.6.3-.7 0-.1.3-.5.3-.7.1-.1.7-.4.8-.5.1 0 .3-1.1.3-1.4 0-.4.2-.9.2-1 0-.1.2-.2.3-.3 0 0 .2-.5.3-.6.1-.1.4-.6.5-.7 0-.1.1-.4.1-.6V35v-.4c0-.2-.4-.6-.4-.5-.1.1-.5-.3-.7-.4-.2-.1-.7-.1-.8-.1-.1 0-.6-.4-.8-.4-.2-.1-.7-.2-.8-.2-.1-.1-.2-.8-.6-1.1-.4-.2-1.1-.8-1.2-1-.1-.2-.9-.7-1.1-.8-.2-.1-.6-.2-.7-.1 0 0-.3-.4-.5-.5-.2-.1-.6-.2-.6-.1s-.3.1-.4 0c-.1-.1-.3 0-.4.1-.1 0-.5.6-.7.8-.2.1-.4-.1-.5-.2-.2-.2-.6-.1-.7 0-.1.1-.4-.6-.3-1 .1-.3-.3-1-.6-1s-.4-.7-.3-1c.1-.3-.5-.4-.6-.4-.1 0-.5.3-.5.5-.1.2-1.3-.2-1.2-1 .1-.8.7-1.5.9-1.6.2-.1 1-.1 1.1 0 .2.1.3 0 .4 0 0 0 .7 0 .9.1.2.1.5.8.7.9.2.1.3-.5.3-.6 0-.1-.1-.5-.1-.6-.1-.1.3-1 .6-1.2.2-.2.5-.7.5-.8 0-.1.2-.2.3-.2.1 0 0-.8.1-.9.1-.2.7-.5.9-.6.2-.1.3-.6.2-.6-.1-.1.5-.5.8-.6.3-.1.5.2.5.2.1 0 .4-.2.6-.3.2-.1 0-.5-.1-.6-.1-.1 0-.5.1-.5s.3-.4.2-.5c0-.1.6.1.9-.1.2-.2.1.4-.1.7-.2.3.1.5.3.4.1 0 .2.1.3.2 0 .1.3-.1.4 0 .2.1.3-.2.3-.4 0-.1-.4-.4-.5-.6-.1-.2-.1-1.1-.1-1.3 0-.2-.3-.5-.4-.5-.1.1-.3-.5-.4-.6-.1-.1-.2-.4-.2-.5 0-.1-.5-.6-.6-.8-.1-.2-.3-.2-.3-.1s-.3.1-.5.1c-.1 0-.2-.5-.2-.7 0-.2-.6-.2-.7-.4-.1-.2-.5-.2-.6-.3-.1-.1-.4-.2-.5-.2-.1 0 0 1.5-.1 1.8-.1.4-.4.7-.5.7-.1 0 0 .3 0 .2.1 0-.2.4-.3.7 0 .3-.3 0-.4-.3-.1-.3-.3-.6-.4-.5-.1.1-.3-.1-.3-.1 0 .3-.5-.1-.8-.2-.2-.1-.3-.8-.5-.9-.1-.1 0-.1 0-.2s.4-.5.6-.7c.1-.2.6-.8.8-.9.2-.1.3-.5.3-.5 0-.1.8-.3 1-.4.2-.1.4-.7.5-.9 0-.2-.1-.5-.2-.6-.1 0 .3-.1.5 0 .1.1.6-.1.7 0 .2.1.5.3.8.4l-.1.5-.1.8c-.7.3-.8.7-.6.7.2 0 1.3.5 1.6.7.3.2.4-.3.5-.5.1-.2.1-.7 0-.8-.1-.1.3-.1.5 0 .1.1.3-.1.3-.2.1 0 .1-.5.2-.6 0-.1-.2-.2-.2-.3 0-.1-.5-.3-.6-.4-.2-.1-.2-.4-.1-.5.1-.1 0-.5-.1-.6-.1-.1-.6-.2-.7-.2-.2 0-.3-.4-.4-.4-.1-.1-.7-.1-.9-.1-.2 0-.4-.4-.7-.3-.6.3-.8 0-.9-.1-.2 0-.8.6-.8 1.1 0 .5.3.9.4.9.1 0 0 .4-.1.6-.1.1-.4-.1-.3-.2.1-.1-.3-.6-.4-.8-.1-.2-.4-.3-.7-.4-.1.1-.2.3-.3.4 0 .2.1.4 0 .6-.1.3-.3.3-.3.2 0-.1-.1-.1-.3-.1C3.1 14.4.8 19.6.2 25.2c.1.2.3.3.3.5.1.3.5.4.6.5.1 0 .1-.5 0-.6-.1-.1.1-.2.1-.1s.4.6.5.7c.1.2.3 1.3.4 1.5.1.2 1.4.7 1.8.8.4.1.9.5 1 .7.1.1.6.2.7.2l.5.5c.1.1.2.3.2.4 0 .1.7.3.9.5.2.2.5.1.5.1.1-.1.2.4.3.5.1.2.1.5 0 .6-.1.1-.2.8-.3.9-.1.1-.4 1.2-.3 1.4.1.2.4.6.5.7.1.1.1.3 0 .3s-.1 1 .2 1.2c.4 0 .6.4.6.5zM12.1 19.6s-.1 0 0 0zM10.1 7.6c.3-.1.9-.2.9-.2V7h.2c.1 0 .3-.7.5-.9.1-.2.9-.4 1.1-.5.2-.2.6-.5.7-.6.2 0 .4-.4.4-.5 0-.1.5-.4.7-.5.2-.1.3-.3.2-.3 0 0-1.2.6-2.3 1.2-1.2.9-2.4 1.8-3.5 2.8.4 0 .9-.1 1.1-.1zM30.7 43.1c.4-.2 1-1.1 1.2-1.3.2-.2.4-.9.4-1 0-.2.3-.4.5-.4.1 0 .5-1.6.8-1.9.3-.3.7-2 .7-2.5 0-.6.2-1.7.3-2 .1-.3.5-.7.6-.8.1-.1.9-1.3 1.2-1.7.2-.4.5-1.3.4-1.5 0-.2-.6-.4-.7-.3-.1.1-.6.2-.8.2-.2 0-.5-.9-.8-1.1-.2-.2-.4-1.2-.6-1.4-.1-.2-.5-.7-.6-.8-.1-.1-.1-.6-.2-.8 0-.1.2.1.3.3 0 .2.6 1.1.8 1.4.2.3.7 1.2.8 1.5.1.3 1.2.1 1.6 0 .4-.2.8-.5.8-.6 0-.1.6-.4.7-.5.2-.1.3-.8.4-.9.1-.1-.1-.7-.2-.9-.1-.2-.7-.3-.8-.3-.1.1-.4-.4-.5-.6-.1-.2-.5-.4-.6-.5 0-.1.1-.3.2-.4.1 0 .9.5 1.1.8.2.3.5.8.5.9 0 .1.7.1.8 0 .1-.1.3-.1.4.1h.2l.7-.1c.3.4.4.7.4.7 0 .1.2.4.3.4.1 0 .2.5.3.6 0 .1.4.8.5 1.1.1.3.4.8.5 1 .1.2.1.6.1.7 0 .1.3.4.4.3.2 0 .5-1 .5-1.4.1-.4.3-.7.4-.7s.1-.2.1-.3c0-.1.4-.1.4-.2s.2-.8.3-.9c.1-.1.7-.4.8-.5.2-.1.6.3.7.5.1.2.2.7.2.7 0 .1.2.5.5.5.2 0 .3.3.3.4 0 .1.3.4.4.6.1.1 0 .5 0 .6v.8c0 .1.8.9 1.1 1.1.3.2.4-.5.3-.7-.1-.2-.6-.7-.7-.9-.1-.2-.1-.8-.1-.9 0-.2.4.1.6.2.2.1.4.4.4.5 0 .1 1-.5 1-1.1 0-.6.4-1.3.4-1.5 0-.2-.1-.4-.2-.4s.1-.5.4-.5c.3 0 1-.7 1.1-1 .2-.3.5-.5.5-.6 0 0 .3-.7.3-1 0-.3-.2-.7-.2-.9 0-.2-.3-.5-.3-.6-.1-.1-.1-.5-.1-.6 0-.1.3-.2.3-.2 0-.1.3-.4.3-.5 0-.1.2.2.3.3.1.1.3.8.4.9.2.1.8-.8.7-1.3-.1-.5.2-1.2.4-1.3.1 0 .4-.5.6-.8-1.5-4.2-3.9-8-7-11.1h-.1l.2.1c-.4-.1-.6-.5-.6-.6v-.2c-.2-.2-.5-.4-.7-.6h-.5c-.2 0-.8-.2-.9-.3 0-.1-.3.1-.3.2 0 .2-.6.3-.6.4-.1.1-.3.1-.4.1-.1-.1-.6.2-.8.2-.3 0-.7.2-.9.3-.1 0-.4.3-.4.4 0 .1-.4.3-.5.3-.1 0-.1.5.1.6 0 .1-.4 0-.5-.1-.2-.1-.4.2-.4.3-.1.1-.2-.1-.2-.2s-.4-.3-.5-.1c-.1.1-.4 0-.5-.1-.1-.1-.7.5-.9.7-.2.2-1.1.4-1.3.3-.2-.1-.4.4-.2.5h-.7c-.3 0-1.2.4-1.4.5-.2.2-.4 0-.4-.2 0-.1-.3-.2-.4-.3-.1 0-.3.6-.5.8-.2.1-.4-.5-.8-.6-.4-.1-1-.5-1.2-.5-.2 0-.5-.4-.6-.5-.1-.1-.6-.2-.8-.2-.2 0-.7.3-.8.4-.1.1-.4.1-.4.1-.1 0-.7.6-.9.8-.2.2-.6 1-.8 1.2-.1.2-.3.2-.4.2-.1 0-.1.2-.1.3 0 .1-.7.4-.8.7-.1.3.1 1 .1 1.3s.3.8.4.8c.2 0 .1.4 0 .5-.1.1.1.2.1.4 0 .1-.5.2-.6.3-.2.1-.4.4-.4.5 0 .1-.5.2-.6.3 0-.1.1-.3.1-.3.1-.2 0-.5-.1-.5-.1-.1-.1-.9-.2-1.1-.1-.2-.4-.5-.5-.5-.1-.1.1-.3.1-.4 0-.1-.4-.1-.5-.1-.1.1-.2.9-.2 1.1 0 .2.2.6.3.6.1 0 0 .4-.1.4-.2 0-.3.6-.2.7.1.1-.1.4-.2.5-.1.1.6 0 .9 0 .3 0 .5.1.5.2 0 0-.6.1-.7.2-.1.1-.5.4-.5.5-.1.1.1.3.3.3.2 0 .3.5.5.7.1.1.1.4 0 .5 0 .1-.8-.1-1.1 0-.3.1-.6.7-.7.9 0 .2 0 .9.1 1.1 0 .2.6.3.7.4.1.1.7 0 .8.1.1.1.5-.6.6-.9.1-.3.7-.8.8-1 .1-.2.8-.2.9-.3.2-.1.1.5.1.8.1.3.7.3.6 0-.1-.3.1-.4.1-.3 0 .1.6.4.7.5.1.2.1.5-.1.5-.1 0-.1.4 0 .4s.3-.5.5-.5c.2-.1.3-.4.2-.4-.1 0 .1-.3.2-.2.1.1-.3-.6-.6-.9-.3-.3-.1-.1.4.3l.3.5c.1.1.2.3.2.4l.1.1c.1.2.1.6.1.7 0 .1.3.4.4.3.2 0 .3.1.2.1 0 0 .1.3.3.3.2 0 .2-.4.1-.4-.2 0-.1-.6-.2-.8 0-.3.1-.5.2-.5s0 .5 0 .6c0 .1.1.4.1.5l.2.1.4.3c.5-.2 1.2 0 1.2.1s.4.1.4 0v.1c0 .1-.3.6-.4.8-.1.2-1.2.1-1.8 0-.5 0-1.3.1-1.3.3-.1.1-.9-.4-1.2-.5-.4-.2-.6-.7-.7-.8-.1-.1.1-.3 0-.4 0-.1-.9-.1-1.1 0-.2.1-1.5.2-1.8.4-.3.1-.7 0-.9 0-.1 0-.5.4-.6.5-.2.1-.4.7-.5 1.3l-.2.4-.1.3c-.4.3-.9 1.4-1 1.6-.1.2-.2 1.7-.2 2.2s.4 1.6.6 1.9c.1.3.9 1 1.2 1.1.3.2 1.1.2 1.4.2.3 0 .6-.3.7-.6H25.4c0 .2.6.4.7.5.1.1.5 0 .7 0 .1 0 .2 1 .2 1.3-.1.3.2 1.4.3 1.7l.5 1.5c0 .3-.2 1.4-.3 1.7 0 .4.5 1.4.6 1.7.1.4.2 1.1.2 1.3 0 .2.5 1.2.7 1.7 0 .4 1.4.5 1.7.3zM54.2 30.1c0 .1.4-.2.6-.2.2 0 .3-.6.2-.6-.2 0-.4-.5-.5-.5-.1 0-.3.2-.3.4s-.4.2-.4.4c-.1.1-.1.2 0 .2 0-.1.4.2.4.3zM53.8 33.1c.1 0 0-.6-.2-.6s-.8.7-.7 1.2c.1.4.2.4.3.3.1-.1.4.1.5.1.1 0 .1-.1 0-.2-.1-.2 0-.7.1-.8zM52.6 32.6c0-.2.1-.8.1-.9 0-.1-.3-.5-.5-.5-.2-.1-.8 1.2-1.2 1.4-.4.2-.6 1-.5 1.2.1.2 1 .3 1.1.4.2.1.3 0 .4 0 .1 0 .1-.1 0-.1 0 0 .3-.4.3-.6.2-.4.3-.7.3-.9zM50.3 34.7c-.3-.1-.7.1-.7.2s1.2.3 1.7.4c.4.1.7.2.6.1-.2-.1-1.3-.6-1.6-.7zM52.9 26.4c.1-.1-.1-.8-.3-.7-.1.2 0 .5 0 .7 0 .1.2.1.3 0zM53.6 27.8c.1-.2-.1-.4-.4-.4-.3-.1-.2.8-.1.9.2.1.5-.3.5-.5zM55.1 32.9c.3.2 1.1.1 1.1-.3-.4-.2-1.2-.2-1.1.3zM54.9 22.8c-.1.1-.2.3-.2.4-.1 0-.1.4 0 .5.1.1.4-.3.5-.4.1-.1.4-.2.5-.1 0 0 .3 0 .6-.2l.2-.2c-.1-.3-.1-.6-.2-.9-.1.1-.3.2-.4.3-.2.1-.8.4-1 .6zM47.4 31.5c-.1 0-.1 0 0 0z"/><path d="M49.4 33.4c-.1-.3-.5-.7-.9-1l-.1-.2-.2-.2c-.1-.3-.5-.5-.6-.6 0-.1-.2.2-.3.1.1.1.2.2.4.3.4.3 1.1 2.1 1.3 2.3.3.1.5-.4.4-.7zM43.5 30.4c-.1.2.5.7.6.5.1-.1-.1-.6-.2-.7-.1-.1-.3 0-.4.2zM34.9 40.3c0 .2.5.4.6.4.1 0 .5-.7.5-.9 0-.2.1-.6.1-.7 0-.1.1-.3.1-.3s.1-.3.2-.5c.1-.3-.3-1.4-.3-1.6 0-.2-.2.1-.3.3-.1.2-.6.6-.8.8-.1.2-.3.8-.2.9 0 .1-.1.5-.1.6 0 .1.2.8.2 1zM13.9 48.4h.4c.1-.4-.4-.3-.4 0zM24.4 4.4c-.2 0-.6-.1-.7-.1-.1-.1-.7-.1-.9-.1-.2.1-.1-.4.2-.5.3-.1 0-.4-.2-.4-.3 0-.9-.1-1.1-.1-.2 0-.5-.1-.6-.1-.1 0-.9.2-1.3.2s-1.3 0-1.5.1c-.2.1-.4.4-.3.6 0 .1-.9.1-1.2.1-.3 0-1.9.3-2.3.6-.4.2-.7.8-.6.8.1 0-.2.3-.4.4-.2.1-.7.1-.9.2-.1.1.1.2.2.3.1.1.2-.1.3 0 .1.1.6.1.7.2.1.1-.4.1-.6.2-.2 0-.2.5 0 .6.2.1.7.1.8.1 0-.1.6.1.8.1.2 0 .4.6.5.8.1.1.1.6.1.7 0 .1.4.4.5.3.1-.1.1.2-.1.2s-.1.5.2.6c.2.1.1.4-.1.5-.1.1-.1.4-.2.5-.1.1.5 1.2.5 1.7s.3 1 .5 1c.1 0 .6.1.6.2.1.1.3-.1.3-.2.1-.1.3-.3.4-.6.1-.2.4-1.3.5-1.4 0-.1.5 0 .7-.1.1-.1.4-.3.5-.4.1-.1.8-.4 1-.5.2-.1.5-.7.7-.9.2-.1-.1-.1-.3-.2-.2-.1-.1-.3-.1-.3.1-.1.6.1.8.2.2.1.6-.2.4-.3-.1-.1-.1-.1 0-.1s.1-.4.1-.4c-.1-.1.6-.6.5-1-.1-.5.2-.9.4-.9s.1-.5-.1-.6c-.2 0 0-.1.1-.2s.2-.5.1-.6c0-.1.3-.2.4-.3.1-.1.5-.3.6-.3.1-.3.2-.7.1-.6zM28.1 4.7c-.2-.1-.6.2-.6.3.1.1-.3-.2-.6 0-.3.1-.3.6-.2.7.1.1.2.4.2.5 0 .1.5 0 .7-.1.1-.1.1.4 0 .5-.1.1 0 .4.2.4.1 0 .3.4.5.4s.4-.6.5-.8c.1-.2.6 0 .8 0 .2.1.3-.8.1-.9-.2-.1-.6-.1-.7-.2-.1-.1-.3-.2-.4-.2-.2 0-.3-.5-.5-.6zM30.1 5.1c.4.1.9-.3.9-.4.1-.1-1.1-.3-1.6-.4-.5 0-.8 0-.8.1 0 .3 1.1.7 1.5.7zM22.7 16c-.1 0-.2.4-.1.5 0 .2.4.1.6.1.2 0 .3-.2.3-.3 0-.1-.2-.7-.3-.7-.2 0-.4.5-.5.4zM23.9 11.4c-.1-.1-.7-.1-.9-.1-.2 0-.6-.2-.7-.3-.1-.1-.2.4-.3.5-.1.1.1.2.1.1.1-.1 0 .2-.1.4-.1.1.4.2.5.3.1.2.3.3.4.2.2 0 .6-.2.7-.2.3-.1.4-.8.3-.9zM37.2 7.8c.2-.2 1.1-.5 1.2-.7.1-.2-.1-.4-.2-.4s-.2.1-.2.2c0 0-1 .3-1.4.4-.3.1-.7.4-.8.5-.1.1-.4 1.1-.4 1.3-.1.1.3.5.5.6.2.1.4.1.5 0 .1 0-.1-.7-.2-1-.1-.3.7-.7 1-.9zM36.1 5.1c.3.4.5-.1.9-.1-.1-.6-1-.4-.9.1zM42.6 5.3c0 .1.9.2 1.2.2.3 0-.1-.5-.5-.4-.3-.1-.7 0-.7.2zM8.5 12.2c-.1.1 0 .6.2.6s.5-.7.7-.6c.2.1.4.2.3.1 0 0-.6-.3-.7-.3-.1-.1-.4.2-.5.2zM10.9 27.9c0 .1.4.1.5-.1.1-.1 0-.2-.1-.2s-.4.2-.4.3zM9.1 27.2c.2 0 .1.3.2.4 0 .1.5.2.6.3.1.1.3-.1.5-.1s-.1-.7-.4-.6c-.3 0-.6-.3-.6-.3-.1 0-.4-.3-.5-.3-.1-.1-.9-.2-1.2-.2s-.6.2-.7.3c0 .1.4.2.6.1.1-.1.8.1.9.2.1.2.4.2.6.2zM8.2 27.9c0 .1.4 0 .5 0 .1 0 .1-.1 0-.1-.1-.1-.5 0-.5.1zM8.5 25.7c-.1 0-.2.1-.2.2s.1.1.1.1c.1.1.2-.2.1-.3zM9.4 25.8c0-.1-.2-.1-.3-.1-.1 0-.1.1-.1.3.1.1.4-.1.4-.2zM10 26.8c.2-.1.2-.3.1-.3s-.3-.3-.4-.3c-.1 0-.2.2-.2.3 0 .1.1.2.1.1.1 0 .3.3.4.2zM56.3 33.3c-.1 0-.5.1-.6 0-.1-.1-.1.2-.2.2s0 .3.1.2c.1 0 .5.2.8.4.1-.3.1-.6.2-1-.1.1-.2.2-.3.2z"/></g><g fill="#AED5A5"><path d="M8.7 37c0 .1.5.6.7.8.2.2.6 1 .7 1.3.1.3 0 .7 0 .8 0 .1.1.3.1.4 0 .1-.2.9-.1 1.3.1.3-.4 1.4-.4 1.9s.2 1.2.3 1.2c.1 0 .1.5 0 .5-.2.1-.3.5-.3.5.1 0 0 .4 0 .6 0 .2.2 1.3.2 1.5 0 .3.4.9.5 1.2.1.2.2.6.2.7 0 .1.1.1.1.1s.3.1.4.2c.1.1.7 0 .9 0 .2 0 0-.2-.1-.3-.1-.1-.2-.6-.3-.6-.1 0-.2-.7-.1-.8.1-.1.5-.3.5-.5v-.7c-.1-.1 0-.7 0-1-.1-.3.6-.6.6-.9 0-.3.7-.5.9-.7.2-.1.3-.9.2-1-.1-.2.3-.3.4-.3.1 0 .3-.1.4-.1.1 0 .2-.3.3-.4.1-.1.3-.8.5-1 .2-.1.3-.6.3-.7 0-.1.3-.5.3-.7.1-.1.7-.4.8-.5.1 0 .3-1.1.3-1.4 0-.4.2-.9.2-1 0-.1.2-.2.3-.3 0 0 .2-.5.3-.6.1-.1.4-.6.5-.7 0-.1.1-.4.1-.6V35v-.4c0-.2-.4-.6-.4-.5-.1.1-.5-.3-.7-.4-.2-.1-.7-.1-.8-.1-.1 0-.6-.4-.8-.4-.2-.1-.7-.2-.8-.2-.1-.1-.2-.8-.6-1.1-.4-.2-1.1-.8-1.2-1-.1-.2-.9-.7-1.1-.8-.2-.1-.6-.2-.7-.1 0 0-.3-.4-.5-.5-.2-.1-.6-.2-.6-.1s-.3.1-.4 0c-.1-.1-.3 0-.4.1-.1 0-.5.6-.7.8-.2.1-.4-.1-.5-.2-.2-.2-.6-.1-.7 0-.1.1-.4-.6-.3-1 .1-.3-.3-1-.6-1s-.4-.7-.3-1c.1-.3-.5-.4-.6-.4-.1 0-.5.3-.5.5-.1.2-1.3-.2-1.2-1 .1-.8.7-1.5.9-1.6.2-.1 1-.1 1.1 0 .2.1.3 0 .4 0 0 0 .7 0 .9.1.2.1.5.8.7.9.2.1.3-.5.3-.6 0-.1-.1-.5-.1-.6-.1-.1.3-1 .6-1.2.2-.2.5-.7.5-.8 0-.1.2-.2.3-.2.1 0 0-.8.1-.9.1-.2.7-.5.9-.6.2-.1.3-.6.2-.6-.1-.1.5-.5.8-.6.3-.1.5.2.5.2.1 0 .4-.2.6-.3.2-.1 0-.5-.1-.6-.1-.1 0-.5.1-.5s.3-.4.2-.5c0-.1.6.1.9-.1.2-.2.1.4-.1.7-.2.3.1.5.3.4.1 0 .2.1.3.2 0 .1.3-.1.4 0 .2.1.3-.2.3-.4 0-.1-.4-.4-.5-.6-.1-.2-.1-1.1-.1-1.3 0-.2-.3-.5-.4-.5-.1.1-.3-.5-.4-.6-.1-.1-.2-.4-.2-.5 0-.1-.5-.6-.6-.8-.1-.2-.3-.2-.3-.1s-.3.1-.5.1c-.1 0-.2-.5-.2-.7 0-.2-.6-.2-.7-.4-.1-.2-.5-.2-.6-.3-.1-.1-.4-.2-.5-.2-.1 0 0 1.5-.1 1.8-.1.4-.4.7-.5.7-.1 0 0 .3 0 .2.1 0-.2.4-.3.7 0 .3-.3 0-.4-.3-.1-.3-.3-.6-.4-.5-.1.1-.3-.1-.3-.1 0 .3-.5-.1-.8-.2-.2-.1-.3-.8-.5-.9-.1-.1 0-.1 0-.2s.4-.5.6-.7c.1-.2.6-.8.8-.9.2-.1.3-.5.3-.5 0-.1.8-.3 1-.4.2-.1.4-.7.5-.9 0-.2-.1-.5-.2-.6-.1 0 .3-.1.5 0 .1.1.6-.1.7 0 .2.1.5.3.8.4l-.1.5-.1.8c-.7.3-.8.7-.6.7.2 0 1.3.5 1.6.7.3.2.4-.3.5-.5.1-.2.1-.7 0-.8-.1-.1.3-.1.5 0 .1.1.3-.1.3-.2.1 0 .1-.5.2-.6 0-.1-.2-.2-.2-.3 0-.1-.5-.3-.6-.4-.2-.1-.2-.4-.1-.5.1-.1 0-.5-.1-.6-.1-.1-.6-.2-.7-.2-.2 0-.3-.4-.4-.4-.1-.1-.7-.1-.9-.1-.2 0-.4-.4-.7-.3-.6.3-.8 0-.9-.1-.2 0-.8.6-.8 1.1 0 .5.3.9.4.9.1 0 0 .4-.1.6-.1.1-.4-.1-.3-.2.1-.1-.3-.6-.4-.8-.1-.2-.4-.3-.7-.4-.1.1-.2.3-.3.4 0 .2.1.4 0 .6-.1.3-.3.3-.3.2 0-.1-.1-.1-.3-.1-.1.2-.3.3-.4.5-.1.2-.2.3-.4.5-.1.2-.3.3-.4.5-.1.2-.2.3-.3.5-.2.2-.3.5-.5.7-.1.2-.3.5-.4.7-.1.1-.2.3-.3.5-.1.1-.2.3-.2.4l-.3.6c-.1.1-.1.2-.2.4-.3.5-.5 1-.7 1.5-.1.3-.2.5-.3.8-.2.1-.2.2-.3.3-.1.3-.2.5-.3.8v.1c-.3 1-.6 1.9-.8 2.9v.2c-.2 1-.4 2-.5 3 .1.2.3.3.3.5.1.3.5.4.6.5.1 0 .1-.5 0-.6-.1-.1.1-.2.1-.1s.4.6.5.7c.1.2.3 1.3.4 1.5.1.2 1.4.7 1.8.8.4.1.9.5 1 .7.1.1.6.2.7.2l.5.5c.1.1.2.3.2.4 0 .1.7.3.9.5.2.2.5.1.5.1.1-.1.2.4.3.5.1.2.1.5 0 .6-.1.1-.2.8-.3.9-.1.1-.4 1.2-.3 1.4.1.2.4.6.5.7.1.1.1.3 0 .3s-.1 1 .2 1.2c.3 0 .5.4.5.5zM12.1 19.6zM10.1 7.6c.3-.1.9-.2.9-.2V7h.2c.1 0 .3-.7.5-.9.1-.2.9-.4 1.1-.5.2-.2.6-.5.7-.6.2 0 .4-.4.4-.5 0-.1.5-.4.7-.5.2-.1.3-.3.2-.3 0 0-1.2.6-2.3 1.2-.3.2-.6.4-.9.7-.2.2-.4.3-.6.5-.1.1-.2.2-.3.2-.2.2-.5.4-.7.6-.1 0-.2.1-.2.1-.3.3-.5.5-.8.7.4 0 .9-.1 1.1-.1zM28.1 21.5c-.1 0-.1.4 0 .4s.2-.2.4-.4V20c-.2-.2-.1-.2 0 0v-9.7c-.1.1-.3.3-.4.3-.2.2-.6 1-.8 1.2-.1.2-.3.2-.4.2-.1 0-.1.2-.1.3 0 .1-.7.4-.8.7-.1.3.1 1 .1 1.3s.3.8.4.8c.2 0 .1.4 0 .5-.1.1.1.2.1.4 0 .1-.5.2-.6.3-.2.1-.4.4-.4.5 0 .1-.5.2-.6.3 0-.1.1-.3.1-.3.1-.2 0-.5-.1-.5-.1-.1-.1-.9-.2-1.1-.1-.2-.4-.5-.5-.5-.1-.1.1-.3.1-.4 0-.1-.4-.1-.5-.1-.1.1-.2.9-.2 1.1 0 .2.2.6.3.6.1 0 0 .4-.1.4-.2 0-.3.6-.2.7.1.1-.1.4-.2.5-.1.1.6 0 .9 0 .3 0 .5.1.5.2 0 0-.6.1-.7.2-.1.1-.5.4-.5.5-.1.1.1.3.3.3.2 0 .3.5.5.7.1.1.1.4 0 .5 0 .1-.8-.1-1.1 0-.3.1-.6.7-.7.9 0 .2 0 .9.1 1.1 0 .2.6.3.7.4.1.1.7 0 .8.1.1.1.5-.6.6-.9.1-.3.7-.8.8-1 .1-.2.8-.2.9-.3.2-.1.1.5.1.8.1.3.7.3.6 0-.1-.3.1-.4.1-.3 0 .1.6.4.7.5.2-.1.2.3 0 .3z"/><path d="M28.5 23.4c-.1-.1-.2-.1-.3-.2-.4-.2-.6-.7-.7-.8-.1-.1.1-.3 0-.4 0-.1-.9-.1-1.1 0-.2.1-1.5.2-1.8.4-.3.1-.7 0-.9 0-.1 0-.5.4-.6.5-.2.1-.4.7-.5 1.3l-.2.4-.1.3c-.4.3-.9 1.4-1 1.6-.1.2-.2 1.7-.2 2.2s.4 1.6.6 1.9c.1.3.9 1 1.2 1.1.3.2 1.1.2 1.4.2.3 0 .6-.3.7-.6H25.6c0 .2.6.4.7.5.1.1.5 0 .7 0 .1 0 .2 1 .2 1.3-.1.3.2 1.4.3 1.7l.5 1.5c0 .3-.2 1.4-.3 1.7 0 .4.5 1.4.6 1.7.1.4.2 1.1.2 1.3 0 .1.1.4.3.7V23.4zM13.9 48.4h.4c.1-.4-.4-.3-.4 0zM21.8 9.5c.2.1.6-.2.4-.3-.1-.1-.1-.1 0-.1s.1-.4.1-.4c-.1-.1.6-.6.5-1-.1-.5.2-.9.4-.9s.1-.5-.1-.6c-.2 0 0-.1.1-.2s.2-.5.1-.6c0-.1.3-.2.4-.3.1-.1.5-.3.6-.3.2 0 .2-.4.1-.4-.2 0-.6-.1-.7-.1-.1-.1-.7-.1-.9-.1-.2.1-.1-.4.2-.5.3-.1 0-.4-.2-.4-.3 0-.9-.1-1.1-.1-.2 0-.5-.1-.6-.1-.1 0-.9.2-1.3.2s-1.3 0-1.5.1c-.2.1-.4.4-.3.6 0 .1-.9.1-1.2.1-.3 0-1.9.3-2.3.6-.4.2-.7.8-.6.8.1 0-.2.3-.4.4-.2.1-.7.1-.9.2-.1.1.1.2.2.3.1.1.2-.1.3 0 .1.1.6.1.7.2.1.1-.4.1-.6.2-.2 0-.2.5 0 .6.2.1.7.1.8.1 0-.1.6.1.8.1.2 0 .4.6.5.8.1.1.1.6.1.7 0 .1.4.4.5.3.1-.1.1.2-.1.2s-.1.5.2.6c.2.1.1.4-.1.5-.1.1-.1.4-.2.5-.1.1.5 1.2.5 1.7s.3 1 .5 1c.1 0 .6.1.6.2.1.1.3-.1.3-.2.1-.1.3-.3.4-.6.1-.2.4-1.3.5-1.4 0-.1.5 0 .7-.1.1-.1.4-.3.5-.4.1-.1.8-.4 1-.5.2-.1.5-.7.7-.9.2-.1-.1-.1-.3-.2-.2-.1-.1-.3-.1-.3 0-.2.6-.1.8 0zM28.1 4.7c-.2-.1-.6.2-.6.3.1.1-.3-.2-.6 0-.3.1-.3.6-.2.7.1.1.2.4.2.5 0 .1.5 0 .7-.1.1-.1.1.4 0 .5-.1.1 0 .4.2.4.1 0 .3.4.5.4.1 0 .2-.2.3-.3V5.3c-.2 0-.3-.5-.5-.6zM23.1 16.6c.2 0 .3-.2.3-.3 0-.1-.2-.7-.3-.7-.1 0-.3.4-.4.4-.1 0-.2.4-.1.5 0 .2.4.2.5.1zM22.6 12.2c.1.2.3.3.4.2.2 0 .6-.2.7-.2.1 0 .3-.7.2-.8-.1-.1-.7-.1-.9-.1-.2 0-.6-.2-.7-.3-.1-.1-.2.4-.3.5-.1.1.1.2.1.1.1-.1 0 .2-.1.4 0 0 .5.1.6.2zM8.5 12.2c-.1.1 0 .6.2.6s.5-.7.7-.6c.2.1.4.2.3.1 0 0-.6-.3-.7-.3-.1-.1-.4.2-.5.2zM10.9 27.9c0 .1.4.1.5-.1.1-.1 0-.2-.1-.2s-.4.2-.4.3zM9.1 27.2c.2 0 .1.3.2.4 0 .1.5.2.6.3.1.1.3-.1.5-.1s-.1-.7-.4-.6c-.3 0-.6-.3-.6-.3-.1 0-.4-.3-.5-.3-.1-.1-.9-.2-1.2-.2s-.6.2-.7.3c0 .1.4.2.6.1.1-.1.8.1.9.2.1.2.4.2.6.2zM8.2 27.9c0 .1.4 0 .5 0 .1 0 .1-.1 0-.1-.1-.1-.5 0-.5.1zM8.5 25.7c-.1 0-.2.1-.2.2s.1.1.1.1c.1.1.2-.2.1-.3zM9.4 25.8c0-.1-.2-.1-.3-.1-.1 0-.1.1-.1.3.1.1.4-.1.4-.2zM10 26.8c.2-.1.2-.3.1-.3s-.3-.3-.4-.3c-.1 0-.2.2-.2.3 0 .1.1.2.1.1.1 0 .3.3.4.2z"/></g><path fill="#D0EAF9" d="M11.1 7s-.2.1-.1.1c0 .1.1 0 .1-.1zM14.2 16.4l-.1.1c0 .1.2 0 .1-.1z"/></svg>