<svg xmlns="http://www.w3.org/2000/svg" viewBox="0 0 86.6 46.3"><path fill="#2C5871" d="M42.3 12.9c-4.3.9-8.6 1.9-12.9 2.8-5.5 1.3-9.3 5.4-8.5 9.1.8 3.8 1.7 7.7 2.5 11.5.8 3.7 3.3 6.1 11.8 8.1 5.1 1.2 9.9 1.9 14.3 1.9l-7.2-33.4z"/><path fill="#0E303F" d="M42.3 12.9c4.3-.9 8.6-1.9 12.9-2.8 5.6-1.1 10.7 1.1 11.5 4.8.8 3.8 1.7 7.7 2.5 11.5.8 3.7-.4 6.9-7.4 12.3-4.2 3.2-8.2 5.8-12.3 7.6l-7.2-33.4z"/><path fill="#0E303F" d="M47.1 35L.4 27.7l-.2-1.9 86-18.5.4 1.7-39.5 26z"/><path fill="#2C5871" d="M46.7 33.3L0 26 39.5 0l46.7 7.3-39.5 26z"/><path fill="#F3D97F" d="M73.9 28.7c-.4 0-.8-.2-.9-.6l-2.2-10-29.2-4.6c-.5-.1-.8-.5-.7-.9.1-.4.5-.8.9-.7l29.7 4.7c.3.1.6.3.7.6l2.3 10.6c.1.4-.2.9-.6 1 .1-.1 0-.1 0-.1z"/><path fill="#D7C070" d="M71 18.5h-.2L43 14.1c-.4-.1-.7-.5-.6-.9.1-.4.5-.7.9-.6L71.1 17c.4.1.7.5.6.9-.1.3-.4.6-.7.6z"/><path fill="#0E303F" d="M47.8 11.7c.4 1.7-1.4 3.6-4 4.2-2.6.6-5-.4-5.3-2.2-.4-1.7 1.4-3.6 4-4.2 2.6-.5 5 .4 5.3 2.2z"/><path fill="#2C5871" d="M46.9 11.2c.3 1.3-1.6 2.8-4.2 3.4-2.6.6-5-.1-5.2-1.4-.3-1.3 1.6-2.8 4.2-3.4 2.6-.5 4.9.1 5.2 1.4z"/><g fill="#F3D97F"><path d="M75.9 24.9c.3 1.4-.6 2.8-2 3.1-1.4.3-2.8-.6-3.1-2-.3-1.4.6-2.8 2-3.1 1.4-.3 2.8.6 3.1 2z"/><path d="M75.8 30.2c.2.8-.3 1.5-1.1 1.7-.8.2-1.5-.3-1.7-1.1l-1.1-5c-.2-.8.3-1.5 1.1-1.7.8-.2 1.5.3 1.7 1.1l1.1 5z"/><path d="M81.1 39.4c-1.3-.7-2-2.8-3.9-8.5-.5-1.3-1.8-2.3-3.1-2-1.3.3-2.1 1.6-2 3.1.6 5.9.9 8.2 0 9.4-.1 1.4 2.3 2.5 5.1 1.9 2.9-.7 4.5-2.7 3.9-3.9z"/></g><path fill="#D7C070" d="M73.8 32.7c-.1-1 .3-1.9.9-2.6l-.5-2.1c-.9-.3-1.6-1.1-1.8-2-.3-1.2.3-2.4 1.3-3.1-.3 0-.6-.1-1 0-1.4.3-2.3 1.7-2 3.1.2.9.8 1.5 1.6 1.8l.4 1.9c-.4.6-.7 1.4-.7 2.3.6 5.9.9 8.2 0 9.4 0 .8.7 1.5 1.8 1.8 1-1.4.8-3.9 0-10.5z"/></svg>