<svg xmlns="http://www.w3.org/2000/svg" viewBox="0 0 79.9 79.9"><path fill="#F3D97F" d="M79.9 40c0 22.1-17.9 40-40 40C17.9 79.9 0 62 0 40 0 17.9 17.9 0 40 0c22 0 39.9 17.9 39.9 40z"/><path fill="#EFC967" d="M40 0c22.1 0 40 17.9 40 40S62.1 80 40 80V0z"/><path fill="#FFF" d="M71 40c0 17.1-13.9 31-31 31C22.8 71 8.9 57.1 8.9 40 8.9 22.8 22.8 8.9 40 8.9c17.1 0 31 13.9 31 31.1z"/><path fill="#D0EAF9" d="M12.2 42.2c0-17.2 13.9-31.1 31.1-31.1 5.7 0 11 1.5 15.5 4.2-5.2-4-11.8-6.4-18.9-6.4-17.1 0-31 13.9-31 31.1 0 11.5 6.3 21.6 15.6 26.9-7.5-5.7-12.3-14.6-12.3-24.7z"/><path fill="#154F78" d="M45.5 40c0 3.1-2.5 5.6-5.6 5.6-3.1 0-5.6-2.5-5.6-5.6 0-3.1 2.5-5.5 5.6-5.5 3.1-.1 5.6 2.4 5.6 5.5z"/><path fill="#154F78" d="M40 41.4c-.8 0-1.5-.7-1.5-1.5v-22c0-.8.7-1.5 1.5-1.5s1.5.7 1.5 1.5v22c-.1.9-.7 1.5-1.5 1.5zM53.2 17.8c-.1 0-.3 0-.4-.1-.4-.2-.5-.7-.3-1l.9-1.5c.2-.4.7-.5 1-.3.3.2.5.7.3 1l-.9 1.5c-.1.3-.4.4-.6.4zM25.9 65.1c-.1 0-.3 0-.4-.1-.4-.2-.5-.7-.3-1l.9-1.5c.2-.4.7-.5 1-.3.4.2.5.7.3 1l-.8 1.5c-.2.3-.5.4-.7.4zM64.3 54.8c-.1 0-.2 0-.4-.1l-1.5-.8c-.3-.2-.5-.7-.3-1 .2-.4.7-.5 1-.3l1.5.8c.4.2.5.7.3 1-.1.2-.3.4-.6.4zM17.1 27.5c-.1 0-.3 0-.4-.1l-1.5-.9c-.4-.2-.5-.7-.3-1 .2-.4.7-.5 1-.3l1.5.9c.4.2.5.7.3 1-.1.3-.4.4-.6.4z"/><g><path fill="#154F78" d="M26.8 17.8c-.3 0-.5-.1-.6-.4l-.9-1.4c-.2-.3-.1-.8.3-1 .4-.2.8-.1 1 .3l.8 1.5c.2.4.1.8-.3 1h-.3zM54.1 65.1c-.3 0-.5-.1-.6-.4l-.9-1.5c-.2-.4-.1-.8.3-1 .4-.2.8-.1 1 .3l.9 1.5c.2.4.1.8-.3 1-.2.1-.3.1-.4.1zM15.6 54.8c-.3 0-.5-.1-.6-.4-.2-.4-.1-.8.3-1l1.5-.9c.4-.2.8-.1 1 .3.2.3.1.8-.3 1l-1.5.9c-.2 0-.3.1-.4.1zM62.9 27.5c-.3 0-.5-.1-.6-.4-.2-.4-.1-.8.3-1l1.5-.9c.3-.2.8-.1 1 .3.2.4.1.8-.3 1l-1.5.9c-.2.1-.3.1-.4.1z"/></g><g><path fill="#154F78" d="M13.5 40.7h-1.7c-.4 0-.7-.3-.7-.7 0-.4.3-.7.7-.7h1.7c.4 0 .7.3.7.7.1.4-.3.7-.7.7zM66.4 40.7c-.4 0-.7-.3-.7-.7 0-.4.3-.7.7-.7h1.7c.4 0 .7.3.7.7 0 .4-.3.7-.7.7h-1.7zM40 68.9c-.4 0-.7-.3-.7-.7v-1.7c0-.4.3-.7.7-.7.4 0 .7.3.7.7v1.7c0 .3-.3.7-.7.7zM40 14.3c-.4 0-.7-.3-.7-.7v-1.7c0-.4.3-.7.7-.7.4 0 .7.3.7.7v1.7c0 .3-.3.7-.7.7z"/></g><g><path fill="#154F78" d="M30.3 51.1c-.4 0-.8-.1-1-.4-.6-.6-.6-1.5 0-2.1l9.3-9.3c.6-.6 1.5-.6 2.1 0 .6.6.6 1.5 0 2.1l-9.3 9.3c-.3.2-.7.4-1.1.4z"/></g><path fill="#FFF" d="M43.4 40c0 1.9-1.5 3.4-3.4 3.4s-3.4-1.5-3.4-3.4 1.5-3.4 3.4-3.4c1.9-.1 3.4 1.5 3.4 3.4z"/><circle fill="#F16228" cx="40" cy="40" r="1.7"/><g><path fill="#F16228" d="M40 40.7c-.3 0-.6-.2-.7-.5-.1-.4.1-.8.5-.9L59 33.5c.4-.1.8.1.9.5.1.4-.1.8-.5.9l-19.2 5.8H40z"/></g></svg>