<svg xmlns="http://www.w3.org/2000/svg" xmlns:xlink="http://www.w3.org/1999/xlink" viewBox="0 0 84.5 61.4"><path fill="#DB6230" d="M46.2 2.6C29.1.2 12.6 9.4 2.4 25.1 7.9 43 21.1 56.4 38.2 58.8 55.3 61.2 71.8 52 82 36.3 76.6 18.5 63.3 5 46.2 2.6z"/><path fill="#F3D97F" d="M37.9 61C20.6 58.6 6.2 45 .3 25.7l-.3-1 .6-.9C11.6 6.9 29.2-2.1 46.6.3c17.3 2.5 31.7 16 37.6 35.3l.3 1-.6.9c-11 17-28.6 26-46 23.5z"/><defs><path id="a" d="M44.4 15.4c-17.1-2.4-32.9 1.7-42 9.7 6.5 10.3 20.5 18.6 37.6 21 17.1 2.4 32.9-1.6 42-9.7-6.5-10.3-20.5-18.6-37.6-21z"/></defs><use xlink:href="#a" overflow="visible" fill="#FFF"/><clipPath id="b"><use xlink:href="#a" overflow="visible"/></clipPath><path clip-path="url(#b)" fill="#42A3BC" d="M67.6 34.3c-2 14-15 23.8-29 21.8s-23.8-15-21.8-29 15-23.8 29-21.8c14.1 2 23.8 15 21.8 29z"/><path clip-path="url(#b)" fill="#484F59" d="M57.1 32.8c-1.2 8.2-8.8 13.9-17 12.7-8.2-1.2-13.9-8.8-12.7-17 1.2-8.2 8.8-13.9 17-12.7 8.1 1.2 13.9 8.8 12.7 17z"/><path fill="#FFF" d="M61.5 30.6c-2.2 2.2-5.8 2.2-8.1-.1-2.2-2.2-2.2-5.9.1-8.1 2.2-2.2 5.9-2.2 8.1.1 2.2 2.3 2.2 5.9-.1 8.1zM55.1 38.9c-1 1-2.7 1-3.7 0s-1-2.7 0-3.7 2.7-1 3.7 0 1 2.7 0 3.7z"/></svg>