<svg xmlns="http://www.w3.org/2000/svg" viewBox="0 0 89.9 83.5"><path fill="#8FC3D5" d="M82.6 45.3c0-.4.1-.8.1-1.2v-1.9-2c0-.4-.1-.8-.1-1.2v-.6C80.7 17.4 62.9.8 41.4.8 20.5.8 3.2 16.4.4 36.6v.2c-.1.5-.1 1.1-.2 1.6 0 .3 0 .5-.1.8 0 .4-.1.7-.1 1.1 0 .7-.1 1.3-.1 2 0 .6 0 1.3.1 2 0 .4 0 .7.1 1.1 0 .2 0 .5.1.8 0 .5.1 1.1.2 1.6v.2c2.7 20.2 20.1 35.8 41 35.8 21.5 0 39.3-16.5 41.2-37.6v-.9z"/><path fill="#A6D9E8" d="M41.4.7C20.5.7 3.2 16.3.4 36.5v.2c-.1.5-.1 1.1-.2 1.6 0 .3 0 .5-.1.8 0 .4-.1.7-.1 1.1 0 .7-.1 1.3-.1 2 0 .6 0 1.3.1 2 0 .4 0 .7.1 1.1 0 .2 0 .5.1.8 0 .5.1 1.1.2 1.6v.2c2.7 20.2 20.1 35.8 41 35.8V.7z"/><g fill="#D0EAF9"><path d="M75.1 59c-.1.3-.3.6-.4.8-.1.2-.3.5-.4.8-.2.3-.3.5-.5.8-.1.2-.3.5-.4.7-.2.3-.3.5-.5.8-.2.2-.3.5-.5.7-.2.3-.4.5-.5.8-.2.2-.3.5-.5.7-.2.2-.4.5-.6.7-.2.2-.4.4-.5.7-.2.2-.4.5-.6.7l-.6.6c-.2.2-.4.5-.6.7l-.6.6c-.2.2-.5.4-.7.7l-.6.6c-.2.2-.5.4-.7.6-.2.2-.4.4-.6.5-.2.2-.5.4-.7.6-.2.2-.4.3-.7.5-.3.2-.5.4-.8.6-.2.2-.5.3-.7.5-.3.2-.5.3-.8.5-.2.1-.5.3-.7.4-.3.2-.6.3-.8.5-.2.1-.5.3-.7.4-.3.2-.6.3-.9.5-.2.1-.5.2-.7.4-.3.1-.6.3-.9.4-.2.1-.5.2-.7.3-.3.1-.6.3-.9.4-.2.1-.5.2-.7.3-.1 0-.1 0-.2.1 4.6-4.6 8.2-11.5 10.2-19.8H76c-.1.1-.1.2-.2.4-.5 0-.6.2-.7.5zM54.9 6.9c.3.1.6.2.9.4.2.1.5.2.7.3.3.1.6.3.9.4.2.1.5.2.7.4.3.2.6.3.9.5.2.1.5.3.7.4.3.2.6.3.8.5.2.1.5.3.7.4.3.2.5.3.8.5.2.2.5.3.7.5.3.2.5.4.8.6.2.2.4.3.7.5.3.2.5.4.7.6.2.2.4.4.6.5.2.2.5.4.7.6l.6.6c.2.2.5.4.7.6l.6.6c.2.2.4.4.6.7l.6.6c.2.2.4.5.6.7.2.2.4.4.5.7.2.2.4.5.6.7.2.2.4.5.5.7.2.3.4.5.5.8.2.2.3.5.5.7.2.3.3.5.5.8.2.2.3.5.4.7.2.3.3.5.5.8.1.3.3.5.4.8.1.3.3.6.4.8.1.3.3.5.4.8.1.1.1.2.2.4H64.2c-2-8.3-5.7-15.2-10.2-19.8.1 0 .1 0 .2.1.2-.1.4 0 .7.1zM62.4 42.1c0 4.2-.4 8.3-1.1 12.1H43.2V30h18.1c.7 3.8 1.1 7.9 1.1 12.1zM60.5 57.9c-3.1 12-9.6 20.6-17.3 21.8V57.9h17.3zM43.2 26.3V4.5c7.7 1.2 14.2 9.8 17.3 21.8H43.2zM79 43.8c0 .3 0 .6-.1.9 0 .2 0 .5-.1.7 0 .4-.1.8-.1 1.3v.1c-.3 2.5-.9 5-1.7 7.5H65c.7-3.8 1.1-7.9 1.1-12.1 0-4.2-.4-8.3-1.1-12.1h12c.8 2.4 1.4 5 1.7 7.5v.1c.1.4.1.8.1 1.2 0 .2 0 .5.1.7 0 .3 0 .6.1.8v1.7c.1.6.1 1.1 0 1.7z"/></g><g fill="#FFF"><path d="M3.9 46.8v-.2c-.1-.4-.1-.8-.1-1.2 0-.3 0-.5-.1-.8 0-.3 0-.5-.1-.8v-1.7-1.7c0-.3 0-.5.1-.8 0-.3 0-.5.1-.8 0-.4.1-.8.1-1.1v-.2c.3-2.5.9-5 1.7-7.4h12.1c-.7 3.8-1.1 7.9-1.1 12.1 0 4.2.4 8.3 1.1 12.1h-12c-.9-2.5-1.4-5-1.8-7.5zM20.3 42.1c0-4.2.4-8.3 1.1-12.1h18.1v24.2H21.4c-.7-3.8-1.1-7.9-1.1-12.1zM39.5 4.5v21.8H22.2c3.1-12 9.7-20.6 17.3-21.8zM39.5 57.9v21.8c-7.7-1.2-14.2-9.8-17.3-21.8h17.3zM28.8 6.5c-4.6 4.6-8.2 11.5-10.2 19.8H7.1C11.3 17.2 19.2 10 28.8 6.5zM7.1 57.9h11.4c2 8.3 5.7 15.2 10.2 19.8C19.2 74.2 11.3 67 7.1 57.9z"/></g><g><path fill="#484F59" d="M88.5 22.7h-3.3c-.2-1.2-.6-2.3-1-3.4l2.8-1.6c.7-.4.9-1.2.5-1.9L84.7 11c-.4-.7-1.2-.9-1.9-.5L79.9 12c-.8-.9-1.6-1.7-2.5-2.5L79 6.8c.4-.7.2-1.5-.5-1.9l-4.8-2.8c-.7-.4-1.5-.2-1.9.5l-1.7 2.9c-1.1-.4-2.3-.7-3.4-.9V1.4c0-.8-.6-1.4-1.4-1.4h-5.6c-.8 0-1.4.6-1.4 1.4v3.3c-1.2.2-2.3.6-3.4 1l-1.6-2.8c-.4-.7-1.3-.9-1.9-.5l-4.8 2.8c-.7.4-.9 1.2-.5 1.9l1.7 2.9c-.9.8-1.7 1.6-2.5 2.5l-2.8-1.6c-.7-.4-1.5-.2-1.9.5l-2.8 4.8c-.4.7-.2 1.5.5 1.9l2.9 1.7c-.4 1.1-.7 2.3-.9 3.4H37c-.8 0-1.4.6-1.4 1.4v5.6c0 .8.6 1.4 1.4 1.4h3.3c.2 1.2.6 2.3 1 3.4l-2.8 1.6c-.7.4-.9 1.2-.5 1.9l2.8 4.8c.4.7 1.2.9 1.9.5l2.9-1.7c.8.9 1.6 1.7 2.5 2.5l-1.6 2.8c-.4.7-.2 1.5.5 1.9l4.8 2.8c.7.4 1.5.2 1.9-.5l1.7-2.9c1.1.4 2.3.7 3.4.9v3.2c0 .8.6 1.4 1.4 1.4h5.6c.8 0 1.4-.6 1.4-1.4v-3.3c1.2-.2 2.3-.6 3.4-1l1.6 2.8c.4.7 1.2.9 1.9.5l4.8-2.8c.7-.4.9-1.2.5-1.9l-1.7-2.9c.9-.8 1.7-1.6 2.5-2.5l2.8 1.6c.7.4 1.5.2 1.9-.5l2.8-4.8c.4-.7.2-1.5-.5-1.9l-2.9-1.7c.4-1.1.7-2.3.9-3.4h3.2c.8 0 1.4-.6 1.4-1.4V24c.1-.7-.5-1.3-1.3-1.3zM62.8 38.3c-6.2 0-11.1-5-11.1-11.1 0-6.2 5-11.1 11.1-11.1 6.2 0 11.1 5 11.1 11.1S69 38.3 62.8 38.3z"/><path fill="#5A6274" d="M62.3 41.6c-7.8-.3-14-6.6-14-14.5 0-7.8 6.2-14.2 14-14.5V0h-2.6c-.8 0-1.4.6-1.4 1.4v3.3c-1.2.2-2.3.6-3.4 1l-1.6-2.8c-.4-.7-1.3-.9-1.9-.5l-4.8 2.8c-.7.4-.9 1.2-.5 1.9l1.7 2.9c-.9.8-1.7 1.6-2.5 2.5l-2.8-1.6c-.7-.4-1.5-.2-1.9.5l-2.8 4.8c-.4.7-.2 1.5.5 1.9l2.9 1.7c-.4 1.1-.7 2.3-.9 3.4H37c-.8 0-1.4.6-1.4 1.4v5.6c0 .8.6 1.4 1.4 1.4h3.3c.2 1.2.6 2.3 1 3.4l-2.8 1.6c-.7.4-.9 1.2-.5 1.9l2.8 4.8c.4.7 1.2.9 1.9.5l2.9-1.7c.8.9 1.6 1.7 2.5 2.5l-1.6 2.8c-.4.7-.2 1.5.5 1.9l4.8 2.8c.7.4 1.5.2 1.9-.5l1.7-2.9c1.1.4 2.3.7 3.4.9v3.2c0 .8.6 1.4 1.4 1.4h2V41.6z"/><path fill="#484F59" d="M62.8 9.5c-9.7 0-17.6 7.9-17.6 17.6 0 9.7 7.9 17.6 17.6 17.6 9.7 0 17.6-7.9 17.6-17.6 0-9.7-7.9-17.6-17.6-17.6zm0 32.1c-8 0-14.5-6.5-14.5-14.5s6.5-14.5 14.5-14.5 14.5 6.5 14.5 14.5-6.5 14.5-14.5 14.5z"/><path fill="#5A6274" d="M62.8 9.5h-.5v3.2h.5c8 0 14.5 6.5 14.5 14.5s-6.5 14.5-14.5 14.5h-.5v3.2h.5c9.7 0 17.6-7.9 17.6-17.6 0-9.9-7.9-17.8-17.6-17.8z"/><path fill="#5A6274" d="M62.8 12.4h-.4V15h.4c6.7 0 12.1 5.4 12.1 12.1 0 6.7-5.4 12.1-12.1 12.1h-.4v2.6h.4c8.2 0 14.8-6.6 14.8-14.8S71 12.4 62.8 12.4z"/></g></svg>