<svg xmlns="http://www.w3.org/2000/svg" viewBox="0 0 146 129.3"><path fill="#84C88D" d="M59.2 129.2l77.3-23.3c.1 0 .2-.1.3-.2 1.4-.5 2.7-1.1 3.8-1.8 5.5-3.8 6.9-10.9 3.6-16.6 0-.2-.1-.3-.2-.4l-.3-.4-11.4-16.4L84 .7c-.4-.6-1.1-.8-1.8-.6L4.9 23.3c-.2 0-.3.1-.5.2-.3.2-.5.5-.6.8-.2.5-.1 1.1.2 1.5l10 14.3C1 44 1 44 .7 44.2c-.7.5-.9 1.5-.4 2.3l57.1 82.1c.4.6 1.1.9 1.8.6z"/><path fill="#7BC185" d="M.7 44.2c-.2.2-.4.4-.5.7l58.6 83.2 77.7-23.3h.1c1.7-.4 3.1-1 4.2-1.8 4.3-3 5.2-8.8 2.3-13.4-.8-.9-2.7-2.6-4.5-2.5-2.1.1-4.5.9-4.6.9l-73.3 20.9c-.7.2-1.5-.1-2-.7L11.9 40.8C1 44.1.9 44.1.7 44.2z"/><path fill="#D0EAF9" d="M61.1 107.9L9.4 33.6c.4 3.3-1 6.6-3.9 8.7-.8.6-1.9 1-3.1 1.4l57.1 82.1 75.2-22.6h.1c1.7-.4 3-1 4.1-1.8 4.1-2.9 5.1-8.3 2.5-12.5-.7-.8-2.5-2.4-4.2-2.2-2 .2-4.3.9-4.3.9l-69.7 21.1c-1 .1-1.7-.2-2.1-.8z"/><path fill="#FFF" d="M5.4 42.2c-.8.6-1.9 1-3.1 1.4l57.1 82.1 3.2-1c.3-.2.5-.3.8-.5 4.3-3 5.4-8.7 2.6-13.1-.7-.7-2.1-2-3.7-2.3l-.2-.3c-.4-.1-.8-.3-1-.6L9.4 33.6c.3 3.3-1 6.6-4 8.6z"/></svg>