<svg xmlns="http://www.w3.org/2000/svg" viewBox="0 0 198.3 198.4"><path fill="#F3D97F" d="M56.4 87.6c-1.6 5.8-2 12-1.1 18.3C59 130 81.6 146.7 105.8 143c4.9-.8 9.4-2.5 13.6-4.6l35 43c-11.8 7.9-25.4 13.6-40.4 15.8-54.1 8.2-104.7-29-113-83.1C-1.7 96 .7 78.4 7 62.6l49.4 25z"/><path fill="#5A6274" d="M79.3 59.8c-5.8 2.9-10.7 6.9-14.6 11.8L15.3 46.5C26.7 28.2 44 13.7 65 6.1l14.3 53.7z"/><path fill="#AED5A5" d="M140.7 83.7c-6.7-18-24.5-29.7-44-28.6L82.4 1.5c.6-.1 1.2-.3 1.8-.4 51.1-7.8 99 25 111.1 74.3l-54.6 8.3z"/><path fill="#5A6274" d="M133.5 127c5.8-7.1 9.5-15.9 10-25.5l54.7-8.3c1.8 29.5-9.7 57.2-29.7 76.7l-35-42.9z"/></svg>