<svg xmlns="http://www.w3.org/2000/svg" viewBox="0 0 124.2 123.8"><path fill="#DBE3E5" d="M124.196 33.22l-24.9 50.607-67.478-33.2L56.718.018z"/><path fill="#73BBC4" d="M118.167 35.273L97.24 77.805l-59.4-29.227L58.765 6.046z"/><path fill="#5F9BA3" d="M37.9 48.5l80.3-13.3-20.9 42.5"/><g><path fill="#FFF" d="M17.7 123.8L0 70.3l71.4-23.6 17.7 53.5"/><path fill="#F3D97F" d="M68.47 52.354L83.344 97.36l-62.857 20.774L5.613 73.128z"/><path fill="#EFC967" d="M20.5 118.1l48-65.7 14.9 45"/><path fill="#5A6274" d="M51.5 107.8c.2-.1.4.1.4-.1l-5.2-15.8c-.1-.2-.3-.3-.5-.3-.2.1-.3.3-.3.5l5.2 15.8c.1.2.2-.1.4-.1z"/><path fill="#5A6274" d="M49.8 102.6c.1-.2 0-.4-.2-.5l-3.2-1.6c-.2-.1-.4 0-.5.2-.1.2 0 .4.2.5l3.2 1.6c.2 0 .4 0 .5-.2z"/><path fill="#5A6274" d="M37.3 96.3c1.7-1.6 4.3-2.1 6.6-1 2.2 1.1 3.4 3.5 3.1 5.9-1.7 1.6-4.4 2.1-6.6 1-2.2-1.2-3.4-3.6-3.1-5.9z"/><path fill="#484F59" d="M47 101.2c-1.7 1.6-4.4 2.1-6.6 1-2.2-1.1-3.4-3.5-3.1-5.9"/><path fill="#5A6274" d="M49.8 102.6c-.2-.1-.3-.3-.2-.5l1.6-3.2c.1-.2.3-.3.5-.2.2.1.3.3.2.5l-1.6 3.2c0 .2-.3.3-.5.2z"/><path fill="#5A6274" d="M56.1 90c-2.4-.3-4.7.9-5.9 3.1-1.1 2.2-.7 4.9 1 6.6 2.4.3 4.7-.9 5.9-3.1 1.1-2.2.7-4.8-1-6.6z"/><path fill="#484F59" d="M51.2 99.8c2.4.3 4.7-.9 5.9-3.1 1.1-2.2.7-4.9-1-6.6"/><path fill="#EA8357" d="M41.2 88.7c-.9 8.1-12.9.3-6.3-4.1-6.6 4.4-7.9-9.9-.7-7.5-7.2-2.4 3.1-12.3 5.4-5.3-2.3-7.1 11.9-5.2 7.5 1 4.4-6.2 11.8 6.1 3.9 6.5 7.9-.4 2.9 13.1-2.6 7.1 2.4 2.6 1.2 4.9-.8 6l-2.1.7c-2.3.3-4.6-.9-4.3-4.4z"/><path fill="#D36F40" d="M39.5 71.5c-1.8-6.7 11.9-4.8 7.6 1.3 4.4-6.2 11.8 6.1 3.9 6.5 7.9-.4 2.9 13.1-2.6 7.1 2.4 2.6 1.2 4.9-.8 6l-1.1.3-7-21.2z"/><path fill="#FFF" d="M46.9 79.3c-.8-2.4-3.4-3.7-5.8-2.9-2.4.8-3.7 3.4-2.9 5.8.8 2.4 3.4 3.7 5.8 2.9 2.4-.8 3.7-3.4 2.9-5.8z"/><path fill="#D0EAF9" d="M41.1 76.3c2.4-.8 5 .5 5.8 2.9.8 2.4-.5 5-2.9 5.8l-2.9-8.7z"/></g></svg>