<svg xmlns="http://www.w3.org/2000/svg" viewBox="0 0 121.9 135.2"><path fill="#484F59" d="M70.9 117.7c2 1.4 2.5 4.1 1.1 6.1l-6.7 9.6c-1.4 2-4.1 2.5-6.1 1.1l-24.5-17.1c-2-1.4-2.5-4.1-1.1-6.1l6.7-9.6c1.4-2 4.1-2.5 6.1-1.1l24.5 17.1z"/><path fill="#5A6274" d="M76 37c-4.5 0-8.2 3.7-8.2 8.2 0 4.6 3.7 8.2 8.2 8.2 4.6 0 8.2-3.7 8.2-8.2.1-4.5-3.6-8.2-8.2-8.2z"/><path fill="#FFF" d="M22.2 66l24.2 24.3 32.4-32.4-37.4-37.5c.8 12.1-2 24.3-8.7 34.4-3 4.4-6.6 8.2-10.5 11.2z"/><path fill="#5A6274" d="M22.9 65.2L5.1 83c-6.8 6.8-6.8 17.9 0 24.7l8.5 8.5c6.8 6.8 17.9 6.8 24.7 0l17.8-17.8-33.2-33.2z"/><path fill="#84C88D" d="M104.4 80.2c-1.5 1.5-4.2 1.4-6-.4L41.5 22.9c-1.8-1.8-2-4.5-.4-6l2.8-2.8c1.6-1.5 4.2-1.4 6 .4l56.9 56.9c1.8 1.8 1.9 4.5.4 6l-2.8 2.8z"/><path fill="#D0EAF9" d="M100.8 79.9L70.9 50 38.6 82.4 55.2 99c3-3.9 6.8-7.4 11.2-10.4 10.1-6.8 22.3-9.5 34.4-8.7z"/><path fill="#484F59" d="M39.3 81.6L9.2 111.8l4.4 4.4c6.8 6.8 17.9 6.8 24.7 0l17.8-17.8-16.8-16.8z"/><path fill="#7BC185" d="M106.8 71.4L78.2 42.8l-8.4 8.4 28.7 28.7c1.8 1.8 4.5 1.9 6 .4l2.8-2.8c1.5-1.6 1.3-4.3-.5-6.1z"/><path fill="#5A6274" d="M45.1 114.7c-1.3-.9-3-.6-3.9.7-.9 1.3-.6 3 .7 3.9l18.3 12.6c1.3.9 3 .6 3.9-.7.9-1.3.6-3-.7-3.9l-18.3-12.6z"/><g><path fill="#F1F9FA" d="M108.78 11.207l1.908 1.91-21.92 21.92-1.91-1.91zM91.384-.007l2.555.87L83.93 30.207l-2.555-.872zM121.016 27.928l.872 2.555L92.546 40.49l-.87-2.556z"/></g></svg>