<svg xmlns="http://www.w3.org/2000/svg" viewBox="0 0 15.4 57.4"><path fill="#5F9BA3" d="M15.4 7.3c0 1.1-.2 2.5-.6 4.2-.4 1.8-.9 3.8-1.5 6.2-.6 2.2-1.2 5-1.9 8.3-.7 3.3-1.5 7.4-2.3 12.3h-3c-.7-5-1.4-9.1-2.1-12.4-.7-3.3-1.3-6.1-1.8-8.3-.5-2-.9-4.1-1.3-6-.4-2-.6-3.4-.6-4.4 0-2 .8-3.7 2.3-5.1C4 .7 5.8 0 7.9 0c2.1 0 3.8.7 5.3 2.2 1.5 1.4 2.2 3.1 2.2 5.1zm-.4 43c0 2-.8 3.7-2.3 5.1-1.5 1.4-3.3 2.1-5.2 2.1-2 0-3.8-.7-5.3-2.2C.7 53.8 0 52.1 0 50.2c0-2 .8-3.7 2.3-5.1C3.8 43.7 5.6 43 7.6 43s3.7.7 5.2 2.2c1.5 1.4 2.2 3.1 2.2 5.1z"/><path fill="#DB6230" d="M15.4 7.3c0 1.1-.2 2.5-.6 4.2-.4 1.8-.9 3.8-1.5 6.2-.6 2.2-1.2 5-1.9 8.3-.7 3.3-1.5 7.4-2.3 12.3h-3c-.7-5-1.4-9.1-2.1-12.4-.7-3.3-1.3-6.1-1.8-8.3-.5-2-.9-4.1-1.3-6-.4-2-.6-3.4-.6-4.4 0-2 .8-3.7 2.3-5.1C4 .7 5.8 0 7.9 0c2.1 0 3.8.7 5.3 2.2 1.5 1.4 2.2 3.1 2.2 5.1zm-.4 43c0 2-.8 3.7-2.3 5.1-1.5 1.4-3.3 2.1-5.2 2.1-2 0-3.8-.7-5.3-2.2C.7 53.8 0 52.1 0 50.2c0-2 .8-3.7 2.3-5.1C3.8 43.7 5.6 43 7.6 43s3.7.7 5.2 2.2c1.5 1.4 2.2 3.1 2.2 5.1z"/><g fill="#F26C37"><path d="M7.1 43c-1.8.1-3.4.8-4.8 2.1C.8 46.5 0 48.2 0 50.2c0 2 .7 3.7 2.2 5.1 1.4 1.3 3 2 4.8 2.1L7.1 43zM2.2 17.6c.5 2.2 1.1 5 1.8 8.3.7 3.3 1.4 7.4 2.1 12.4h1L7.4 0C5.5.1 3.9.7 2.5 2 1 3.5.3 5.2.3 7.2c0 1 .2 2.5.6 4.4.4 2 .8 4 1.3 6z"/></g></svg>