<svg xmlns="http://www.w3.org/2000/svg" viewBox="0 0 75.5 75.4"><path fill="#7BC185" d="M57.1 24.5h-3.6c-.3-1.3-.6-2.5-1-3.7l3-1.7c.7-.4 1-1.3.6-2.1l-3-5.2c-.4-.7-1.3-1-2.1-.6L47.9 13c-.8-1-1.8-1.9-2.7-2.7l1.7-3c.4-.7.2-1.6-.6-2.1l-5.2-3c-.7-.4-1.6-.2-2.1.6l-1.8 3.1c-1.2-.4-2.4-.7-3.7-.9V1.5C33.5.7 32.8 0 32 0h-6c-.8 0-1.5.7-1.5 1.5v3.6c-1.3.3-2.5.6-3.7 1l-1.7-3c-.4-.7-1.3-1-2.1-.5l-5.2 3c-.7.4-1 1.3-.5 2.1l1.8 3.1c-1 .8-1.9 1.8-2.7 2.7l-3-1.7c-.7-.4-1.7-.2-2.1.6l-3 5.2c-.4.7-.2 1.6.6 2.1L6 21.5c-.4 1.2-.7 2.4-.9 3.7H1.5c-.8 0-1.5.7-1.5 1.5v6c0 .8.7 1.5 1.5 1.5h3.6c.3 1.3.6 2.5 1 3.7l-3 1.7c-.7.4-1 1.3-.6 2.1l3 5.2c.4.7 1.3 1 2.1.6l3.1-1.8c.8 1 1.8 1.9 2.7 2.7l-1.7 3c-.4.7-.2 1.6.6 2.1l5.2 3c.7.4 1.6.2 2.1-.5l1.8-3.1c1.2.4 2.4.7 3.7.9v3.5c0 .8.7 1.5 1.5 1.5h6c.8 0 1.5-.7 1.5-1.5v-3.6c1.3-.3 2.5-.6 3.7-1l1.7 3c.4.7 1.3 1 2.1.5l5.2-3c.7-.4 1-1.3.5-2.1L45.5 48c1-.8 1.9-1.8 2.7-2.7l3 1.7c.7.4 1.6.2 2.1-.6l3-5.2c.4-.7.2-1.6-.5-2.1l-3.1-1.8c.4-1.2.7-2.4.9-3.7h3.5c.8 0 1.5-.7 1.5-1.5v-6c0-1-.6-1.6-1.5-1.6zM29.3 45c-8.6 0-15.6-7-15.6-15.6s7-15.6 15.6-15.6 15.6 7 15.6 15.6C45 38 38 45 29.3 45z"/><path fill="#84C88D" d="M28.8 45c-8.4-.3-15.1-7.2-15.1-15.6 0-8.5 6.7-15.4 15.1-15.6V0H26c-.8 0-1.5.7-1.5 1.5v3.6c-1.3.3-2.5.6-3.7 1l-1.7-3c-.4-.7-1.3-1-2.1-.5l-5.2 3c-.7.4-1 1.3-.5 2.1l1.8 3.1c-1 .8-1.9 1.8-2.7 2.7l-3-1.7c-.7-.4-1.7-.2-2.1.6l-3 5.2c-.4.7-.2 1.6.6 2.1L6 21.5c-.4 1.2-.7 2.4-.9 3.7H1.5c-.8 0-1.5.7-1.5 1.5v6c0 .8.7 1.5 1.5 1.5h3.6c.3 1.3.6 2.5 1 3.7l-3 1.7c-.7.4-1 1.3-.6 2.1l3 5.2c.4.7 1.3 1 2.1.6l3.1-1.8c.8 1 1.8 1.9 2.7 2.7l-1.7 3c-.4.7-.2 1.6.6 2.1l5.2 3c.7.4 1.6.2 2.1-.5l1.8-3.1c1.2.4 2.4.7 3.7.9v3.5c0 .8.7 1.5 1.5 1.5h2.2V45z"/><path fill="#7BC185" d="M29.3 10.3c-10.5 0-19.1 8.5-19.1 19.1 0 10.5 8.5 19 19.1 19 10.5 0 19.1-8.5 19.1-19 0-10.6-8.6-19.1-19.1-19.1zm0 34.7c-8.6 0-15.6-7-15.6-15.6s7-15.6 15.6-15.6 15.6 7 15.6 15.6C45 38 38 45 29.3 45z"/><path fill="#84C88D" d="M29.3 10.3h-.5v3.4h.5c8.6 0 15.6 7 15.6 15.6C45 38 38 45 29.3 45h-.5v3.4h.5c10.5 0 19.1-8.5 19.1-19 0-10.6-8.6-19.1-19.1-19.1z"/><path fill="#484F59" d="M74.5 58.6h-2.2c-.5 0-1.1-.4-1.2-.9l-.4-1c-.2-.5-.1-1.1.2-1.5l1.5-1.5c.4-.4.4-.9 0-1.3L70 50c-.4-.4-.9-.4-1.3 0l-1.5 1.5c-.4.4-1 .5-1.5.2l-1-.4c-.5-.2-.9-.7-.9-1.2V48c0-.5-.4-.9-.9-.9h-3.4c-.5 0-.9.4-.9.9v2.2c0 .5-.4 1.1-.9 1.2l-1 .4c-.5.2-1.1.1-1.5-.2l-1.5-1.5c-.4-.4-.9-.4-1.3 0L50 52.5c-.4.4-.4.9 0 1.3l1.5 1.5c.4.4.5 1 .2 1.5l-.4 1c-.2.5-.7.9-1.2.9h-2.2c-.5 0-.9.4-.9.9V63c0 .5.4.9.9.9h2.2c.5 0 1.1.4 1.2.9l.4 1c.2.5.1 1.1-.2 1.5L50 68.9c-.4.4-.4.9 0 1.3l2.4 2.4c.4.4.9.4 1.3 0l1.5-1.5c.4-.4 1-.5 1.5-.2l1 .4c.5.2.9.7.9 1.2v2.2c0 .5.4.9.9.9H63c.5 0 .9-.4.9-.9v-2.2c0-.5.4-1.1.9-1.2l1-.4c.5-.2 1.1-.1 1.5.2l1.5 1.5c.4.4.9.4 1.3 0l2.4-2.4c.4-.4.4-1 0-1.3L71 67.2c-.4-.4-.5-1-.2-1.5l.4-1c.2-.5.7-.9 1.2-.9h2.2c.5 0 .9-.4.9-.9v-3.4c0-.4-.5-.9-1-.9zm-13.2 7.1c-2.5 0-4.5-2-4.5-4.5s2-4.5 4.5-4.5 4.5 2 4.5 4.5-2 4.5-4.5 4.5z"/><path fill="#5A6274" d="M61.4 65.7c-2.5 0-4.5-2-4.5-4.5s2-4.5 4.5-4.5V47h-1.7c-.5 0-.9.4-.9.9v2.2c0 .5-.4 1.1-.9 1.2l-1 .4c-.5.2-1.1.1-1.5-.2L53.9 50c-.4-.4-.9-.4-1.3 0l-2.4 2.4c-.4.4-.4.9 0 1.3l1.5 1.5c.4.4.5 1 .2 1.5l-.4 1c-.2.5-.7.9-1.2.9h-2.2c-.5 0-.9.4-.9.9V63c0 .5.4.9.9.9h2.2c.5 0 1.1.4 1.2.9l.4 1c.2.5.1 1.1-.2 1.5l-1.5 1.6c-.4.4-.4.9 0 1.3l2.4 2.4c.4.4.9.4 1.3 0l1.5-1.5c.4-.4 1-.5 1.5-.2l1 .4c.5.2.9.7.9 1.2v2.2c0 .5.4.9.9.9h1.7v-9.9z"/></svg>