<svg xmlns="http://www.w3.org/2000/svg" viewBox="0 0 26.5 26.5"><path fill="#5A6274" d="M.9 10.8h2c.5 0 1-.4 1.1-.8l.4-.9c.2-.4.1-1-.2-1.4L2.8 6.2c-.4-.3-.4-.9 0-1.2L5 2.8c.3-.3.9-.3 1.2 0l1.4 1.5c.3.3 1 .4 1.4.2l1-.4c.4-.2.8-.7.8-1.1V1c0-.5.4-.9.9-.9h3.2c.5 0 .9.4.9.9v2c0 .5.4 1 .8 1.1l.9.4c.4.2 1.1.1 1.4-.2l1.5-1.5c.3-.3.9-.3 1.2 0L23.8 5c.3.3.3.9 0 1.2l-1.4 1.5c-.3.3-.4 1-.2 1.4l.4.9c.2.5.7.8 1.1.8h2.1c.5 0 .9.4.9.9v3.2c0 .5-.4.9-.9.9h-2.1c-.5 0-1 .4-1.1.8l-.4.9c-.2.4-.1 1.1.2 1.4l1.4 1.4c.3.3.3.9 0 1.2l-2.2 2.2c-.3.3-.9.3-1.2 0l-1.5-1.4c-.3-.3-1-.4-1.4-.2l-.9.4c-.5.1-.8.7-.8 1.1v2.1c0 .5-.4.9-.9.9h-3.2c-.5 0-.9-.4-.9-.9v-2.1c0-.5-.4-1-.8-1.1l-.9-.4c-.4-.2-1-.1-1.4.2l-1.4 1.4c-.3.3-.9.3-1.2 0l-2.2-2.2c-.3-.3-.3-.9 0-1.2l1.4-1.4c.3-.3.4-1 .2-1.4l-.4-.9c-.2-.4-.7-.8-1.1-.8H1c-.5 0-.9-.4-.9-.9v-3.2c-.1-.5.3-.9.8-.9zm12.4 6.6c2.3 0 4.2-1.9 4.2-4.2 0-2.3-1.9-4.2-4.2-4.2-2.3 0-4.2 1.9-4.2 4.2 0 2.4 1.8 4.2 4.2 4.2z"/><path fill="#484F59" d="M13.2 17.4c2.3 0 4.2-1.9 4.2-4.2 0-2.3-1.9-4.2-4.2-4.2V0h1.6c.5 0 .9.4.9.9v2c0 .5.4 1 .8 1.1l.9.4c.4.2 1.1.1 1.4-.2l1.5-1.5c.3-.3.9-.3 1.2 0L23.8 5c.3.3.3.9 0 1.2l-1.4 1.5c-.3.3-.4 1-.2 1.4l.4.9c.2.5.7.8 1.1.8h2.1c.5 0 .9.4.9.9v3.2c0 .5-.4.9-.9.9h-2.1c-.5 0-1 .4-1.1.8l-.4.9c-.2.4-.1 1.1.2 1.4l1.4 1.4c.3.3.3.9 0 1.2l-2.2 2.2c-.3.3-.9.3-1.2 0l-1.5-1.4c-.3-.3-1-.4-1.4-.2l-.9.4c-.5.1-.8.7-.8 1.1v2.1c0 .5-.4.9-.9.9h-1.6v-9.2z"/></svg>