<svg xmlns="http://www.w3.org/2000/svg" viewBox="0 0 52.4 45.4"><path fill="#5A6274" d="M52.4 33.1c-13.8 6-28 10.1-42.9 12.3C3.9 35.1.7 24 0 12.3 13.8 6.3 28 2.2 42.9 0c5.6 10.3 8.7 21.4 9.5 33.1z"/><path fill="#484F59" d="M9.5 45.4c14.8-2.2 29.1-6.3 42.9-12.3-.4-5.9-1.4-11.6-3-17.1L2.9 29.3c1.6 5.6 3.8 10.9 6.6 16.1z"/><path fill="#FFF" d="M34.7 19.2c1 .3 1.2 1.1.5 1.9L25.1 32.5c-.7.8-1.5.5-1.8-.5l-4.5-15.6c-.3-1 .2-1.7 1.2-1.4l14.7 4.2z"/><path fill="#DBE3E5" d="M23.3 32c.3 1 1.1 1.3 1.8.5l10.2-11.4c.4-.4.5-.8.3-1.2L21 24.1l2.3 7.9z"/></svg>