<svg xmlns="http://www.w3.org/2000/svg" viewBox="0 0 67.1 58.3"><path fill="#A4D7E6" d="M67.1 26.4c0-7.9-6.4-14.4-14.4-14.4-1.7 0-3.3.3-4.8.9C46.1 5.5 39.5 0 31.6 0 22.4 0 15 7.3 14.8 16.4c-.8-.2-1.7-.3-2.5-.3C5.5 16.2 0 21.7 0 28.5 0 34 3.7 38.7 8.8 40.2c1 .3 2.1.5 3.2.5h41.4c1.3 0 2.5-.2 3.6-.7 5.8-1.7 10.1-7.2 10.1-13.6z"/><path fill="#8DC1D4" d="M52.7 12.1c-1.7 0-3.3.3-4.8.9-1.8-7.5-8.4-13-16.3-13h-.9v40.7h22.8c1.3 0 2.5-.2 3.6-.7 5.8-1.8 10-7.3 10-13.7 0-7.8-6.5-14.2-14.4-14.2z"/><g><path fill="#484F59" d="M20.9 45.5l4.9 5.2c.5.5 1.3 1.4 1.9 2l4.9 5.2c.5.5 1.3.5 1.9 0l4.9-5.2c.5-.5 1.3-1.4 1.9-2l4.9-5.2c.5-.5.3-1-.4-1h-6V24.2c0-.7-.6-1.4-1.4-1.4h-9.7c-.7 0-1.4.6-1.4 1.4v20.4h-6c-.7-.1-.9.4-.4.9z"/><path fill="#5A6274" d="M25.8 50.7c.5.5 1.3 1.4 1.9 2l4.9 5.2c.3.4.8.5 1.2.4V22.8h-5.2c-.7 0-1.4.6-1.4 1.4v20.4h-6c-.7 0-.9.4-.4 1l5 5.1z"/></g></svg>