<svg xmlns="http://www.w3.org/2000/svg" viewBox="0 0 95.9 89.6"><path fill="#D0EAF9" d="M27.5 2.3c1.7-2.4 5-3 7.4-1.3l58.7 40.5c2.4 1.7 3 5 1.4 7.4L68.4 87.3c-1.7 2.4-5 3-7.4 1.4L2.3 48.1c-2.4-1.7-3-5-1.4-7.4L27.5 2.3z"/><path fill="#8FC3D5" d="M38.1 36.6L.3 42.3c-.6 2.2.2 4.5 2 5.8L61 88.7c1.9 1.3 4.3 1.1 6.2-.2L59 50.7 38.1 36.6z"/><path fill="#FFF" d="M37.2 37.9l-37 4.6c-.5 2.1.3 4.4 2.1 5.7L61 88.7c1.9 1.3 4.3 1.2 6 0L58.2 52l-21-14.1z"/><path fill="#8FC3D5" d="M28.6 1.2L39.5 57l56-9.6c.6-2.2-.1-4.6-1.9-5.9L34.9.9c-1.9-1.2-4.4-1.1-6.3.3z"/><path fill="#FFF" d="M28.8 1l12.8 52.9 54-6.7c.5-2.1-.3-4.4-2.1-5.7L34.9.9C33-.3 30.6-.3 28.8 1z"/></svg>