<svg xmlns="http://www.w3.org/2000/svg" viewBox="0 0 195.3 193"><path fill="#CCEAF1" d="M58.7 105.2c-.9 2.5-3.6 3.9-6.1 3L18.8 96.8c-2.6-.8 3.8-12.8 4.7-15.3.9-2.5 3.6-3.9 6.1-3l26 20.6c2.6.9 3.9 3.6 3.1 6.1z"/><path fill="#2C5871" d="M54.1 109.7c-.7 0-1.3-.1-1.9-.3L18.4 98c-.5-.2-.9-.6-1.2-1.1-.8-1.9.6-5.7 3.8-12.6.6-1.4 1.2-2.5 1.4-3.1 1.1-3.1 4.6-4.8 7.7-3.8l.4.2L56.2 98c3 1.1 4.6 4.5 3.6 7.6-.8 2.5-3.1 4.1-5.7 4.1zM19.4 95.8l33.5 11.4c1.9.6 4-.4 4.6-2.3.6-1.9-.4-4-2.3-4.6l-.4-.2-25.7-20.6c-1.8-.5-3.8.5-4.4 2.3-.2.6-.8 1.9-1.5 3.3-1.2 2.6-4.1 9.1-3.8 10.7z"/><path fill="#CCEAF1" d="M69 93.7c-.9 2.5-3.6 3.9-6.1 3L29.1 85.2c-2.5-.9 3.9-12.8 4.7-15.3.9-2.5 3.6-3.9 6.1-3l26 20.6c2.6.9 3.9 3.6 3.1 6.2z"/><path fill="#2C5871" d="M64.4 98.1c-.7 0-1.3-.1-1.9-.3L28.7 86.4c-.5-.2-.9-.6-1.2-1.1-.8-1.9.6-5.7 3.8-12.6.6-1.4 1.2-2.5 1.4-3.1 1-3.1 4.6-4.8 7.7-3.8l.4.2 25.8 20.5c1.4.5 2.6 1.6 3.3 3 .7 1.5.8 3.1.3 4.6-.9 2.4-3.2 4-5.8 4zM29.7 84.2l33.5 11.4c1.9.6 4-.4 4.6-2.3.3-.9.2-1.9-.2-2.8-.4-.9-1.2-1.5-2.1-1.8l-.4-.2L39.4 68c-1.8-.5-3.8.5-4.4 2.3-.2.6-.8 1.9-1.5 3.4-1.1 2.4-4.1 8.9-3.8 10.5z"/><g><path fill="#CCEAF1" d="M89.1 75.3c-.9 2.5-3.6 3.9-6.1 3L49.2 66.9c-2.5-.9-3.9-3.6-3-6.1.9-2.5 3.6-3.9 6.1-3l33.8 11.4c2.5.8 3.9 3.5 3 6.1z"/><path fill="#2C5871" d="M84.5 79.8c-.7 0-1.3-.1-1.9-.3L48.8 68c-1.5-.5-2.8-1.6-3.5-3-.7-1.4-.8-3.1-.3-4.6 1-3.1 4.6-4.8 7.7-3.8L86.5 68c3.2 1.1 4.9 4.5 3.8 7.7-.9 2.4-3.2 4.1-5.8 4.1zM50.7 58.6c-1.6 0-2.9 1-3.4 2.5-.3.9-.2 1.9.2 2.8.4.9 1.2 1.5 2.1 1.8l33.8 11.4c1.9.6 4-.4 4.6-2.3.6-1.9-.4-4-2.3-4.6L51.9 58.8c-.4-.1-.8-.2-1.2-.2z"/></g><g><path fill="#84C88D" d="M123.8 192.1c-1 1.1-2.7 1.3-3.8.3l-67.3-41.2L1 91.7c-1.1-1-1.3-2.7-.3-3.8L71.5 4.2c1-1.1 2.7-1.3 3.8-.3L125.2 65l69.1 39.6c1.1 1 1.3 2.7.3 3.8l-70.8 83.7z"/><path fill="#A4D7E6" d="M121.5 188.4L55 147.9 4.7 89.5l6.6-7.9L62 140.3l66.2 40.2"/><path fill="#FFF" d="M57.5 145.5l65-76.8c.1 0 .2-.1.3-.2.2-.2.3-.4.5-.7 3.5-3.5 9.2-3.8 13.1-.5l58.8 34-67.7 80-58.8-34c-3.8-2.2-7.5-3.3-11.2-1.8z"/><path fill="#FFF" d="M57.6 145.5l65-76.8c0-.1.1-.2.1-.3l.6-.6c2.9-4.1 2.2-9.7-1.6-13L80.4 0 10.7 82.4 54 134.7c2.6 3.6 4.4 6.9 3.6 10.8z"/><path fill="#CCEAF1" d="M123.3 67.8c2-2.8 2.3-6.5 1-9.5l-67.6 79.9c1.1 2.3 1.5 4.9.9 7.3l65-76.8c0-.1.1-.2.1-.3l.6-.6z"/><path fill="#F26C37" d="M96.5 49.6l-21-28.8 1.9-2.3 21.1 28.8"/><path fill="#A4D7E6" d="M70.15 25.944l35.446 45.78-1.265.98-35.446-45.78zM66.223 30.476l35.453 45.78-1.266.98-35.452-45.78zM62.437 35.02L97.89 80.8l-1.266.98L61.172 36zM58.65 39.563l35.45 45.78-1.264.98-35.452-45.78zM54.725 44.086l35.452 45.776-1.265.98L53.46 45.065zM50.942 48.63l35.452 45.776-1.265.98L49.676 49.61zM47.085 53.092L82.53 98.874l-1.264.98L45.82 54.072zM43.226 57.702l35.452 45.776-1.265.98L41.96 58.682zM39.437 62.245L74.89 108.02l-1.266.98-35.452-45.775zM35.59 66.712l35.453 45.776-1.265.98-35.452-45.776zM31.72 71.322l35.45 45.782-1.264.98-35.452-45.782zM27.94 75.863L63.39 121.64l-1.265.98-35.452-45.777z"/><g><path fill="#A4D7E6" d="M122.123 85.703l51.01 27.392-.757 1.41-51.01-27.393zM118.245 90.18l51.01 27.392-.757 1.41-51.01-27.393zM114.41 94.79l51.01 27.392-.758 1.41-51.01-27.393zM110.62 99.312l51.01 27.393-.756 1.41-51.01-27.393zM106.697 103.876l51.01 27.393-.757 1.41-51.01-27.394zM102.912 108.4l51.01 27.392-.757 1.41-51.01-27.393zM99.126 112.92l51.01 27.393-.757 1.41-51.01-27.393zM95.198 117.485l51.01 27.393-.757 1.41-51.01-27.393zM91.412 122.013l51.01 27.398-.758 1.41-51.01-27.397zM87.528 126.49l51.01 27.398-.757 1.41-51.01-27.4zM83.704 131.094l51.01 27.392-.757 1.41-51.01-27.393zM79.917 135.616l51.01 27.393-.757 1.408-51.01-27.392z"/></g></g></svg>