<svg xmlns="http://www.w3.org/2000/svg" viewBox="0 0 466.8 468.6"><path fill="#5A6274" d="M186 459.6c-2.5 0-4.5 2-4.5 4.5s2 4.5 4.5 4.5h94.8c2.5 0 4.5-2 4.5-4.5s-2-4.5-4.5-4.5H186z"/><path fill="#E1D21F" d="M115.3 227.7c0-65.2 52.9-118.1 118.1-118.1 65.3 0 118.1 52.9 118.1 118.1 0 3.9-2.8 58.5-47.3 115.8-13 17.3-10.9 52.1-10.8 52.1H173c.1 0 2.5-34.8-10.5-52.1-44.4-57.4-47.2-111.9-47.2-115.8z"/><path fill="#F9EC31" d="M233.4 395.5h-60.3c.1 0 2.5-34.8-10.5-52.1-44.5-57.3-47.3-111.9-47.3-115.8 0-65.2 52.9-118.1 118.1-118.1"/><path fill="#F9EC31" d="M326.4 227.7H316c0-45.6-37.1-82.6-82.6-82.6v-10.4c51.3 0 93 41.7 93 93z"/><path fill="#30363D" d="M259.2 404.8L249 403l20.2-122.1 10.2 1.7-20.2 122.2M207.6 404.8l-20.2-122.2 10.3-1.7L217.8 403l-10.2 1.8"/><path fill="#30363D" d="M273.6 298.1c-4.2 0-6.1-4.1-7.4-7.1-.6-1.3-1.8-3.9-2.4-3.9-.6.2-1.4 2.3-1.8 3.4-1.2 3-3 7.6-8 7.6-2.9 0-4.7-2.9-6.7-6.4-.8-1.3-2.1-3.5-3-4.3-.7.8-1.8 2.6-2.5 3.7-2.2 3.6-4.2 7-7.5 7-3.2 0-5.2-3.3-7.3-6.8-.7-1.2-1.8-3.1-2.6-3.9-.8.9-2 2.8-2.7 4.1-2.1 3.5-4 6.7-7.1 6.7-3.5 0-5.7-3.7-7.8-7.3-.7-1.2-1.7-3-2.4-3.6-.9.3-1.5 1.6-2.5 4.1-1.2 2.9-2.7 6.8-6.9 6.8v-5.5c.6-.2 1.4-2.3 1.8-3.4 1.2-3 3-7.6 8-7.6 2.9 0 4.7 2.9 6.7 6.4.8 1.3 2.1 3.5 3 4.4.7-.8 1.8-2.6 2.4-3.7 2.1-3.6 4.2-7 7.5-7 3.2 0 5.2 3.3 7.3 6.8.7 1.2 1.8 3.1 2.6 3.9.8-.9 2-2.8 2.7-4.1 2-3.4 4-6.7 7.1-6.7 3.5 0 5.7 3.7 7.8 7.3.7 1.2 1.7 2.9 2.4 3.6.8-.3 1.4-1.6 2.4-4.1 1.2-2.9 2.7-6.9 6.9-6.9s6.1 4.1 7.4 7.1c.6 1.3 1.7 3.9 2.4 3.9v5.5h.2zM293.6 395.6v61.8c0 4.2-3.4 7.7-7.7 7.7H181.1c-4.2 0-7.7-3.4-7.7-7.7v-61.8h120.2z"/><g><path fill="#0F3754" d="M296 401.5H170.9"/><path fill="#5A6274" d="M296 407.6H170.9c-3.4 0-6.1-2.7-6.1-6.1 0-3.3 2.7-6.1 6.1-6.1H296c3.4 0 6.1 2.7 6.1 6.1-.1 3.4-2.8 6.1-6.1 6.1z"/><path fill="#30363D" d="M296 421.7H170.9"/><path fill="#5A6274" d="M296 427.8H170.9c-3.4 0-6.1-2.7-6.1-6 0-3.4 2.7-6.1 6.1-6.1H296c3.4 0 6.1 2.7 6.1 6.1-.1 3.3-2.8 6-6.1 6z"/><g><path fill="#30363D" d="M296 441.9H170.9"/><path fill="#5A6274" d="M296 447.9H170.9c-3.4 0-6.1-2.7-6.1-6.1 0-3.3 2.7-6.1 6.1-6.1H296c3.4 0 6.1 2.7 6.1 6.1-.1 3.5-2.8 6.1-6.1 6.1z"/></g></g><g><path fill="#F1F9FA" d="M233.4 71c-1.7 0-3.1-1.4-3.1-3.1V3.1c0-1.7 1.4-3.1 3.1-3.1 1.7 0 3.1 1.4 3.1 3.1V68c-.1 1.7-1.4 3-3.1 3zM150.6 93.2c-1.1 0-2.1-.6-2.7-1.5l-32.4-56.2c-.9-1.5-.3-3.4 1.1-4.2 1.5-.8 3.4-.3 4.2 1.1l32.4 56.2c.9 1.5.3 3.4-1.1 4.2-.4.3-.9.4-1.5.4zM90.1 153.8c-.5 0-1.1-.1-1.5-.4L32.4 121c-1.5-.9-2-2.7-1.1-4.2.9-1.5 2.7-2 4.2-1.1l56.2 32.4c1.5.9 2 2.7 1.1 4.2-.6 1-1.6 1.5-2.7 1.5zM68 236.5H3.1c-1.7 0-3.1-1.4-3.1-3.1 0-1.7 1.4-3.1 3.1-3.1H68c1.7 0 3.1 1.4 3.1 3.1 0 1.8-1.4 3.1-3.1 3.1zM432.9 351.6c-.5 0-1.1-.1-1.5-.4l-56.2-32.5c-1.5-.9-2-2.7-1.1-4.2.9-1.5 2.7-2 4.2-1.1l56.2 32.5c1.5.9 2 2.7 1.1 4.2-.6 1-1.6 1.5-2.7 1.5zM463.7 236.4h-64.9c-1.7 0-3.1-1.4-3.1-3.1 0-1.7 1.4-3.1 3.1-3.1h64.9c1.7 0 3.1 1.4 3.1 3.1 0 1.8-1.4 3.1-3.1 3.1zM376.7 153.7c-1.1 0-2.1-.6-2.7-1.5-.9-1.5-.3-3.4 1.1-4.2l56.2-32.4c1.5-.8 3.4-.3 4.2 1.1.9 1.5.3 3.4-1.1 4.2l-56.2 32.4c-.5.3-1 .4-1.5.4zM316.1 93.2c-.5 0-1.1-.1-1.5-.4-1.5-.9-2-2.7-1.1-4.2L346 32.4c.9-1.5 2.7-2 4.2-1.1 1.5.9 2 2.7 1.1 4.2l-32.5 56.2c-.6.9-1.6 1.5-2.7 1.5z"/><path fill="#F1F9FA" d="M233.4 71c-1.7 0-3.1-1.4-3.1-3.1V3.1c0-1.7 1.4-3.1 3.1-3.1 1.7 0 3.1 1.4 3.1 3.1V68c-.1 1.7-1.4 3-3.1 3z"/><g><path fill="#F1F9FA" d="M233.5 71c-1.7 0-3.1-1.4-3.1-3.1V3.1c0-1.7 1.4-3.1 3.1-3.1 1.7 0 3.1 1.4 3.1 3.1V68c-.1 1.7-1.4 3-3.1 3zM316.2 93.2c-.5 0-1.1-.1-1.5-.4-1.5-.9-2-2.7-1.1-4.2L346 32.4c.9-1.5 2.7-2 4.2-1.1 1.5.9 2 2.7 1.1 4.2l-32.5 56.2c-.5 1-1.6 1.5-2.6 1.5zM376.7 153.8c-1.1 0-2.1-.6-2.7-1.5-.9-1.5-.3-3.4 1.1-4.2l56.2-32.4c1.5-.8 3.4-.3 4.2 1.1.9 1.5.3 3.4-1.1 4.2l-56.2 32.4c-.4.3-1 .4-1.5.4zM463.7 236.5h-64.9c-1.7 0-3.1-1.4-3.1-3.1 0-1.7 1.4-3.1 3.1-3.1h64.9c1.7 0 3.1 1.4 3.1 3.1 0 1.8-1.4 3.1-3.1 3.1zM33.9 351.6c-1.1 0-2.1-.6-2.7-1.5-.9-1.5-.3-3.4 1.1-4.2l56.2-32.5c1.5-.8 3.4-.3 4.2 1.1.9 1.5.3 3.4-1.1 4.2l-56.2 32.5c-.5.3-1 .4-1.5.4zM68 236.4H3.1c-1.7 0-3.1-1.4-3.1-3.1 0-1.7 1.4-3.1 3.1-3.1H68c1.7 0 3.1 1.4 3.1 3.1 0 1.8-1.4 3.1-3.1 3.1zM90.2 153.7c-.5 0-1.1-.1-1.5-.4l-56.2-32.4c-1.5-.9-2-2.7-1.1-4.2.9-1.5 2.7-2 4.2-1.1L91.7 148c1.5.9 2 2.7 1.1 4.2-.5 1-1.6 1.5-2.6 1.5zM150.8 93.2c-1.1 0-2.1-.6-2.7-1.5l-32.5-56.2c-.9-1.5-.3-3.4 1.1-4.2 1.5-.9 3.4-.3 4.2 1.1l32.5 56.2c.9 1.5.3 3.4-1.1 4.2-.5.3-1 .4-1.5.4z"/><path fill="#F1F9FA" d="M233.5 71c-1.7 0-3.1-1.4-3.1-3.1V3.1c0-1.7 1.4-3.1 3.1-3.1 1.7 0 3.1 1.4 3.1 3.1V68c-.1 1.7-1.4 3-3.1 3z"/></g></g></svg>