<svg xmlns="http://www.w3.org/2000/svg" viewBox="0 0 797.2 457.2"><path fill="#484F59" d="M79.1 422.7h655.6v-406C734.7 7.6 727.3 0 718 0H79.1c-9.3 0-16.7 7.6-16.7 16.7v406h16.7z"/><path fill="#33C5F3" d="M104.1 40.2h589v341.3h-589z"/><path fill="#05BDE9" d="M693.1 40.2v341.4h-589"/><path fill="#FFF" d="M796.7 419.9H.4c-.1 1.4-.4 2.6-.4 4V436c0 20 16.2 21.2 36.3 21.2h724.6c19.9 0 36.3-1.2 36.3-21.2v-12.1c0-1.4-.4-2.6-.5-4z"/><path fill="#DBE3E5" d="M313.4 419.9c.4 10.5 3.6 15 7.6 15h155.1c4 0 7.2-4.5 7.6-15H313.4z"/></svg>