<?xml version="1.0" encoding="utf-8"?>
<!-- Generator: Adobe Illustrator 16.0.0, SVG Export Plug-In . SVG Version: 6.00 Build 0)  -->
<!DOCTYPE svg PUBLIC "-//W3C//DTD SVG 1.1//EN" "http://www.w3.org/Graphics/SVG/1.1/DTD/svg11.dtd">
<svg version="1.1" id="Layer_1" xmlns="http://www.w3.org/2000/svg" xmlns:xlink="http://www.w3.org/1999/xlink" x="0px" y="0px"
	 width="500.872px" height="184.26px" viewBox="0 0 500.872 184.26" enable-background="new 0 0 500.872 184.26"
	 xml:space="preserve">
<g>
	<polygon fill="#FFFFFF" points="87.753,108.103 201.467,82.856 231.349,9.122 167.494,0 	"/>
	<polygon fill="#FFFFFF" points="76.353,174.162 146.536,158.581 164.979,113.072 125.569,107.441 	"/>
	<polygon fill="#FFFFFF" points="49.906,73.235 0.691,139.955 70.874,124.374 89.317,78.865 	"/>
	<polygon fill="#FFFFFF" points="129.133,26.553 103.462,22.886 71.406,66.344 117.12,56.194 	"/>
	<polygon fill="#FFFFFF" points="0,184.26 45.714,174.11 57.727,144.469 32.056,140.802 	"/>
	<polygon fill="#FFFFFF" points="302.299,9.282 282.583,9.282 261.914,51.734 261.597,51.734 261.597,9.282 241.88,9.282 
		241.88,124.075 261.597,124.075 261.597,83.374 268.592,70.655 268.909,70.655 284.968,124.075 305.001,124.075 280.993,52.052 	
		"/>
	<polygon fill="#FFFFFF" points="339.659,53.007 339.34,53.007 325.508,9.282 305.475,9.282 329.324,76.378 329.324,124.075 
		349.039,124.075 349.039,76.378 372.888,9.282 352.855,9.282 	"/>
	<polygon fill="#FFFFFF" points="376.383,26.454 395.462,26.454 395.462,124.075 415.177,124.075 415.177,26.454 434.256,26.454 
		434.256,9.282 376.383,9.282 	"/>
	<polygon fill="#FFFFFF" points="465.575,106.904 465.575,73.198 491.014,73.198 491.014,56.026 465.575,56.026 465.575,26.454 
		498.646,26.454 498.646,9.282 445.86,9.282 445.86,124.075 500.872,124.075 500.872,106.904 	"/>
	<polygon fill="#FFFFFF" points="243.906,146.555 241.88,146.555 241.88,173.814 259.911,173.814 259.911,171.945 243.906,171.945 	
		"/>
	<polygon fill="#FFFFFF" points="275.791,161.003 291.408,161.003 291.408,159.133 275.791,159.133 275.791,148.424 293.16,148.424 
		293.16,146.555 273.767,146.555 273.767,173.814 293.354,173.814 293.354,171.945 275.791,171.945 	"/>
	<path fill="#FFFFFF" d="M317.999,146.36l-12.695,27.455h2.103l3.467-7.633h16.083l3.465,7.633h2.221l-12.696-27.455H317.999z
		 M311.729,164.352l7.205-15.771l7.164,15.771H311.729z"/>
	<path fill="#FFFFFF" d="M367.369,154.382v-0.077c0-4.557-3.855-7.75-9.736-7.75h-11.448v27.261h2.024v-11.294h8.919l8.685,11.294
		h2.568l-8.995-11.645C363.981,161.548,367.369,158.939,367.369,154.382z M348.209,160.691v-12.268h9.308
		c4.946,0,7.827,2.299,7.827,5.958v0.078c0,3.934-3.388,6.231-7.944,6.231H348.209z"/>
	<polygon fill="#FFFFFF" points="402.837,170.271 384.027,146.555 382.12,146.555 382.12,173.814 384.066,173.814 384.066,149.593 
		403.267,173.814 404.785,173.814 404.785,146.555 402.837,146.555 	"/>
	<rect x="420.936" y="146.555" fill="#FFFFFF" width="2.025" height="27.261"/>
	<polygon fill="#FFFFFF" points="459.834,170.271 441.025,146.555 439.117,146.555 439.117,173.814 441.064,173.814 
		441.064,149.593 460.265,173.814 461.782,173.814 461.782,146.555 459.834,146.555 	"/>
	<path fill="#FFFFFF" d="M489.813,161.548h9.114v7.827c-1.987,1.675-5.22,3.115-8.687,3.115c-7.282,0-11.683-5.257-11.683-12.305
		v-0.078c0-6.582,4.634-12.19,11.255-12.19c4.129,0,6.621,1.402,8.763,3.271l1.324-1.519c-2.726-2.259-5.53-3.582-9.97-3.582
		c-8.14,0-13.475,6.737-13.475,14.098v0.077c0,7.672,5.103,14.02,13.708,14.02c4.44,0,8.256-1.909,10.709-4.089V159.68h-11.06
		V161.548z"/>
</g>
</svg>
